<?xml version="1.0" encoding="UTF-8" standalone="no"?>
<!-- Created with Inkscape (http://www.inkscape.org/) -->

<svg
   xmlns:dc="http://purl.org/dc/elements/1.1/"
   xmlns:cc="http://creativecommons.org/ns#"
   xmlns:rdf="http://www.w3.org/1999/02/22-rdf-syntax-ns#"
   xmlns:svg="http://www.w3.org/2000/svg"
   xmlns="http://www.w3.org/2000/svg"
   xmlns:sodipodi="http://sodipodi.sourceforge.net/DTD/sodipodi-0.dtd"
   xmlns:inkscape="http://www.inkscape.org/namespaces/inkscape"
   width="100"
   height="100"
   viewBox="0 0 26.458333 26.458333"
   version="1.1"
   id="svg8"
   inkscape:version="0.92.2 (5c3e80d, 2017-08-06)"
   sodipodi:docname="atom.svg">
  <defs
     id="defs2" />
  <sodipodi:namedview
     id="base"
     pagecolor="#ffffff"
     bordercolor="#666666"
     borderopacity="1.0"
     inkscape:pageopacity="0.0"
     inkscape:pageshadow="2"
     inkscape:zoom="5.6"
     inkscape:cx="21.761633"
     inkscape:cy="42.853354"
     inkscape:document-units="mm"
     inkscape:current-layer="layer1"
     showgrid="false"
     units="px"
     inkscape:window-width="1920"
     inkscape:window-height="986"
     inkscape:window-x="-11"
     inkscape:window-y="-11"
     inkscape:window-maximized="1" />
  <metadata
     id="metadata5">
    <rdf:RDF>
      <cc:Work
         rdf:about="">
        <dc:format>image/svg+xml</dc:format>
        <dc:type
           rdf:resource="http://purl.org/dc/dcmitype/StillImage" />
        <dc:title></dc:title>
      </cc:Work>
    </rdf:RDF>
  </metadata>
  <g
     inkscape:label="Layer 1"
     inkscape:groupmode="layer"
     id="layer1"
     transform="translate(0,-270.54167)">
    <circle
       style="opacity:1;vector-effect:none;fill:#b78a94;fill-opacity:1;stroke:none;stroke-width:0;stroke-linecap:butt;stroke-linejoin:miter;stroke-miterlimit:4;stroke-dasharray:none;stroke-dashoffset:0;stroke-opacity:1"
       id="path18-7"
       cx="13.373953"
       cy="281.14761"
       r="1.5707543" />
    <circle
       style="opacity:1;vector-effect:none;fill:#4c576e;fill-opacity:1;stroke:none;stroke-width:0;stroke-linecap:butt;stroke-linejoin:miter;stroke-miterlimit:4;stroke-dasharray:none;stroke-dashoffset:0;stroke-opacity:1"
       id="path18-7-4"
       cx="13.456623"
       cy="283.87573"
       r="1.5707543" />
    <circle
       style="opacity:1;vector-effect:none;fill:#4c576e;fill-opacity:1;stroke:none;stroke-width:0;stroke-linecap:butt;stroke-linejoin:miter;stroke-miterlimit:4;stroke-dasharray:none;stroke-dashoffset:0;stroke-opacity:1"
       id="path18-7-4-9"
       cx="11.362284"
       cy="282.44284"
       r="1.5707543" />
    <circle
       style="opacity:1;vector-effect:none;fill:#4c576e;fill-opacity:1;stroke:none;stroke-width:0;stroke-linecap:butt;stroke-linejoin:miter;stroke-miterlimit:4;stroke-dasharray:none;stroke-dashoffset:0;stroke-opacity:1"
       id="path18-7-4-9-7"
       cx="15.546531"
       cy="282.38766"
       r="1.5707543" />
    <circle
       style="opacity:1;vector-effect:none;fill:#b78a94;fill-opacity:1;stroke:none;stroke-width:0;stroke-linecap:butt;stroke-linejoin:miter;stroke-miterlimit:4;stroke-dasharray:none;stroke-dashoffset:0;stroke-opacity:1"
       id="path18-7-4-9-2"
       cx="11.216141"
       cy="285.0137"
       r="1.5707543" />
    <circle
       style="opacity:1;vector-effect:none;fill:#4c576e;fill-opacity:1;stroke:none;stroke-width:0;stroke-linecap:butt;stroke-linejoin:miter;stroke-miterlimit:4;stroke-dasharray:none;stroke-dashoffset:0;stroke-opacity:1"
       id="path18-7-4-9-2-2"
       cx="13.456623"
       cy="286.19058"
       r="1.5707543" />
    <circle
       style="opacity:1;vector-effect:none;fill:#b78a94;fill-opacity:1;stroke:none;stroke-width:0;stroke-linecap:butt;stroke-linejoin:miter;stroke-miterlimit:4;stroke-dasharray:none;stroke-dashoffset:0;stroke-opacity:1"
       id="path18-7-4-9-2-2-4"
       cx="15.714643"
       cy="284.91321"
       r="1.5707543" />
    <path
       style="color:#000000;font-style:normal;font-variant:normal;font-weight:normal;font-stretch:normal;font-size:medium;line-height:normal;font-family:sans-serif;font-variant-ligatures:normal;font-variant-position:normal;font-variant-caps:normal;font-variant-numeric:normal;font-variant-alternates:normal;font-feature-settings:normal;text-indent:0;text-align:start;text-decoration:none;text-decoration-line:none;text-decoration-style:solid;text-decoration-color:#000000;letter-spacing:normal;word-spacing:normal;text-transform:none;writing-mode:lr-tb;direction:ltr;text-orientation:mixed;dominant-baseline:auto;baseline-shift:baseline;text-anchor:start;white-space:normal;shape-padding:0;clip-rule:nonzero;display:inline;overflow:visible;visibility:visible;opacity:1;isolation:auto;mix-blend-mode:normal;color-interpolation:sRGB;color-interpolation-filters:linearRGB;solid-color:#000000;solid-opacity:1;vector-effect:none;fill:#c8c696;fill-opacity:1;fill-rule:nonzero;stroke:none;stroke-width:0.60710531;stroke-linecap:butt;stroke-linejoin:miter;stroke-miterlimit:4;stroke-dasharray:none;stroke-dashoffset:0;stroke-opacity:1;color-rendering:auto;image-rendering:auto;shape-rendering:auto;text-rendering:auto;enable-background:accumulate"
       d="m 13.371097,270.95629 c -0.77793,0 -1.499033,0.40617 -2.119149,1.07985 -0.620117,0.67367 -1.158866,1.62003 -1.6091026,2.77645 -0.9004747,2.31282 -1.4469116,5.47193 -1.4469116,8.95889 0,3.48697 0.5464369,6.64394 1.4469116,8.95677 0.4502366,1.15641 0.9889856,2.10278 1.6091026,2.77645 0.620116,0.67367 1.341219,1.08198 2.119149,1.08198 0.777929,0 1.499032,-0.40831 2.119149,-1.08198 0.620117,-0.67367 1.158865,-1.62004 1.609102,-2.77645 0.900475,-2.31283 1.446912,-5.4698 1.446912,-8.95677 0,-3.48696 -0.546437,-6.64607 -1.446912,-8.95889 -0.450237,-1.15642 -0.988985,-2.10278 -1.609102,-2.77645 -0.620117,-0.67368 -1.34122,-1.07985 -2.119149,-1.07985 z m 0,0.60608 c 0.567249,0 1.127647,0.29306 1.673125,0.88564 0.545476,0.59259 1.05616,1.47875 1.487459,2.58652 0.862596,2.21554 1.406363,5.31386 1.406363,8.73695 0,3.4231 -0.543767,6.52142 -1.406363,8.73696 -0.431299,1.10777 -0.941983,1.9918 -1.487459,2.58438 -0.545478,0.59259 -1.105876,0.88565 -1.673125,0.88565 -0.567249,0 -1.127648,-0.29306 -1.673125,-0.88565 -0.545477,-0.59258 -1.058295,-1.47661 -1.489594,-2.58438 -0.8625953,-2.21554 -1.4042292,-5.31386 -1.4042292,-8.73696 0,-3.42309 0.5416339,-6.52141 1.4042292,-8.73695 0.431299,-1.10777 0.944117,-1.99393 1.489594,-2.58652 0.545477,-0.59258 1.105876,-0.88564 1.673125,-0.88564 z"
       id="path958"
       inkscape:connector-curvature="0" />
    <path
       style="color:#000000;font-style:normal;font-variant:normal;font-weight:normal;font-stretch:normal;font-size:medium;line-height:normal;font-family:sans-serif;font-variant-ligatures:normal;font-variant-position:normal;font-variant-caps:normal;font-variant-numeric:normal;font-variant-alternates:normal;font-feature-settings:normal;text-indent:0;text-align:start;text-decoration:none;text-decoration-line:none;text-decoration-style:solid;text-decoration-color:#000000;letter-spacing:normal;word-spacing:normal;text-transform:none;writing-mode:lr-tb;direction:ltr;text-orientation:mixed;dominant-baseline:auto;baseline-shift:baseline;text-anchor:start;white-space:normal;shape-padding:0;clip-rule:nonzero;display:inline;overflow:visible;visibility:visible;opacity:1;isolation:auto;mix-blend-mode:normal;color-interpolation:sRGB;color-interpolation-filters:linearRGB;solid-color:#000000;solid-opacity:1;vector-effect:none;fill:#c8c696;fill-opacity:1;fill-rule:nonzero;stroke:none;stroke-width:0.60710531;stroke-linecap:butt;stroke-linejoin:miter;stroke-miterlimit:4;stroke-dasharray:none;stroke-dashoffset:0;stroke-opacity:1;color-rendering:auto;image-rendering:auto;shape-rendering:auto;text-rendering:auto;enable-background:accumulate"
       d="m 24.570695,277.64618 c -0.378021,-0.67991 -1.083424,-1.11277 -1.973547,-1.32739 -0.890128,-0.21463 -1.97987,-0.22272 -3.209353,-0.0543 -2.45897,0.33688 -5.484729,1.39151 -8.532318,3.08594 -3.0475897,1.69443 -5.5401949,3.70797 -7.1240309,5.61886 -0.79192,0.95545 -1.3582743,1.88431 -1.6457241,2.75366 -0.2874456,0.86932 -0.2938995,1.69798 0.08412,2.37788 0.3780201,0.67991 1.0863301,1.1136 1.976449,1.32823 0.8901232,0.21462 1.9779939,0.22375 3.2074863,0.0553 2.4589746,-0.33686 5.4836837,-1.39336 8.5312737,-3.08779 3.047589,-1.69443 5.541245,-3.70611 7.125075,-5.617 0.791911,-0.95544 1.360136,-1.88535 1.647591,-2.75469 0.28745,-0.86935 0.290997,-1.69882 -0.08702,-2.37873 z m -0.529715,0.29451 c 0.275647,0.49578 0.29183,1.12798 0.03899,1.89267 -0.252857,0.76471 -0.77816,1.64353 -1.536762,2.55878 -1.517209,1.83051 -3.960896,3.81133 -6.952668,5.47473 -2.991761,1.66339 -5.9639206,2.69372 -8.3194565,3.01643 -1.1777606,0.16135 -2.2014629,0.14376 -2.9844477,-0.045 -0.7829754,-0.18879 -1.3095639,-0.5372 -1.5852103,-1.03299 -0.2756463,-0.49576 -0.2926515,-1.12506 -0.03981,-1.88976 0.2528561,-0.7647 0.7781651,-1.64351 1.5367616,-2.55877 1.5172081,-1.83052 3.960896,-3.81134 6.9526579,-5.47474 2.991771,-1.66339 5.963931,-2.69372 8.319467,-3.01642 1.177765,-0.16135 2.201463,-0.14376 2.984447,0.045 0.782981,0.1888 1.310392,0.53431 1.586037,1.03008 z"
       id="path958-5"
       inkscape:connector-curvature="0" />
    <path
       style="color:#000000;font-style:normal;font-variant:normal;font-weight:normal;font-stretch:normal;font-size:medium;line-height:normal;font-family:sans-serif;font-variant-ligatures:normal;font-variant-position:normal;font-variant-caps:normal;font-variant-numeric:normal;font-variant-alternates:normal;font-feature-settings:normal;text-indent:0;text-align:start;text-decoration:none;text-decoration-line:none;text-decoration-style:solid;text-decoration-color:#000000;letter-spacing:normal;word-spacing:normal;text-transform:none;writing-mode:lr-tb;direction:ltr;text-orientation:mixed;dominant-baseline:auto;baseline-shift:baseline;text-anchor:start;white-space:normal;shape-padding:0;clip-rule:nonzero;display:inline;overflow:visible;visibility:visible;opacity:1;isolation:auto;mix-blend-mode:normal;color-interpolation:sRGB;color-interpolation-filters:linearRGB;solid-color:#000000;solid-opacity:1;vector-effect:none;fill:#c8c696;fill-opacity:1;fill-rule:nonzero;stroke:none;stroke-width:0.60710531;stroke-linecap:butt;stroke-linejoin:miter;stroke-miterlimit:4;stroke-dasharray:none;stroke-dashoffset:0;stroke-opacity:1;color-rendering:auto;image-rendering:auto;shape-rendering:auto;text-rendering:auto;enable-background:accumulate"
       d="m 23.618512,291.3283 c 0.458681,-0.62832 0.555329,-1.45321 0.376861,-2.35128 -0.178483,-0.89806 -0.626441,-1.88947 -1.29499,-2.93496 -1.337088,-2.09099 -3.566453,-4.39501 -6.382804,-6.45099 -2.816352,-2.05598 -5.688366,-3.47605 -8.0873332,-4.11244 -1.199488,-0.31821 -2.2802406,-0.44279 -3.1899864,-0.33914 -0.9097521,0.10369 -1.6659657,0.44705 -2.1246459,1.07537 -0.4586801,0.6283 -0.5540812,1.45148 -0.3755978,2.34954 0.178477,0.89807 0.6264343,1.88948 1.2949832,2.93497 1.3370952,2.09099 3.5647231,4.39376 6.3810751,6.44974 2.816352,2.05598 5.690101,3.4773 8.089062,4.11369 1.199489,0.31821 2.280242,0.44279 3.189993,0.33914 0.909737,-0.10369 1.664703,-0.44532 2.123383,-1.07364 z m -0.491242,-0.35862 c -0.334463,0.45816 -0.900329,0.73627 -1.700575,0.82743 -0.800236,0.0911 -1.816618,-0.0158 -2.965644,-0.32068 -2.298051,-0.60962 -5.122849,-1.99853 -7.887618,-4.01684 -2.7647602,-2.01833 -4.9466019,-4.28435 -6.2274478,-6.28738 -0.6404241,-1.00152 -1.0520658,-1.93694 -1.2090664,-2.72692 -0.1569919,-0.78997 -0.064525,-1.41367 0.2699378,-1.87183 0.3344624,-0.45815 0.9015845,-0.73798 1.7018213,-0.82916 0.8002456,-0.0911 1.8166253,0.0159 2.9656525,0.3207 2.2980516,0.60962 5.1211296,1.99727 7.8858886,4.01559 2.764769,2.01832 4.948332,4.28561 6.229177,6.28863 0.640423,1.00151 1.052067,1.93696 1.209058,2.72692 0.157001,0.78997 0.06328,1.41539 -0.271184,1.87354 z"
       id="path958-5-6"
       inkscape:connector-curvature="0" />
    <circle
       style="opacity:1;vector-effect:none;fill:#353f55;fill-opacity:1;stroke:#8d94a2;stroke-width:0;stroke-linecap:butt;stroke-linejoin:miter;stroke-miterlimit:4;stroke-dasharray:none;stroke-dashoffset:0;stroke-opacity:1"
       id="path990"
       cx="5.9885755"
       cy="275.35599"
       r="0.92924279" />
    <circle
       style="opacity:1;vector-effect:none;fill:#353f55;fill-opacity:1;stroke:#8d94a2;stroke-width:0;stroke-linecap:butt;stroke-linejoin:miter;stroke-miterlimit:4;stroke-dasharray:none;stroke-dashoffset:0;stroke-opacity:1"
       id="path990-4"
       cx="10.428292"
       cy="293.4762"
       r="0.92924279" />
    <circle
       style="opacity:1;vector-effect:none;fill:#353f55;fill-opacity:1;stroke:#8d94a2;stroke-width:0;stroke-linecap:butt;stroke-linejoin:miter;stroke-miterlimit:4;stroke-dasharray:none;stroke-dashoffset:0;stroke-opacity:1"
       id="path990-2"
       cx="20.608662"
       cy="276.3988"
       r="0.92924279" />
  </g>
</svg>
