<?xml version="1.0" encoding="UTF-8" standalone="no"?>
<!-- Generator: Adobe Illustrator 21.1.0, SVG Export Plug-In . SVG Version: 6.00 Build 0)  -->

<svg
   xmlns:dc="http://purl.org/dc/elements/1.1/"
   xmlns:cc="http://creativecommons.org/ns#"
   xmlns:rdf="http://www.w3.org/1999/02/22-rdf-syntax-ns#"
   xmlns:svg="http://www.w3.org/2000/svg"
   xmlns="http://www.w3.org/2000/svg"
   xmlns:sodipodi="http://sodipodi.sourceforge.net/DTD/sodipodi-0.dtd"
   xmlns:inkscape="http://www.inkscape.org/namespaces/inkscape"
   version="1.1"
   id="Layer_1"
   x="0px"
   y="0px"
   viewBox="0 0 100 100"
   style="enable-background:new 0 0 100 100;"
   xml:space="preserve"
   sodipodi:docname="bates-logo.svg"
   inkscape:version="0.92.2 (5c3e80d, 2017-08-06)"><metadata
     id="metadata12"><rdf:RDF><cc:Work
         rdf:about=""><dc:format>image/svg+xml</dc:format><dc:type
           rdf:resource="http://purl.org/dc/dcmitype/StillImage" /></cc:Work></rdf:RDF></metadata><defs
     id="defs10"><filter
       style="color-interpolation-filters:sRGB;"
       inkscape:label="Drop Shadow"
       id="filter5021"><feFlood
         flood-opacity="0.498039"
         flood-color="rgb(0,0,0)"
         result="flood"
         id="feFlood5011" /><feComposite
         in="flood"
         in2="SourceGraphic"
         operator="out"
         result="composite1"
         id="feComposite5013" /><feGaussianBlur
         in="composite1"
         stdDeviation="1.5"
         result="blur"
         id="feGaussianBlur5015" /><feOffset
         dx="3"
         dy="3"
         result="offset"
         id="feOffset5017" /><feComposite
         in="offset"
         in2="SourceGraphic"
         operator="atop"
         result="composite2"
         id="feComposite5019" /></filter></defs><sodipodi:namedview
     pagecolor="#ffffff"
     bordercolor="#666666"
     borderopacity="1"
     objecttolerance="10"
     gridtolerance="10"
     guidetolerance="10"
     inkscape:pageopacity="0"
     inkscape:pageshadow="2"
     inkscape:window-width="1516"
     inkscape:window-height="850"
     id="namedview8"
     showgrid="false"
     inkscape:zoom="4.72"
     inkscape:cx="4.091831"
     inkscape:cy="42.990208"
     inkscape:window-x="0"
     inkscape:window-y="0"
     inkscape:window-maximized="0"
     inkscape:current-layer="Layer_1" /><style
     type="text/css"
     id="style2">
	.st0{fill:#612634;}
</style><g
     id="gL7Wi9.tif"
     transform="matrix(0.88788198,0,0,0.88788198,5.6091754,5.5834777)"><path
       class="st0"
       d="m 72.6,50.2 c 0.7,-0.8 0.9,-1.9 1.5,-3.3 l 1,4.5 C 77.3,48.5 77.6,44 76,42.2 L 74.3,45 c -0.8,-1.1 -1.4,-2 -2,-3 l -2.6,1.4 c 0,-1.1 -0.3,-2.3 0.1,-2.7 0.6,-0.6 1.8,-0.7 2.8,-0.7 1,-0.1 2.1,0.2 3.2,0.3 -0.5,-1.1 -1.2,-1.7 -1.9,-2.3 -1.2,-1.1 -2.4,-2.1 -3.6,-3.2 -0.2,-0.2 0,-0.6 0,-1.2 1,0.3 1.7,0.6 3,1.1 -0.7,-1.2 -1,-2 -1.5,-2.7 -1.1,-1.3 -1.6,-2.6 -1.2,-4.4 0.3,-1.2 0.2,-2.5 0.1,-3.7 -0.4,-3.4 -0.8,-6.7 -1.3,-10.3 -4.5,1.5 -7.6,4.7 -9.7,8.4 H 48.4 C 42.7,13.7 34.9,8.4 25.2,6.3 c 0.9,3.5 2.2,6.8 2.5,10.2 0.4,5.2 0.7,10.2 4.2,14.4 -2.6,2.7 -4.4,5.6 -5.1,9.4 1.4,-0.4 2.5,-0.7 4.1,-1.2 -0.6,0.8 -0.9,1.3 -1.2,1.7 -3.4,3.7 -5.3,8 -6.2,12.9 -1.9,10 2.3,19.8 10.5,24.8 1.2,0.7 2.6,1.2 3.9,1.8 C 38,80.1 38.1,80 38.2,79.8 34,76 31.5,71.4 31.3,65.6 c 1.6,2.3 3,4.7 4.8,6.7 3.2,3.7 7.4,5.9 11.8,7.6 7.1,2.7 13.8,6 18,13.4 1.8,-4.8 2.1,-9.2 1.3,-13.8 -0.8,-4.4 -3.4,-8 -5.8,-11.6 -0.9,-1.3 -1.8,-2.7 -2.3,-4.2 -0.6,-1.6 0.2,-3.3 1.4,-3.6 1.7,-0.4 2,0.9 2.3,2.2 3.1,-0.1 6.2,0.9 8.6,-2.4 l 1,5.6 c 2.7,-2.6 2.7,-5.6 2.3,-8.7 -0.1,-0.9 -0.2,-1.8 -0.1,-2.7 0.2,-1.7 -0.3,-2.3 -2,-2.1 -0.8,0.1 -1.6,0.3 -2.4,0.4 0.7,-1 1.8,-1.4 2.4,-2.2 z M 62,35.2 c -2.9,1.2 -5.6,1.6 -7.6,-1.6 2.4,-2.5 5.4,-1.9 7.6,1.6 z m -8.1,37 c -4.2,0.1 -6.9,-2.5 -10,-9.4 -0.6,0.6 -1.2,1.2 -2.1,2 -0.8,-2.2 -1.6,-4.2 -2.4,-6.4 -0.5,0.6 -1,1.1 -1.7,1.9 -0.6,-0.8 -1.3,-1.4 -1.7,-2.2 -2.2,-4.2 -2.6,-8.5 -0.1,-12.7 -0.5,3.8 -0.2,7.5 1.6,11 1.6,-0.4 1.9,-1.5 2,-2.8 0.4,-3.7 1.4,-5.7 4,-8.5 -1.8,5.1 -2.4,9.9 -1,14.7 1.4,-0.3 1.8,-1.2 2.2,-2.4 0.8,-2.9 2.4,-5.3 5.4,-6.3 -5.5,7.5 -5.3,14.6 0.7,17.6 0.8,-6.6 1,-7.2 4.2,-9.7 -2.2,4.5 -2.2,8.8 -1.1,13.2 z M 46.4,48 c 4.2,-3.9 12.9,-4.8 18.7,-1.9 -6.3,-0.8 -12.4,0 -18.7,1.9 z m 6.4,6.3 c 2,-3.8 7.5,-6.2 12.5,-5.6 -4.2,1.8 -8.4,3.7 -12.5,5.6 z M 42.7,41.1 c 6.2,-3.6 18,-2.2 23.8,2.6 C 58.9,41.1 51.1,40 42.7,41.1 Z"
       id="path4"
       style="fill:#612634"
       inkscape:connector-curvature="0" /></g></svg>