<?xml version="1.0" encoding="utf-8"?>
<!-- Generator: Adobe Illustrator 21.1.0, SVG Export Plug-In . SVG Version: 6.00 Build 0)  -->
<svg version="1.1" id="Layer_1" xmlns="http://www.w3.org/2000/svg" xmlns:xlink="http://www.w3.org/1999/xlink" x="0px" y="0px"
	 viewBox="0 0 100 100" style="enable-background:new 0 0 100 100;" xml:space="preserve">
<style type="text/css">
	.st0{fill:#612634;}
</style>
<g id="gL7Wi9.tif">
	<path class="st0" d="M72.6,50.2c0.7-0.8,0.9-1.9,1.5-3.3l1,4.5c2.2-2.9,2.5-7.4,0.9-9.2l-1.7,2.8c-0.8-1.1-1.4-2-2-3l-2.6,1.4
		c0-1.1-0.3-2.3,0.1-2.7c0.6-0.6,1.8-0.7,2.8-0.7c1-0.1,2.1,0.2,3.2,0.3c-0.5-1.1-1.2-1.7-1.9-2.3c-1.2-1.1-2.4-2.1-3.6-3.2
		c-0.2-0.2,0-0.6,0-1.2c1,0.3,1.7,0.6,3,1.1c-0.7-1.2-1-2-1.5-2.7c-1.1-1.3-1.6-2.6-1.2-4.4c0.3-1.2,0.2-2.5,0.1-3.7
		c-0.4-3.4-0.8-6.7-1.3-10.3c-4.5,1.5-7.6,4.7-9.7,8.4H48.4C42.7,13.7,34.9,8.4,25.2,6.3c0.9,3.5,2.2,6.8,2.5,10.2
		c0.4,5.2,0.7,10.2,4.2,14.4c-2.6,2.7-4.4,5.6-5.1,9.4c1.4-0.4,2.5-0.7,4.1-1.2c-0.6,0.8-0.9,1.3-1.2,1.7c-3.4,3.7-5.3,8-6.2,12.9
		c-1.9,10,2.3,19.8,10.5,24.8c1.2,0.7,2.6,1.2,3.9,1.8c0.1-0.2,0.2-0.3,0.3-0.5c-4.2-3.8-6.7-8.4-6.9-14.2c1.6,2.3,3,4.7,4.8,6.7
		c3.2,3.7,7.4,5.9,11.8,7.6c7.1,2.7,13.8,6,18,13.4c1.8-4.8,2.1-9.2,1.3-13.8c-0.8-4.4-3.4-8-5.8-11.6c-0.9-1.3-1.8-2.7-2.3-4.2
		c-0.6-1.6,0.2-3.3,1.4-3.6c1.7-0.4,2,0.9,2.3,2.2c3.1-0.1,6.2,0.9,8.6-2.4l1,5.6c2.7-2.6,2.7-5.6,2.3-8.7c-0.1-0.9-0.2-1.8-0.1-2.7
		c0.2-1.7-0.3-2.3-2-2.1c-0.8,0.1-1.6,0.3-2.4,0.4C70.9,51.4,72,51,72.6,50.2z M62,35.2c-2.9,1.2-5.6,1.6-7.6-1.6
		C56.8,31.1,59.8,31.7,62,35.2z M53.9,72.2c-4.2,0.1-6.9-2.5-10-9.4c-0.6,0.6-1.2,1.2-2.1,2c-0.8-2.2-1.6-4.2-2.4-6.4
		c-0.5,0.6-1,1.1-1.7,1.9c-0.6-0.8-1.3-1.4-1.7-2.2c-2.2-4.2-2.6-8.5-0.1-12.7c-0.5,3.8-0.2,7.5,1.6,11c1.6-0.4,1.9-1.5,2-2.8
		c0.4-3.7,1.4-5.7,4-8.5c-1.8,5.1-2.4,9.9-1,14.7c1.4-0.3,1.8-1.2,2.2-2.4c0.8-2.9,2.4-5.3,5.4-6.3c-5.5,7.5-5.3,14.6,0.7,17.6
		c0.8-6.6,1-7.2,4.2-9.7C52.8,63.5,52.8,67.8,53.9,72.2z M46.4,48c4.2-3.9,12.9-4.8,18.7-1.9C58.8,45.3,52.7,46.1,46.4,48z
		 M52.8,54.3c2-3.8,7.5-6.2,12.5-5.6C61.1,50.5,56.9,52.4,52.8,54.3z M42.7,41.1c6.2-3.6,18-2.2,23.8,2.6
		C58.9,41.1,51.1,40,42.7,41.1z"/>
</g>
</svg>
