<?xml version="1.0" encoding="UTF-8" standalone="no"?>
<!-- Created with Inkscape (http://www.inkscape.org/) -->

<svg
   xmlns:dc="http://purl.org/dc/elements/1.1/"
   xmlns:cc="http://creativecommons.org/ns#"
   xmlns:rdf="http://www.w3.org/1999/02/22-rdf-syntax-ns#"
   xmlns:svg="http://www.w3.org/2000/svg"
   xmlns="http://www.w3.org/2000/svg"
   xmlns:sodipodi="http://sodipodi.sourceforge.net/DTD/sodipodi-0.dtd"
   xmlns:inkscape="http://www.inkscape.org/namespaces/inkscape"
   width="100"
   height="100"
   viewBox="0 0 26.458333 26.458333"
   version="1.1"
   id="svg1031"
   inkscape:version="0.92.2 (5c3e80d, 2017-08-06)"
   sodipodi:docname="cougar.svg">
  <defs
     id="defs1025">
    <filter
       style="color-interpolation-filters:sRGB;"
       inkscape:label="Drop Shadow"
       id="filter1558">
      <feFlood
         flood-opacity="0.498039"
         flood-color="rgb(0,0,0)"
         result="flood"
         id="feFlood1548" />
      <feComposite
         in="flood"
         in2="SourceGraphic"
         operator="out"
         result="composite1"
         id="feComposite1550" />
      <feGaussianBlur
         in="composite1"
         stdDeviation="0.2"
         result="blur"
         id="feGaussianBlur1552" />
      <feOffset
         dx="0.6"
         dy="0.6"
         result="offset"
         id="feOffset1554" />
      <feComposite
         in="offset"
         in2="SourceGraphic"
         operator="atop"
         result="composite2"
         id="feComposite1556" />
    </filter>
  </defs>
  <sodipodi:namedview
     id="base"
     pagecolor="#ffffff"
     bordercolor="#666666"
     borderopacity="1.0"
     inkscape:pageopacity="0.0"
     inkscape:pageshadow="2"
     inkscape:zoom="5.6"
     inkscape:cx="2.5303283"
     inkscape:cy="43.431733"
     inkscape:document-units="mm"
     inkscape:current-layer="layer1"
     showgrid="false"
     units="px"
     inkscape:window-width="1920"
     inkscape:window-height="986"
     inkscape:window-x="-11"
     inkscape:window-y="-11"
     inkscape:window-maximized="1" />
  <metadata
     id="metadata1028">
    <rdf:RDF>
      <cc:Work
         rdf:about="">
        <dc:format>image/svg+xml</dc:format>
        <dc:type
           rdf:resource="http://purl.org/dc/dcmitype/StillImage" />
        <dc:title />
      </cc:Work>
    </rdf:RDF>
  </metadata>
  <g
     inkscape:label="Layer 1"
     inkscape:groupmode="layer"
     id="layer1"
     transform="translate(0,-270.54167)">
    <path
       style="fill:#353f55;fill-opacity:1;stroke-width:0.25230914;"
       d="m 10.998499,290.45172 -1.3165219,-0.75634 0.1444911,-0.37654 c 0.149715,-0.39016 0.2769258,-0.35235 1.3797478,0.41005 l 0.657362,0.45445 0.288972,-0.63422 c 0.158934,-0.34883 0.629777,-0.77752 1.046317,-0.95266 l 0.757345,-0.31844 -0.694442,-0.62922 c -0.381943,-0.34608 -1.347291,-1.11939 -2.145218,-1.71847 l -1.4507785,-1.08925 v -0.71448 -0.71447 l 1.4021795,-1.46254 c 0.791661,-0.82576 1.270091,-1.19283 1.098813,-0.84309 l -0.303367,0.61946 0.961697,0.83131 c 1.159405,1.00223 0.989595,1.06762 -0.43579,0.16781 l -1.051079,-0.66352 -0.468359,0.5784 c -0.257599,0.31813 -0.435207,0.74914 -0.394686,0.95782 0.04051,0.20868 0.900322,1.07014 1.91067,1.91436 1.030401,0.86097 2.395067,2.33813 3.107984,3.36418 l 1.270985,1.82924 h 0.724842 c 1.089615,0 1.157071,-0.46181 0.08065,-0.55215 l -0.936847,-0.0786 -0.192522,-0.75693 c -0.105886,-0.4163 -0.295695,-1.42083 -0.421796,-2.23229 l -0.229274,-1.47537 0.785665,-0.47908 c 0.432115,-0.2635 0.615356,-0.47909 0.407202,-0.47909 -0.208156,0 -0.747467,0.22499 -1.198469,0.49997 -0.451003,0.27499 -0.820006,0.39027 -0.820006,0.2562 0,-0.13406 0.539312,-0.53513 1.198469,-0.89123 l 1.198469,-0.64747 -1.211478,0.13497 -1.211478,0.13497 0.154054,-0.24926 c 0.08473,-0.1371 0.856974,-0.24753 1.716096,-0.2454 l 1.562042,0.004 -0.378463,0.24458 c -0.208156,0.13452 -0.264925,0.24807 -0.126155,0.25231 0.13877,0.004 0.09866,0.10509 -0.08912,0.22409 l -0.341435,0.21635 0.285641,0.53373 c 0.313178,0.58518 1.298565,0.9358 1.939146,0.68998 l 0.407654,-0.15643 -0.144221,-0.5515 c -0.07932,-0.30333 -0.0079,-0.7157 0.158628,-0.91641 l 0.302849,-0.36491 -0.565718,0.17956 -0.565716,0.17954 v -0.42847 -0.42848 l 0.883081,0.1433 c 0.50848,0.0825 0.883082,0.0378 0.883082,-0.10518 0,-0.29583 -1.241982,-1.48596 -1.550697,-1.48596 -0.118507,0 -0.215466,-0.18245 -0.215466,-0.40545 V 281.064 l 0.378464,0.14522 c 0.222502,0.0853 0.378463,0.003 0.378463,-0.19917 0,-0.60362 -1.713877,-1.87547 -3.069949,-2.27818 -1.448214,-0.43007 -3.095977,-0.5199 -2.871408,-0.15655 0.176101,0.28494 -1.488925,-0.15195 -2.435393,-0.63904 -0.374725,-0.19284 -0.746538,-0.35062 -0.82625,-0.35062 -0.283753,0 -0.647278,1.33647 -0.494477,1.81791 l 0.155431,0.48971 0.481766,-0.43599 c 0.264974,-0.2398 0.481769,-0.32246 0.481769,-0.18368 0,0.4776 -0.968627,1.12785 -1.5561253,1.04464 l -0.5885029,-0.0833 -0.080628,-0.56769 c -0.044343,-0.31222 -0.1734358,-0.56769 -0.2868718,-0.56769 -0.575078,0 -2.7201235,1.76579 -3.2182533,2.64924 -0.6944896,1.23171 -0.7064901,1.38771 -0.1067579,1.38771 0.5154211,0 1.8001897,0.90926 1.8001897,1.27404 0,0.12549 -0.2746223,0.40811 -0.6102728,0.62805 l -0.6102731,0.39986 -0.9709791,-0.49536 -0.9709791,-0.49535 -0.2774548,-1.0395 -0.2774547,-1.03947 1.3445,-1.2288 c 0.739475,-0.67584 1.9382309,-1.52467 2.6639018,-1.88629 l 1.319402,-0.65749 0.014809,-0.82063 0.014809,-0.82064 0.6731141,-0.0778 c 0.3702132,-0.0428 1.2618992,0.22053 1.9815262,0.58519 l 1.308412,0.66302 2.433884,0.0681 c 1.338636,0.0375 2.977773,-0.0375 3.642527,-0.16672 0.664754,-0.12916 1.392402,-0.16431 1.616995,-0.0781 l 0.408351,0.1567 -0.719179,0.75066 -0.719178,0.75065 0.80527,0.83084 c 0.442899,0.45696 0.80527,0.99889 0.80527,1.20428 0,0.2054 0.238136,0.57736 0.52919,0.82656 l 0.52919,0.4531 -0.127104,0.48606 -0.127106,0.48605 h 0.592262 c 0.325744,0 0.661375,0.11182 0.745848,0.24851 l 0.153587,0.24851 -0.769469,-0.15389 -0.76947,-0.1539 v 0.28385 c 0,0.15611 0.141924,0.28637 0.315386,0.28945 0.344123,0.006 1.70185,0.98888 1.378824,0.99802 -0.10896,0.003 -0.481506,-0.18008 -0.827879,-0.40703 -0.902488,-0.59133 -1.074838,-0.21107 -0.280242,0.61831 0.371502,0.38777 0.674894,0.81235 0.674204,0.94353 -6.82e-4,0.13118 -0.266323,-0.0928 -0.590297,-0.49766 l -0.589044,-0.73616 -0.653608,0.48386 c -0.359485,0.26612 -0.707687,0.68253 -0.773782,0.92539 -0.146736,0.53914 -0.672035,0.58844 -0.672035,0.0631 0,-0.46114 -0.275656,-0.48262 -0.809382,-0.0631 -0.519212,0.40814 -0.800035,1.36194 -0.462427,1.57058 0.310328,0.19179 0.344025,1.63196 0.04907,2.09684 -0.113181,0.17838 -0.629148,0.39303 -1.146594,0.477 l -0.94081,0.15267 -1.20757,-1.30667 -1.20757,-1.30666 -0.262084,0.32505 c -0.144146,0.17877 -0.340985,0.69404 -0.437421,1.14505 -0.09643,0.451 -0.270567,0.82 -0.386962,0.82 -0.116394,0 -0.362836,0.0563 -0.547649,0.1251 -0.184812,0.0689 -0.928457,-0.21526 -1.652543,-0.63125 z m 6.32779,-1.13386 c -0.07987,-0.20815 -0.189852,-0.37846 -0.24439,-0.37846 -0.05454,0 -0.09916,0.17031 -0.09916,0.37846 0,0.20815 0.109976,0.37847 0.24439,0.37847 0.134415,0 0.179037,-0.17032 0.09916,-0.37847 z m 1.422614,0 c 0,-0.20815 -0.113539,-0.37846 -0.252309,-0.37846 -0.13877,0 -0.25231,0.17031 -0.25231,0.37846 0,0.20815 0.11354,0.37847 0.25231,0.37847 0.13877,0 0.252309,-0.17032 0.252309,-0.37847 z m -0.401436,-3.19104 c -0.278162,-0.45007 -0.607478,-0.18723 -0.599777,0.47872 l 0.008,0.69385 0.362358,-0.47872 c 0.199296,-0.26329 0.302523,-0.57552 0.229394,-0.69385 z m 3.126375,-0.5179 c 0.3459,-0.3459 0.409885,-1.21109 0.08956,-1.21109 -0.378242,0 -1.103114,0.96881 -0.932013,1.24565 0.216026,0.34954 0.468713,0.33917 0.842446,-0.0345 z m -5.374186,-3.98649 c -0.416309,-0.27571 -0.984005,-0.51448 -1.261544,-0.53059 -0.277541,-0.0162 -0.008,-0.12689 0.598909,-0.24615 l 1.103528,-0.21684 0.536481,0.29809 c 0.295065,0.16394 0.621636,0.27396 0.725714,0.24447 0.292854,-0.083 0.223502,0.31583 -0.11354,0.65287 -0.417155,0.41716 -0.71128,0.37981 -1.589548,-0.20185 z m 0.746153,-0.52205 c -0.07984,-0.12917 -0.322671,-0.23488 -0.539627,-0.23488 h -0.394467 l 0.311791,0.37569 c 0.325767,0.39253 0.875103,0.26823 0.622303,-0.14081 z"
       id="path1070"
       inkscape:connector-curvature="0" />
  </g>
</svg>
