<?xml version="1.0" encoding="utf-8"?>
<!-- Generator: Adobe Illustrator 21.1.0, SVG Export Plug-In . SVG Version: 6.00 Build 0)  -->
<svg version="1.1" id="Layer_1" xmlns="http://www.w3.org/2000/svg" xmlns:xlink="http://www.w3.org/1999/xlink" x="0px" y="0px"
	 viewBox="0 0 460 200" style="enable-background:new 0 0 460 200;" xml:space="preserve">
<style type="text/css">
	.st0{fill:#4C576E;}
	.st1{fill:#B25E47;}
	.st2{fill:#70708C;}
	.st3{fill:#373749;}
	.st4{fill:#B4873F;}
	.st5{fill:#261300;}
	.st6{fill:#001D26;}
	.st7{fill:#687185;}
	.st8{fill:#353F55;}
	.st9{fill:#EBEBEB;}
	.st10{fill:#FFFFFF;}
	.st11{fill:#A54532;}
	.st12{fill:#A4783B;}
	.st13{fill:#EBEAEA;}
	.st14{fill:#231F20;}
</style>
<g>
	<path class="st0" d="M215.8,166.7c0,0-1.3,0.8,1,1c2.8,0.3,4.2,0.3,7.3-0.3c0,0,0.8,0.5,1.9,0.9
		C219.1,171.4,210.3,168.2,215.8,166.7"/>
	<path class="st0" d="M214.9,162.9c0,0-1.5,1.1,0.8,1.4c3,0.3,5.3,0.3,9.4-0.5c0,0,0.6,0.6,1.5,0.9
		C218.2,167.1,208.9,164.9,214.9,162.9"/>
	<path class="st1" d="M222,156.3c1.7,2-0.4,3.7-0.4,3.7s4.3-2.2,2.3-5c-1.9-2.6-3.3-3.9,4.4-8.4C228.3,146.7,216.3,149.7,222,156.3"
		/>
	<path class="st0" d="M231.1,169.6c0,0,1,0.8-1.1,1.5c-4,1.2-16.6,1.6-20.1,0c-1.3-0.5,1.1-1.3,1.8-1.5c0.8-0.2,1.2-0.1,1.2-0.1
		c-1.4-1-9,1.9-3.9,2.8C223.2,174.5,234.8,171.2,231.1,169.6"/>
	<path class="st0" d="M216.4,158.9c0,0-6.4,1.5-2.3,2.1c1.7,0.2,5.2,0.2,8.5-0.1c2.7-0.2,5.3-0.7,5.3-0.7s-0.9,0.4-1.6,0.9
		c-6.5,1.7-19.1,0.9-15.5-0.8C213.9,158.7,216.4,158.9,216.4,158.9"/>
	<path class="st0" d="M227.9,165.3c6.6-3.4,3.6-6.7,1.4-6.3c-0.5,0.1-0.8,0.2-0.8,0.2s0.2-0.3,0.6-0.4c4.2-1.5,7.5,4.4-1.4,6.7
		C227.8,165.5,227.9,165.4,227.9,165.3"/>
	<path class="st1" d="M223.9,139.5c0,0,3.7,3.7-3.5,9.3c-5.7,4.5-1.3,7.1,0,10c-3.3-3-5.8-5.7-4.1-8.1
		C218.7,147.1,225.4,145.3,223.9,139.5"/>
	<path class="st0" d="M217.1,174.6c6.3,0.4,16.1-0.2,16.3-3.2c0,0-0.4,1.1-5.2,2c-5.4,1-12.1,0.9-16.1,0.2
		C212.1,173.7,212.9,174.3,217.1,174.6"/>
</g>
<g>
	<ellipse class="st2" cx="134" cy="146.7" rx="18.4" ry="10.2"/>
	<g>
		<g>
			<g>
				<path class="st3" d="M130.5,145.4c-0.1-1.1-0.7-1.8-1.7-2.1c-0.4-0.1-0.9-0.2-1.4-0.2c-1.5,0-2.9,0-4.4,0
					c-0.7,3.2-1.3,6.4-2,9.6c0.8,0,1.6,0,2.3,0c0.2-0.8,0.3-1.5,0.4-2.3c0-0.2,0.1-0.2,0.3-0.2c1,0,2.1,0.1,3.1-0.1
					c1.8-0.4,3.1-2,3.3-3.8C130.5,146,130.5,145.7,130.5,145.4z M128,146.2c0,0.2-0.1,0.4-0.1,0.6c-0.2,0.9-0.8,1.5-1.7,1.6
					c-0.6,0.1-1.2,0-1.8,0c0,0,0,0,0,0c0,0,0,0,0,0c0.2-1.1,0.4-2.3,0.6-3.5c0.7,0,1.4-0.1,2.1,0C127.8,145,128.1,145.5,128,146.2
					C128,146.2,128,146.2,128,146.2C128,146.2,128,146.2,128,146.2z"/>
			</g>
		</g>
		<g>
			<path class="st3" d="M134.3,140.6c-0.8,0-1.5,0-2.3,0c0,0,0,0,0,0.1C132.8,140.7,133.5,140.7,134.3,140.6
				C134.3,140.6,134.3,140.6,134.3,140.6z"/>
			<path class="st3" d="M132.4,150.1c0.2-1.1,0.5-2.3,0.7-3.4c0.1-0.6,0.2-1.2,0.4-1.8c0.7,0,1.3,0,2,0c0.5,0,0.7,0.2,0.6,0.8
				c-0.2,1-0.4,2.1-0.6,3.1c-0.1,0.5-0.2,0.9-0.3,1.4c0.8,0,1.6,0,2.4,0c0-0.1,0-0.1,0-0.1c0.3-1.6,0.6-3.3,0.9-4.9
				c0.1-0.6-0.1-1.2-0.7-1.5c-0.3-0.2-0.8-0.4-1.1-0.5c-0.9-0.1-1.7-0.1-2.6-0.1c-0.1,0-0.2,0-0.3,0c0-0.2,0.1-0.3,0.1-0.5
				c0.1-0.7,0.3-1.3,0.4-2c-0.8,0-1.5,0-2.3,0c0,0,0,0.1,0,0.1c-0.3,1.6-0.6,3.2-1,4.8c0,0,0,0.1,0,0.1l-0.9,4.6c0.7,0,1.4,0,2.1,0
				C132.3,150.2,132.4,150.1,132.4,150.1z"/>
			<path class="st3" d="M146.9,145.5c-0.1-1.1-0.7-1.8-1.7-2.1c-0.4-0.1-0.9-0.2-1.4-0.2c-1.5,0-2.9,0-4.4,0c-0.7,3.2-1.3,6.4-2,9.6
				c0.8,0,1.6,0,2.3,0c0.2-0.8,0.3-1.5,0.4-2.3c0-0.2,0.1-0.2,0.3-0.2c1,0,2.1,0.1,3.1-0.1C145.8,149.6,147.1,147.7,146.9,145.5z
				 M144.3,146.9c-0.2,0.9-0.8,1.5-1.7,1.6c-0.6,0.1-1.2,0-1.8,0c0.2-1.1,0.4-2.3,0.6-3.5c0.7,0,1.4-0.1,2.1,0
				c0.7,0.1,1,0.6,0.9,1.3C144.4,146.5,144.4,146.7,144.3,146.9z"/>
		</g>
	</g>
</g>
<g id="g1894" transform="translate(428.42338,184.2561)">
	<path id="path8615" class="st0" d="M-246.6-171.5c-7.5,0-7.1,3.3-7.1,3.3l0,3.4h7.2v1h-10c0,0-4.8-0.5-4.8,7.1
		c0,7.6,4.2,7.3,4.2,7.3h2.5v-3.5c0,0-0.1-4.2,4.1-4.2s7.1,0,7.1,0s4,0.1,4-3.9s0-6.5,0-6.5S-238.8-171.5-246.6-171.5z
		 M-250.6-169.2c0.7,0,1.3,0.6,1.3,1.3s-0.6,1.3-1.3,1.3s-1.3-0.6-1.3-1.3S-251.3-169.2-250.6-169.2z"/>
	<path id="path8620" class="st4" d="M-246.4-142c7.5,0,7.1-3.3,7.1-3.3l0-3.4h-7.2v-1h10c0,0,4.8,0.5,4.8-7.1c0-7.6-4.2-7.3-4.2-7.3
		h-2.5v3.5c0,0,0.1,4.2-4.1,4.2s-7.1,0-7.1,0s-4-0.1-4,3.9c0,3.9,0,6.5,0,6.5S-254.3-142-246.4-142z M-242.5-144.3
		c-0.7,0-1.3-0.6-1.3-1.3c0-0.7,0.6-1.3,1.3-1.3s1.3,0.6,1.3,1.3C-241.2-144.8-241.7-144.3-242.5-144.3z"/>
</g>
<g>
	<path class="st5" d="M262.3,35.6h22.9v22.9h-22.9V35.6z"/>
	<path class="st1" d="M261.2,34.5v25h25v-25H261.2z M262.3,35.6h22.9v22.9h-22.9V35.6z"/>
	<path class="st1" d="M269.9,48.7l-0.8,3.2c0,0.1-0.1,0.1-0.2,0.1h-1.5c-0.1,0-0.1,0-0.1-0.2l3-10.6c0.1-0.2,0.1-0.4,0.1-0.9
		c0-0.1,0-0.1,0.1-0.1h2.2c0.1,0,0.1,0,0.1,0.1l3.3,11.5c0,0.1,0,0.1-0.1,0.1h-1.7c-0.1,0-0.1,0-0.2-0.1l-0.9-3.2H269.9L269.9,48.7z
		 M272.8,46.9c-0.3-1.2-1-3.8-1.2-5h0c-0.2,1.2-0.8,3.4-1.2,5H272.8z M277.5,41c0-0.7,0.5-1.1,1.1-1.1c0.6,0,1.1,0.4,1.1,1.1
		c0,0.7-0.4,1.1-1.1,1.1C277.9,42.1,277.5,41.7,277.5,41L277.5,41z M277.6,43.4c0-0.1,0-0.1,0.1-0.1h1.6c0.1,0,0.1,0,0.1,0.1v8.4
		c0,0.1,0,0.1-0.1,0.1h-1.6c-0.1,0-0.1-0.1-0.1-0.1L277.6,43.4L277.6,43.4z"/>
</g>
<g>
	<path class="st6" d="M301.5,49.7h22.9v22.9h-22.9V49.7z"/>
	<path class="st7" d="M300.5,48.6v25h25v-25H300.5z M301.5,49.7h22.9v22.9h-22.9V49.7z M306.5,54.5c0-0.1,0.1-0.1,0.2-0.1
		c0.7,0,1.7-0.1,2.7-0.1c2.9,0,4,1.6,4,3.7c0,2.7-1.9,3.9-4.3,3.9c-0.4,0-0.5,0-0.8,0v4.1c0,0.1,0,0.1-0.1,0.1h-1.6
		c-0.1,0-0.1,0-0.1-0.1V54.5L306.5,54.5z M308.4,60.1c0.2,0,0.4,0,0.8,0c1.2,0,2.4-0.4,2.4-2.1c0-1.4-0.8-2-2.2-2c-0.4,0-0.8,0-1,0
		L308.4,60.1L308.4,60.1z M317.3,58.9c-0.8,0-1.1,0.4-1.1,0.8c0,0.4,0.2,0.7,1.3,1.2c1.6,0.8,2.1,1.6,2.1,2.7c0,1.7-1.3,2.6-3,2.6
		c-0.9,0-1.7-0.2-2.1-0.5c-0.1,0-0.1-0.1-0.1-0.2V64c0-0.1,0.1-0.1,0.1-0.1c0.7,0.4,1.4,0.6,2.1,0.6c0.8,0,1.2-0.4,1.2-0.8
		c0-0.4-0.2-0.7-1.3-1.3c-1.5-0.7-2.1-1.5-2.1-2.7c0-1.4,1.1-2.5,2.9-2.5c0.9,0,1.5,0.1,1.9,0.3c0.1,0.1,0.1,0.1,0.1,0.2v1.5
		c0,0.1-0.1,0.1-0.2,0.1C318.7,59,318,58.9,317.3,58.9L317.3,58.9z"/>
</g>
<g>
	<path class="st0" d="M75.7,72.9c0-2.1-2.6-4.1-6.6-5.3c0.9-4.1,0.5-7.4-1.3-8.4c-0.4-0.2-0.9-0.4-1.4-0.4v1.4
		c0.3,0,0.5,0.1,0.7,0.2c0.9,0.5,1.3,2.4,1,4.9c-0.1,0.6-0.2,1.2-0.3,1.9c-1.3-0.3-2.6-0.5-4.1-0.7c-0.9-1.2-1.8-2.3-2.7-3.2
		c2.1-2,4.1-3,5.4-3v-1.4l0,0c-1.8,0-4.1,1.3-6.4,3.5c-2.3-2.2-4.7-3.4-6.4-3.4v1.4c1.3,0,3.3,1.1,5.4,3c-0.9,0.9-1.8,2-2.7,3.2
		c-1.5,0.2-2.8,0.4-4.1,0.7c-0.1-0.6-0.3-1.3-0.3-1.9c-0.3-2.5,0.1-4.4,0.9-4.9c0.2-0.1,0.4-0.2,0.7-0.2v-1.4l0,0
		c-0.5,0-1,0.1-1.5,0.4c-1.8,1-2.2,4.3-1.3,8.4c-4,1.2-6.6,3.2-6.6,5.3c0,2.1,2.6,4.1,6.6,5.3c-0.9,4.1-0.5,7.4,1.3,8.4
		c0.4,0.2,0.9,0.4,1.5,0.4c1.8,0,4.1-1.3,6.4-3.5c2.3,2.2,4.7,3.4,6.4,3.4c0.5,0,1-0.1,1.5-0.4c1.8-1,2.2-4.3,1.3-8.4
		C73,77,75.7,75,75.7,72.9z M67.3,68.6c-0.2,0.8-0.5,1.7-0.9,2.5c-0.3-0.5-0.5-1-0.8-1.5c-0.3-0.5-0.6-1-0.9-1.5
		C65.5,68.2,66.4,68.4,67.3,68.6z M64.3,75.4c-0.5,0.9-1,1.7-1.6,2.5c-1,0.1-1.9,0.1-2.9,0.1c-1,0-1.9,0-2.9-0.1
		c-0.5-0.8-1.1-1.6-1.6-2.4c-0.5-0.8-0.9-1.7-1.3-2.6c0.4-0.9,0.9-1.7,1.3-2.6c0.5-0.9,1-1.7,1.6-2.5c1-0.1,1.9-0.1,2.9-0.1
		c1,0,1.9,0,2.9,0.1c0.5,0.8,1.1,1.6,1.6,2.4c0.5,0.8,0.9,1.7,1.3,2.6C65.2,73.7,64.8,74.6,64.3,75.4z M66.4,74.6
		c0.3,0.9,0.6,1.7,0.9,2.6c-0.8,0.2-1.7,0.4-2.7,0.5c0.3-0.5,0.6-1,0.9-1.5C65.9,75.6,66.1,75.1,66.4,74.6z M59.9,81.5
		c-0.6-0.6-1.2-1.3-1.8-2.1c0.6,0,1.2,0,1.8,0c0.6,0,1.2,0,1.8,0C61.1,80.2,60.5,80.9,59.9,81.5z M55.1,77.7
		c-0.9-0.1-1.8-0.3-2.6-0.5c0.2-0.8,0.5-1.7,0.9-2.5c0.3,0.5,0.5,1,0.8,1.5C54.4,76.7,54.7,77.2,55.1,77.7z M59.8,64.3
		c0.6,0.6,1.2,1.3,1.8,2.1c-0.6,0-1.2,0-1.8,0c-0.6,0-1.2,0-1.8,0C58.6,65.6,59.2,64.9,59.8,64.3z M55.1,68.1
		c-0.3,0.5-0.6,1-0.9,1.5c-0.3,0.5-0.6,1-0.8,1.5c-0.3-0.9-0.6-1.7-0.9-2.6C53.2,68.4,54.1,68.2,55.1,68.1z M49.2,76.1
		c-2.3-1-3.8-2.2-3.8-3.3c0-1,1.5-2.3,3.8-3.3c0.6-0.2,1.2-0.5,1.8-0.7c0.4,1.3,0.9,2.6,1.5,3.9c-0.6,1.3-1.1,2.6-1.4,3.9
		C50.4,76.6,49.8,76.4,49.2,76.1z M52.7,85.4c-0.9-0.5-1.3-2.4-1-4.9c0.1-0.6,0.2-1.2,0.3-1.9c1.3,0.3,2.6,0.5,4.1,0.7
		c0.9,1.2,1.8,2.3,2.7,3.2c-2.1,2-4.1,3-5.4,3C53.1,85.5,52.9,85.5,52.7,85.4z M68,80.4c0.3,2.5-0.1,4.4-0.9,4.9
		c-0.2,0.1-0.4,0.2-0.7,0.2c-1.3,0-3.3-1.1-5.4-3c0.9-0.9,1.8-2,2.7-3.2c1.5-0.2,2.8-0.4,4.1-0.7C67.8,79.2,67.9,79.8,68,80.4z
		 M70.5,76.1c-0.6,0.2-1.2,0.5-1.8,0.7c-0.4-1.3-0.9-2.6-1.5-3.9c0.6-1.3,1.1-2.6,1.4-3.9c0.6,0.2,1.2,0.4,1.8,0.7
		c2.3,1,3.8,2.2,3.8,3.3C74.2,73.9,72.7,75.2,70.5,76.1z"/>
	<path class="st0" d="M53.4,58.8L53.4,58.8L53.4,58.8z"/>
	<circle class="st0" cx="59.8" cy="72.9" r="2.9"/>
	<path class="st0" d="M66.3,58.8L66.3,58.8L66.3,58.8z"/>
</g>
<g id="g3013" transform="translate(95.428571,270.18109)">
	<polygon id="polygon2989" class="st8" points="300.6,-177.1 290.2,-180 287.9,-206 313.4,-206 311.1,-180 	"/>
	<polygon id="polygon2991" class="st0" points="309.1,-181.6 311,-203.9 300.6,-203.9 300.6,-179.3 	"/>
	<polygon id="polygon2993" class="st9" points="293.2,-194.2 293.5,-191 300.6,-191 300.6,-194.2 	"/>
	<polygon id="polygon2995" class="st9" points="292.6,-200.7 292.9,-197.5 300.6,-197.5 300.6,-200.7 300.6,-200.7 	"/>
	<polygon id="polygon2997" class="st9" points="300.6,-185.9 300.6,-185.9 297.1,-186.9 296.8,-189.4 295.1,-189.4 293.6,-189.4 
		294.1,-184.4 300.6,-182.6 300.6,-182.6 	"/>
	<path id="path2999" inkscape:connector-curvature="0" d="M293.9-213.1h3.9v1.6h-2.2v1.6h2.2v1.6h-3.9V-213.1z"/>
	<path id="path3001" inkscape:connector-curvature="0" d="M298.5-213.1h3.9v1.4h-2.2v0.3h2.2v3.2h-3.9v-1.5h2.2v-0.3h-2.2V-213.1z"
		/>
	<path id="path3003" inkscape:connector-curvature="0" d="M303.2-213.1h3.9v1.4h-2.2v0.3h2.2v3.2h-3.9v-1.5h2.2v-0.3h-2.2V-213.1z"
		/>
	<polygon id="polygon3005" class="st10" points="308,-194.2 308.6,-200.7 300.6,-200.7 300.6,-197.5 305.1,-197.5 304.8,-194.2 
		300.6,-194.2 300.6,-191 304.5,-191 304.2,-186.9 300.6,-185.9 300.6,-182.6 307.2,-184.4 307.2,-185 308,-193.4 	"/>
</g>
<g id="g3054" transform="translate(524,270.18109)">
	<polygon id="polygon3028" class="st11" points="-144,-206 -146.3,-180 -156.7,-177.1 -167.1,-180 -169.5,-206 	"/>
	<polygon id="polygon3030" class="st1" points="-156.7,-179.3 -148.3,-181.6 -146.3,-203.9 -156.7,-203.9 	"/>
	<polygon id="polygon3032" class="st9" points="-161.2,-197.5 -156.7,-197.5 -156.7,-200.7 -156.7,-200.7 -164.7,-200.7 
		-164.6,-199.8 -163.9,-191 -156.7,-191 -156.7,-194.2 -160.9,-194.2 	"/>
	<polygon id="polygon3034" class="st9" points="-160.5,-189.4 -162.2,-189.4 -163.7,-189.4 -163.3,-184.4 -156.7,-182.6 
		-156.7,-182.6 -156.7,-185.9 -156.7,-185.9 -160.3,-186.9 	"/>
	<path id="path3036" inkscape:connector-curvature="0" d="M-167.1-213.1h1.6v1.6h1.5v-1.6h1.6v4.9h-1.6v-1.6h-1.5v1.6h-1.6
		L-167.1-213.1L-167.1-213.1z"/>
	<path id="path3038" inkscape:connector-curvature="0" d="M-160.2-211.5h-1.4v-1.6h4.5v1.6h-1.4v3.2h-1.6L-160.2-211.5L-160.2-211.5
		z"/>
	<path id="path3040" inkscape:connector-curvature="0" d="M-156.5-213.1h1.7l1,1.7l1-1.7h1.7v4.9h-1.6v-2.4l-1.1,1.7h0l-1.1-1.7v2.4
		h-1.6V-213.1L-156.5-213.1z"/>
	<path id="path3042" inkscape:connector-curvature="0" d="M-150.2-213.1h1.6v3.2h2.3v1.6h-3.9V-213.1z"/>
	<polygon id="polygon3044" class="st10" points="-156.7,-191 -152.8,-191 -153.2,-186.9 -156.7,-185.9 -156.7,-182.6 -150.2,-184.4 
		-150.1,-185 -149.4,-193.4 -149.3,-194.2 -150.2,-194.2 -156.7,-194.2 	"/>
	<polygon id="polygon3046" class="st10" points="-156.7,-197.5 -156.7,-197.5 -149,-197.5 -149,-197.5 -149,-197.5 -148.9,-198.2 
		-148.8,-199.8 -148.7,-200.7 -156.7,-200.7 -156.7,-198.7 	"/>
</g>
<g>
	<polygon class="st12" points="346,91.5 333.2,91.5 333.2,91.5 320.4,91.5 322.8,117.5 333.2,120.4 333.2,120.4 333.2,120.4 
		333.2,120.4 333.2,120.4 343.6,117.5 	"/>
	<polygon class="st4" points="333.2,93.6 333.2,118.2 333.2,118.2 341.6,115.8 343.7,93.6 	"/>
	<polygon class="st10" points="339.9,96.8 326.9,96.8 326,106.5 326.1,106.5 337.1,106.5 336.7,110.6 333.2,111.6 329.6,110.6 
		329.4,108.1 326.2,108.1 326.6,113.1 333.2,114.9 339.7,113.1 340.6,103.3 329,103.3 329.1,100 337.2,100 337.3,101.9 340.6,101.9 
			"/>
	<g>
		<path class="st13" d="M333.2,96.8h-6.2l-0.9,9.7l0-0.1h7.1v-3.2h-3.8l0.1-3.3h3.6V96.8z M329.4,108.1h-3.2l0.5,5l6.5,1.9v-3.3
			l-3.6-1L329.4,108.1z"/>
	</g>
	<g>
		<polygon class="st14" points="330.7,87.6 328.4,87.6 328.4,89.3 330.7,89.3 331.9,89.3 332.3,89.3 332.3,84.4 330.7,84.4 		"/>
		<path class="st14" d="M338,84.5h-4c0,0,0,0.9,0,1.7c0.5,0.5,0.8,0.8,1.6,1.6c-0.4,0-1.6,0-1.6,0v1.6h4v-1.6l-1.6-1.6h1.6V84.5z"/>
	</g>
</g>
</svg>
