<?xml version="1.0" encoding="UTF-8" standalone="no"?>
<!-- Created with Inkscape (http://www.inkscape.org/) -->

<svg
   xmlns:dc="http://purl.org/dc/elements/1.1/"
   xmlns:cc="http://creativecommons.org/ns#"
   xmlns:rdf="http://www.w3.org/1999/02/22-rdf-syntax-ns#"
   xmlns:svg="http://www.w3.org/2000/svg"
   xmlns="http://www.w3.org/2000/svg"
   xmlns:sodipodi="http://sodipodi.sourceforge.net/DTD/sodipodi-0.dtd"
   xmlns:inkscape="http://www.inkscape.org/namespaces/inkscape"
   width="500pt"
   height="550pt"
   viewBox="0 0 176.3889 194.02778"
   version="1.1"
   id="svg4997"
   inkscape:version="0.92.2 (5c3e80d, 2017-08-06)"
   sodipodi:docname="maine.svg">
  <defs
     id="defs4991" />
  <sodipodi:namedview
     id="base"
     pagecolor="#ffffff"
     bordercolor="#666666"
     borderopacity="1.0"
     inkscape:pageopacity="0.0"
     inkscape:pageshadow="2"
     inkscape:zoom="0.98994949"
     inkscape:cx="-10.303102"
     inkscape:cy="330.64952"
     inkscape:document-units="mm"
     inkscape:current-layer="g5573"
     showgrid="false"
     units="pt"
     inkscape:window-width="1920"
     inkscape:window-height="986"
     inkscape:window-x="-11"
     inkscape:window-y="-11"
     inkscape:window-maximized="1" />
  <metadata
     id="metadata4994">
    <rdf:RDF>
      <cc:Work
         rdf:about="">
        <dc:format>image/svg+xml</dc:format>
        <dc:type
           rdf:resource="http://purl.org/dc/dcmitype/StillImage" />
        <dc:title />
      </cc:Work>
    </rdf:RDF>
  </metadata>
  <g
     inkscape:label="Layer 1"
     inkscape:groupmode="layer"
     id="layer1"
     transform="translate(0,-102.97223)">
    <g
       id="g5573"
       transform="translate(-34.77381,-5.2916669)">
      <path
         inkscape:connector-curvature="0"
         id="path142"
         style="fill:#69672a;fill-opacity:1;fill-rule:nonzero;stroke:none;stroke-width:0.35277775"
         d="m 180.17501,178.47858 c -2.05493,5.48005 1.14159,7.53463 6.08894,8.37212 3.11997,0.53269 3.88162,1.36984 3.95782,5.4035 0.0755,4.26226 -2.58798,13.47152 7.99112,12.10133 0.60854,-0.0759 1.44568,0.76095 2.13113,1.29399 3.80541,3.04447 5.4797,13.39533 2.81587,17.04834 -0.5327,0.6851 -1.67428,1.59809 -2.28318,1.52224 -4.87115,-1.06574 -8.60037,-0.38065 -10.0464,5.17525 -0.0762,0.15205 -0.91334,0.30445 -1.37019,0.22825 -6.24064,-1.36984 -8.67587,2.58762 -10.807,7.30638 0,0.0762 -1.21814,-0.4565 -1.90288,-0.68475 -1.90288,-0.53269 -3.95781,-1.59843 -5.7083,-1.36983 -4.26191,0.68474 -9.51335,1.06539 -7.15398,7.91492 -0.53304,0.1524 -1.21779,0.53305 -1.52223,0.3048 -1.37019,-1.06574 -2.74003,-2.28353 -3.95782,-3.57717 -0.15204,-0.1524 0.7613,-1.14159 0.6089,-1.52259 -0.76094,-1.90253 -1.75049,-3.72921 -2.66383,-5.63174 -1.67428,2.81587 -3.80541,5.4797 -4.8708,8.52417 -1.59844,4.33846 -2.28318,9.05722 -3.57717,13.47117 -0.30444,0.98954 -2.05493,2.51143 -2.28317,2.35938 -5.86035,-3.80542 -5.93655,2.51178 -8.44833,4.64256 -0.68474,0.60889 -2.81587,0.53304 -3.50061,-0.15205 -0.98954,-0.8375 -1.21814,-2.43558 -1.82668,-3.72922 -0.6089,2.20698 -1.2178,4.49016 -1.75084,6.77334 -0.2279,0.98954 -0.15205,2.05493 -0.2279,3.12067 -0.68509,-0.53269 -1.29399,-1.44604 -1.97908,-1.52224 -2.73967,-0.22824 -6.08859,-1.14159 -8.06768,0.0762 -1.82633,1.14159 -2.20697,4.64256 -3.04411,7.15434 -0.1524,0.45649 0.68474,1.36983 0.45684,1.59808 -2.51178,3.57681 -5.40385,7.00193 -7.76323,10.7315 -1.37019,2.28282 -1.75048,5.17525 -3.04447,7.53463 -0.68509,1.21778 -2.35938,1.90288 -3.57717,2.81622 -0.60854,-1.21814 -1.29363,-2.35973 -1.75048,-3.65336 -0.15204,-0.38065 0.30445,-1.21779 0.0762,-1.44639 -9.970166,-11.79654 -4.414289,-26.5617 -7.382544,-39.80462 -2.89207,-12.71024 -3.04447,-25.95316 -4.338105,-38.96784 -0.1524,-1.67428 0.304448,-3.42477 0.532693,-5.1749 1.21779,0.60854 2.359377,1.52189 3.577167,1.67429 0.760942,0.0759 1.750476,-0.91335 2.511413,-1.59844 1.293981,-1.14159 2.511765,-2.43558 3.500949,-3.80541 0.533037,-0.6851 0.685087,-1.67429 0.761287,-2.58763 0.15205,-1.90288 -0.532687,-4.33846 0.38065,-5.70829 2.81587,-4.41431 6.92573,-8.14353 9.13271,-12.78644 1.44604,-2.96791 0.53305,-7.15398 0.60889,-10.73114 0,-1.14159 -0.53269,-2.51178 -0.0759,-3.42477 6.62129,-14.15627 8.52417,-30.59571 19.71181,-42.62085 1.14195,-1.21778 1.67465,-2.89242 2.74003,-4.10986 1.14159,-1.29398 2.58798,-2.28317 3.88162,-3.42512 0.98954,1.52224 2.43558,2.96828 2.89207,4.71876 1.21779,4.18606 3.19652,6.54544 7.76323,4.26226 4.03366,-2.05493 8.06732,-4.26226 12.10133,-6.31719 0.68475,-0.38065 1.59809,-0.53269 2.35938,-0.38065 5.78415,1.14194 13.54702,10.95975 14.08007,16.89629 1.21743,13.77562 2.74002,27.62744 4.26191,41.70751" />
      <path
         inkscape:connector-curvature="0"
         id="path150"
         style="fill:#7f7d4a;fill-opacity:1;fill-rule:nonzero;stroke:none;stroke-width:0.35277775"
         d="m 183.11096,176.10852 c -2.05493,5.4797 1.14159,7.53463 6.08894,8.37177 3.11997,0.53305 3.88162,1.37019 3.95747,5.40385 0.0758,4.26191 -2.58763,13.47117 7.99147,12.10134 0.60854,-0.0762 1.44568,0.76094 2.13113,1.29399 3.80541,3.04412 5.4797,13.39497 2.81587,17.04834 -0.53269,0.68474 -1.67464,1.59808 -2.28318,1.52188 -4.87115,-1.06539 -8.60037,-0.38029 -10.0464,5.1756 -0.0762,0.1524 -0.91334,0.3041 -1.37019,0.22825 -6.24064,-1.36984 -8.67586,2.58762 -10.80699,7.30638 0,0.0762 -1.21815,-0.4565 -1.90289,-0.6851 -1.90288,-0.53269 -3.95781,-1.59808 -5.7083,-1.36983 -4.2619,0.68509 -9.51335,1.06574 -7.15397,7.91527 -0.53305,0.15205 -1.21779,0.53305 -1.52224,0.30445 -1.37019,-1.06539 -2.74002,-2.28318 -3.95781,-3.57716 -0.15205,-0.15205 0.76129,-1.14159 0.60889,-1.52189 -0.76094,-1.90288 -1.75048,-3.72921 -2.66383,-5.6321 -1.67428,2.81623 -3.80541,5.4797 -4.8708,8.52382 -1.59843,4.33846 -2.28353,9.05722 -3.57716,13.47153 -0.30445,0.98918 -2.05494,2.51142 -2.28318,2.35937 -5.86035,-3.80541 -5.93655,2.51143 -8.44832,4.64256 -0.68475,0.60889 -2.81588,0.53269 -3.50062,-0.15205 -0.98954,-0.83714 -1.21814,-2.43593 -1.82704,-3.72957 -0.60854,2.20698 -1.21743,4.49051 -1.75048,6.77404 -0.22789,0.98919 -0.15205,2.05458 -0.22789,3.11997 -0.6851,-0.53234 -1.29399,-1.44568 -1.97909,-1.52188 -2.73967,-0.2286 -6.08859,-1.14159 -8.06767,0.0762 -1.82633,1.14158 -2.20698,4.64255 -3.04412,7.15398 -0.1524,0.45684 0.68474,1.37019 0.45684,1.59843 -2.51177,3.57717 -5.40385,7.00193 -7.76322,10.73115 -1.37019,2.28353 -1.75049,5.1756 -3.04448,7.53498 -0.68509,1.21779 -2.35937,1.90253 -3.57716,2.81587 -0.6089,-1.21779 -1.29364,-2.35902 -1.75049,-3.65301 -0.15204,-0.381 0.30445,-1.21814 0.0762,-1.44639 -9.97019,-11.79689 -4.414297,-26.5617 -7.382565,-39.80462 -2.892074,-12.71023 -3.044474,-25.9528 -4.338109,-38.96784 -0.1524,-1.67428 0.304448,-3.42476 0.532694,-5.17525 1.21779,0.6089 2.359377,1.52224 3.577166,1.67429 0.760942,0.0762 1.750484,-0.91334 2.51142,-1.59809 1.293984,-1.14158 2.511774,-2.43557 3.500964,-3.80541 0.53305,-0.68509 0.68509,-1.67464 0.76129,-2.58798 0.15205,-1.90253 -0.53269,-4.33811 0.38065,-5.70794 2.81587,-4.41431 6.92573,-8.14352 9.13271,-12.78643 1.44604,-2.96827 0.53305,-7.15398 0.6089,-10.73115 0,-1.14159 -0.5327,-2.51177 -0.0758,-3.42476 6.62128,-14.15627 8.52417,-30.59572 19.71181,-42.62085 1.14194,-1.21814 1.67463,-2.89243 2.74002,-4.11021 1.1416,-1.29364 2.58798,-2.28318 3.88162,-3.42477 0.98954,1.52223 2.43558,2.96827 2.89207,4.71875 1.21779,4.18607 3.19652,6.54544 7.76323,4.26227 4.03366,-2.05494 8.06732,-4.26227 12.10134,-6.3172 0.68474,-0.38064 1.59808,-0.53269 2.35902,-0.38064 5.7845,1.14159 13.54737,10.95974 14.08042,16.89629 1.21744,13.77562 2.81587,27.62744 4.26191,41.7075" />
      <path
         inkscape:connector-curvature="0"
         id="path154"
         style="fill:#69672a;fill-opacity:1;fill-rule:nonzero;stroke:none;stroke-width:0.35277775"
         d="m 123.81259,223.90476 -5.40385,-0.5327 -3.50096,4.18571 -1.14159,-5.3273 -5.0994,-2.05492 4.71875,-2.74003 0.38065,-5.4035 4.10986,3.57682 5.25145,-1.29399 -2.13078,5.02355 z" />
      <path
         inkscape:connector-curvature="0"
         id="path158"
         style="fill:#612634;fill-opacity:1;fill-rule:nonzero;stroke:none;stroke-width:0.35277775"
         d="m 125.11623,222.91532 -5.4035,-0.53269 -3.50132,4.10986 -1.21743,-5.25145 -5.02356,-2.05493 4.71876,-2.74002 0.38064,-5.4797 4.03402,3.65301 5.3273,-1.29399 -2.20698,4.94736 z" />
      <g
         aria-label="Wilton, ME"
         style="font-style:normal;font-variant:normal;font-weight:normal;font-stretch:normal;font-size:8.11826324px;font-family:spinwerad;-inkscape-font-specification:spinwerad;writing-mode:lr-tb;fill:#612634;fill-opacity:1;fill-rule:nonzero;stroke:none;stroke-width:0.35277775"
         id="text176">
        <path
           d="m 36.39059,186.2311 h 1.680734 q 0.126848,0 0.190272,0.0951 0.07135,0.0951 0.198199,0.49154 l 1.248659,3.84904 0.761087,-2.33083 -0.487571,-1.4865 q -0.166488,-0.5391 -0.737303,-0.5391 v -0.0793 h 2.536957 v 0.0793 q -0.519284,0 -0.519284,0.26558 0,0.0872 0.05153,0.24181 l 1.248659,3.84904 1.256587,-3.84904 q 0.04757,-0.14667 0.04757,-0.22991 0,-0.27748 -0.578744,-0.27748 v -0.0793 h 1.347759 v 0.0793 q -0.562888,0 -0.737303,0.5391 l -1.288299,3.9521 -0.229912,0.82055 h -0.495499 q -0.33694,0 -0.491536,-0.47171 l -0.880007,-2.6757 -0.757123,2.32686 -0.229912,0.82055 h -0.495499 q -0.33694,0 -0.491536,-0.47171 l -1.411182,-4.30094 q -0.166488,-0.5391 -0.737303,-0.5391 z"
           style="font-style:normal;font-variant:normal;font-weight:bold;font-stretch:expanded;font-family:spinwerad;-inkscape-font-specification:'spinwerad Bold Expanded';stroke-width:0.35277775"
           id="path825" />
        <path
           d="m 44.933172,187.49958 h 1.585599 q 0.317119,0 0.317119,0.63424 v 2.85407 q 0,0.55496 0.63424,0.55496 v 0.0793 h -2.536958 v -0.0793 q 0.63424,0 0.63424,-0.55496 v -2.85407 q 0,-0.55496 -0.63424,-0.55496 z m 0.820547,-0.82055 q -0.186307,-0.18631 -0.186307,-0.44793 0,-0.26163 0.186307,-0.44793 0.186308,-0.18631 0.447932,-0.18631 0.261624,0 0.447931,0.18631 0.186308,0.1863 0.186308,0.44793 0,0.26162 -0.186308,0.44793 -0.186307,0.18631 -0.447931,0.18631 -0.261624,0 -0.447932,-0.18631 z"
           style="font-style:normal;font-variant:normal;font-weight:bold;font-stretch:expanded;font-family:spinwerad;-inkscape-font-specification:'spinwerad Bold Expanded';stroke-width:0.35277775"
           id="path827" />
        <path
           d="m 49.370685,186.2311 v 4.75679 q 0,0.55496 0.634239,0.55496 v 0.0793 h -2.536957 v -0.0793 q 0.634239,0 0.634239,-0.55496 v -4.75679 q 0,-0.55496 -0.634239,-0.55496 v -0.0793 h 1.585598 q 0.31712,0 0.31712,0.63424 z"
           style="font-style:normal;font-variant:normal;font-weight:bold;font-stretch:expanded;font-family:spinwerad;-inkscape-font-specification:'spinwerad Bold Expanded';stroke-width:0.35277775"
           id="path829" />
        <path
           d="m 51.801847,190.76987 q 0,0.81262 0.475679,0.81262 0.491536,0 0.681808,-0.41225 l 0.07135,0.0317 q -0.206128,0.45982 -0.75316,0.45982 -1.744158,0 -1.744158,-1.982 v -1.54595 q 0,-0.55496 -0.634239,-0.55496 v -0.0793 h 0.348832 q 0.761087,0 0.761087,-1.10992 h 0.792799 v 1.10992 h 1.109919 v 0.0793 q -0.55496,0 -1.109919,0 0,2.45767 0,3.19101 z"
           style="font-style:normal;font-variant:normal;font-weight:bold;font-stretch:expanded;font-family:spinwerad;-inkscape-font-specification:'spinwerad Bold Expanded';stroke-width:0.35277775"
           id="path831" />
        <path
           d="m 55.563517,191.58249 q 0.602527,0 0.776943,-0.42018 0.174416,-0.42811 0.174416,-1.60146 0,-1.17334 -0.174416,-1.60145 -0.174416,-0.42018 -0.776943,-0.42018 -0.681807,0 -0.832439,0.52324 -0.11892,0.42019 -0.11892,1.49839 0,1.07821 0.11892,1.49839 0.150632,0.52325 0.832439,0.52325 z m 0,0.0793 q -1.070279,0 -1.649022,-0.54703 -0.570816,-0.54703 -0.570816,-1.55389 0,-0.99892 0.578744,-1.55388 0.578743,-0.54703 1.641094,-0.54703 1.062351,0 1.641094,0.54703 0.578744,0.55496 0.578744,1.55388 0,1.00686 -0.570816,1.55389 -0.578743,0.54703 -1.649022,0.54703 z"
           style="font-style:normal;font-variant:normal;font-weight:bold;font-stretch:expanded;font-family:spinwerad;-inkscape-font-specification:'spinwerad Bold Expanded';stroke-width:0.35277775"
           id="path833" />
        <path
           d="m 60.028059,188.13382 v 2.85407 q 0,0.55496 0.63424,0.55496 v 0.0793 h -2.536958 v -0.0793 q 0.63424,0 0.63424,-0.55496 v -2.85407 q 0,-0.55496 -0.63424,-0.55496 v -0.0793 h 1.585599 q 0.07135,0 0.170452,0.12288 0.0991,0.12288 0.114955,0.12288 0.428112,-0.2854 0.824512,-0.2854 2.061277,0 2.061277,1.46667 v 2.06128 q 0,0.55496 0.63424,0.55496 v 0.0793 h -2.536958 v -0.0793 q 0.63424,0 0.63424,-0.55496 v -1.982 q 0,-1.46667 -0.792799,-1.46667 -0.412256,0 -0.808656,0.29333 0.01586,0.14271 0.01586,0.30127 z"
           style="font-style:normal;font-variant:normal;font-weight:bold;font-stretch:expanded;font-family:spinwerad;-inkscape-font-specification:'spinwerad Bold Expanded';stroke-width:0.35277775"
           id="path835" />
        <path
           d="m 63.511652,191.59438 q -0.186308,-0.1863 -0.186308,-0.44793 0,-0.26162 0.186308,-0.44793 0.186308,-0.18631 0.447931,-0.18631 0.261624,0 0.447932,0.18631 0.186308,0.18631 0.186308,0.44793 0,0.58667 -0.305228,0.97514 -0.305228,0.38848 -0.622347,0.38848 v -0.0793 q 0.174416,0 0.332975,-0.17046 0.15856,-0.17045 0.15856,-0.32108 0,-0.15856 -0.1982,-0.15856 -0.261623,0 -0.447931,-0.18631 z"
           style="font-style:normal;font-variant:normal;font-weight:bold;font-stretch:expanded;font-family:spinwerad;-inkscape-font-specification:'spinwerad Bold Expanded';stroke-width:0.35277775"
           id="path837" />
        <path
           d="m 69.994824,186.2311 1.545958,3.48039 1.775871,-3.48039 h 1.728302 v 0.0793 q -0.63424,0 -0.63424,0.55496 l 0.31712,4.12255 q 0.0436,0.55496 0.634239,0.55496 v 0.0793 h -2.536957 v -0.0793 q 0.634239,0 0.634239,-0.47568 v -0.0793 l -0.325047,-4.22562 -1.549923,3.03642 q 0.249732,0.47568 0.249732,0.91965 0,0.26162 -0.0555,0.36469 h -1.054423 q 0.03964,-0.0396 0.03964,-0.11099 0,-0.0317 -0.0079,-0.0476 l -1.81551,-4.05913 -0.317119,4.12255 v 0.0793 q 0,0.47568 0.634239,0.47568 v 0.0793 h -1.347759 v -0.0793 q 0.602528,0 0.63424,-0.55496 l 0.317119,-4.12255 q 0,-0.55496 -0.634239,-0.55496 v -0.0793 z"
           style="font-style:normal;font-variant:normal;font-weight:bold;font-stretch:expanded;font-family:spinwerad;-inkscape-font-specification:'spinwerad Bold Expanded';stroke-width:0.35277775"
           id="path839" />
        <path
           d="m 75.685148,186.2311 h 4.439675 v 1.1892 h -0.07928 q -0.07135,-1.10992 -0.990999,-1.10992 h -1.466679 v 2.21983 h 0.705591 q 0.55496,0 0.55496,-0.63423 h 0.07928 v 1.34775 h -0.07928 q 0,-0.63424 -0.55496,-0.63424 h -0.705591 v 2.93336 h 1.545959 q 0.919647,0 0.990998,-1.10992 h 0.07928 v 1.1892 h -4.518955 v -0.0793 q 0.610456,0 0.63424,-0.48361 v -4.1939 q 0,-0.55496 -0.63424,-0.55496 z"
           style="font-style:normal;font-variant:normal;font-weight:bold;font-stretch:expanded;font-family:spinwerad;-inkscape-font-specification:'spinwerad Bold Expanded';stroke-width:0.35277775"
           id="path841" />
      </g>
      <path
         inkscape:connector-curvature="0"
         id="path188"
         style="fill:#75444f;fill-opacity:1;fill-rule:nonzero;stroke:none;stroke-width:0.35277775"
         d="m 36.311319,195.61417 h 55.00863 v -1.14159 h -55.00863 z" />
      <path
         inkscape:connector-curvature="0"
         id="path192"
         style="fill:#69672a;fill-opacity:1;fill-rule:nonzero;stroke:none;stroke-width:0.35277775"
         d="m 109.93402,213.83645 0.16862,-0.94016 -17.581021,-3.34257 0.04269,0.97579 z" />
      <path
         inkscape:connector-curvature="0"
         id="path196"
         style="fill:#75444f;fill-opacity:1;fill-rule:nonzero;stroke:none;stroke-width:0.35277775"
         d="m 109.83827,213.83645 0.66534,-0.68545 -19.248961,-18.67853 -0.66498,0.68545 z" />
    </g>
  </g>
</svg>
