<?xml version="1.0" encoding="UTF-8" standalone="no"?>
<!-- Generator: Adobe Illustrator 21.1.0, SVG Export Plug-In . SVG Version: 6.00 Build 0)  -->

<svg
   xmlns:dc="http://purl.org/dc/elements/1.1/"
   xmlns:cc="http://creativecommons.org/ns#"
   xmlns:rdf="http://www.w3.org/1999/02/22-rdf-syntax-ns#"
   xmlns:svg="http://www.w3.org/2000/svg"
   xmlns="http://www.w3.org/2000/svg"
   xmlns:sodipodi="http://sodipodi.sourceforge.net/DTD/sodipodi-0.dtd"
   xmlns:inkscape="http://www.inkscape.org/namespaces/inkscape"
   version="1.1"
   id="Layer_1"
   x="0px"
   y="0px"
   viewBox="0 0 200 260"
   style="enable-background:new 0 0 200 260;"
   xml:space="preserve"
   sodipodi:docname="maine.svg"
   inkscape:version="0.92.2 (5c3e80d, 2017-08-06)"><metadata
     id="metadata27"><rdf:RDF><cc:Work
         rdf:about=""><dc:format>image/svg+xml</dc:format><dc:type
           rdf:resource="http://purl.org/dc/dcmitype/StillImage" /></cc:Work></rdf:RDF></metadata><defs
     id="defs25" /><sodipodi:namedview
     pagecolor="#ffffff"
     bordercolor="#666666"
     borderopacity="1"
     objecttolerance="10"
     gridtolerance="10"
     guidetolerance="10"
     inkscape:pageopacity="0"
     inkscape:pageshadow="2"
     inkscape:window-width="1920"
     inkscape:window-height="986"
     id="namedview23"
     showgrid="false"
     inkscape:zoom="3.6307692"
     inkscape:cx="102.14116"
     inkscape:cy="145.0027"
     inkscape:window-x="-11"
     inkscape:window-y="-11"
     inkscape:window-maximized="1"
     inkscape:current-layer="Layer_1" /><style
     type="text/css"
     id="style2">
	.st0{fill:#69672A;}
	.st1{fill:#7F7D4A;}
	.st2{fill:#491D2A;}
	.st3{fill:#612634;}
</style><g
     id="_x31_DeyEB.tif_1_"><g
       id="g8"><path
         class="st0"
         d="M137.4,89c-1.9-18.5-4-36.7-5.6-55c-0.7-7.7-10.9-20.7-18.5-22.2c-1-0.2-2.2,0-3.1,0.5    c-5.3,2.7-10.6,5.6-15.9,8.3c-6,3.1-8.6-0.1-10.2-5.6c-0.7-2.2-2.5-4.1-3.8-6.2c-1.7,1.5-3.6,2.8-5.1,4.5    c-1.4,1.6-2.1,3.9-3.6,5.4c-14.8,15.8-17.2,37.4-25.9,56c-0.6,1.2,0.2,3,0.1,4.5c-0.1,4.8,1.1,10.2-0.8,14.1    c-2.9,6.1-8.3,11-12,16.8c-1.2,1.9-0.3,5-0.5,7.5c-0.1,1.2-0.4,2.5-1,3.4c-1.4,1.8-3,3.4-4.6,5c-1,0.9-2.3,2.2-3.3,2.1    c-1.6-0.2-3.2-1.4-4.7-2.2c-0.2,2.3-0.9,4.6-0.7,6.8c1.7,17.1,1.9,34.6,5.7,51.2c3.9,17.3-3.3,36.7,9.7,52.3    c0.3,0.3-0.3,1.4-0.1,1.9c0.7,1.6,1.5,3.2,2.3,4.8c1.6-1.2,3.9-2.1,4.7-3.7c1.7-3.1,2.1-6.9,4-9.9c3-4.9,6.8-9.3,10.2-14.1    c0.3-0.4-0.8-1.6-0.6-2.1c1.2-3.3,1.6-7.9,4-9.4c2.6-1.6,7-0.4,10.6-0.1c0.9,0.1,1.7,1.3,2.6,2c0.1-1.4,0-2.7,0.3-4.1    c0.7-3,1.5-5.9,2.3-8.9c0.8,1.7,1.1,3.9,2.4,4.9c1,0.8,3.7,1,4.6,0.2c3.3-2.8,3.4-11.1,11.1-6.1c0.3,0.2,2.6-1.9,3-3.1    c1.7-5.9,2.6-12,4.7-17.7c1.4-4,4.2-7.5,6.4-11.2c1.2,2.5,2.5,4.9,3.5,7.4c0.2,0.5-1,1.8-0.8,2c1.6,1.7,3.3,3.3,5.2,4.7    c0.3,0.3,1.3-0.2,2-0.4c-3.1-9,3.8-9.6,9.4-10.4c2.4-0.4,5,1.1,7.5,1.8c0.9,0.2,2.5,0.9,2.5,0.9c2.7-6.2,6-11.4,14.2-9.6    c0.6,0.1,1.7,0,1.8-0.3c1.9-7.2,6.9-8.2,13.2-6.8c0.8,0.2,2.3-1,3-2c3.6-4.8,1.3-18.4-3.7-22.4c-0.8-0.7-1.9-1.8-2.8-1.7    c-13.9,1.8-10.4-10.3-10.5-15.9c-0.1-5.3-1.1-6.4-5.2-7.1C138.9,98.9,134.7,96.3,137.4,89z"
         id="path4" /><path
         class="st0"
         d="M137.4,89c-2.7,7.2,1.5,9.9,8,11c4.1,0.7,5.1,1.8,5.2,7.1c0.1,5.6-3.4,17.7,10.5,15.9c0.8-0.1,1.9,1,2.8,1.7    c5,4,7.2,17.6,3.7,22.4c-0.7,0.9-2.2,2.1-3,2c-6.4-1.4-11.3-0.5-13.2,6.8c-0.1,0.2-1.2,0.4-1.8,0.3c-8.2-1.8-11.4,3.4-14.2,9.6    c0,0.1-1.6-0.6-2.5-0.9c-2.5-0.7-5.2-2.1-7.5-1.8c-5.6,0.9-12.5,1.4-9.4,10.4c-0.7,0.2-1.6,0.7-2,0.4c-1.8-1.4-3.6-3-5.2-4.7    c-0.2-0.2,1-1.5,0.8-2c-1-2.5-2.3-4.9-3.5-7.4c-2.2,3.7-5,7.2-6.4,11.2c-2.1,5.7-3,11.9-4.7,17.7c-0.4,1.3-2.7,3.3-3,3.1    c-7.7-5-7.8,3.3-11.1,6.1c-0.9,0.8-3.7,0.7-4.6-0.2c-1.3-1.1-1.6-3.2-2.4-4.9c-0.8,2.9-1.6,5.9-2.3,8.9c-0.3,1.3-0.2,2.7-0.3,4.1    c-0.9-0.7-1.7-1.9-2.6-2c-3.6-0.3-8-1.5-10.6,0.1c-2.4,1.5-2.9,6.1-4,9.4c-0.2,0.6,0.9,1.8,0.6,2.1c-3.3,4.7-7.1,9.2-10.2,14.1    c-1.8,3-2.3,6.8-4,9.9c-0.9,1.6-3.1,2.5-4.7,3.7c-0.8-1.6-1.7-3.1-2.3-4.8c-0.2-0.5,0.4-1.6,0.1-1.9c-13.1-15.5-5.8-34.9-9.7-52.3    c-3.8-16.7-4-34.1-5.7-51.2c-0.2-2.2,0.4-4.5,0.7-6.8c1.6,0.8,3.1,2,4.7,2.2c1,0.1,2.3-1.2,3.3-2.1c1.7-1.5,3.3-3.2,4.6-5    c0.7-0.9,0.9-2.2,1-3.4c0.2-2.5-0.7-5.7,0.5-7.5c3.7-5.8,9.1-10.7,12-16.8c1.9-3.9,0.7-9.4,0.8-14.1c0-1.5-0.7-3.3-0.1-4.5    c8.7-18.6,11.2-40.2,25.9-56c1.5-1.6,2.2-3.8,3.6-5.4c1.5-1.7,3.4-3,5.1-4.5c1.3,2,3.2,3.9,3.8,6.2c1.6,5.5,4.2,8.6,10.2,5.6    c5.3-2.7,10.6-5.6,15.9-8.3c0.9-0.5,2.1-0.7,3.1-0.5c7.6,1.5,17.8,14.4,18.5,22.2C133.4,52.3,135.4,70.5,137.4,89z"
         id="path6" /></g></g><g
     id="_x31_DeyEB.tif"><g
       id="g15"><path
         class="st1"
         d="M135,83.8c-1.9-18.5-4-36.7-5.6-55c-0.7-7.7-10.9-20.7-18.5-22.2c-1-0.2-2.2,0-3.1,0.5    c-5.3,2.7-10.6,5.6-15.9,8.3c-6,3.1-8.6-0.1-10.2-5.6c-0.7-2.2-2.5-4.1-3.8-6.2c-1.7,1.5-3.6,2.8-5.1,4.5    c-1.4,1.6-2.1,3.9-3.6,5.4c-14.8,15.8-17.2,37.4-25.9,56c-0.6,1.2,0.2,3,0.1,4.5c-0.1,4.8,1.1,10.2-0.8,14.1    c-2.9,6.1-8.3,11-12,16.8c-1.2,1.9-0.3,5-0.5,7.5c-0.1,1.2-0.4,2.5-1,3.4c-1.4,1.8-3,3.4-4.6,5c-1,0.9-2.3,2.2-3.3,2.1    c-1.6-0.2-3.2-1.4-4.7-2.2c-0.2,2.3-0.9,4.6-0.7,6.8c1.7,17.1,1.9,34.6,5.7,51.2c3.9,17.3-3.3,36.7,9.7,52.3    c0.3,0.3-0.3,1.4-0.1,1.9c0.7,1.6,1.5,3.2,2.3,4.8c1.6-1.2,3.9-2.1,4.7-3.7c1.7-3.1,2.1-6.9,4-9.9c3-4.9,6.8-9.3,10.2-14.1    c0.3-0.4-0.8-1.6-0.6-2.1c1.2-3.3,1.6-7.9,4-9.4c2.6-1.6,7-0.4,10.6-0.1c0.9,0.1,1.7,1.3,2.6,2c0.1-1.4,0-2.7,0.3-4.1    c0.7-3,1.5-5.9,2.3-8.9c0.8,1.7,1.1,3.9,2.4,4.9c1,0.8,3.7,1,4.6,0.2c3.3-2.8,3.4-11.1,11.1-6.1c0.3,0.2,2.6-1.9,3-3.1    c1.7-5.9,2.6-12,4.7-17.7c1.4-4,4.2-7.5,6.4-11.2c1.2,2.5,2.5,4.9,3.5,7.4c0.2,0.5-1,1.8-0.8,2c1.6,1.7,3.3,3.3,5.2,4.7    c0.3,0.3,1.3-0.2,2-0.4c-3.1-9,3.8-9.6,9.4-10.4c2.4-0.4,5,1.1,7.5,1.8c0.9,0.2,2.5,0.9,2.5,0.9c2.7-6.2,6-11.4,14.2-9.6    c0.6,0.1,1.7,0,1.8-0.3c1.9-7.2,6.9-8.2,13.2-6.8c0.8,0.2,2.3-1,3-2c3.6-4.8,1.3-18.4-3.7-22.4c-0.8-0.7-1.9-1.8-2.8-1.7    c-13.9,1.8-10.4-10.3-10.5-15.9c-0.1-5.3-1.1-6.4-5.2-7.1C136.5,93.7,132.3,91.1,135,83.8z"
         id="path11" /><path
         class="st1"
         d="M135,83.8c-2.7,7.2,1.5,9.9,8,11c4.1,0.7,5.1,1.8,5.2,7.1c0.1,5.6-3.4,17.7,10.5,15.9c0.8-0.1,1.9,1,2.8,1.7    c5,4,7.2,17.6,3.7,22.4c-0.7,0.9-2.2,2.1-3,2c-6.4-1.4-11.3-0.5-13.2,6.8c-0.1,0.2-1.2,0.4-1.8,0.3c-8.2-1.8-11.4,3.4-14.2,9.6    c0,0.1-1.6-0.6-2.5-0.9c-2.5-0.7-5.2-2.1-7.5-1.8c-5.6,0.9-12.5,1.4-9.4,10.4c-0.7,0.2-1.6,0.7-2,0.4c-1.8-1.4-3.6-3-5.2-4.7    c-0.2-0.2,1-1.5,0.8-2c-1-2.5-2.3-4.9-3.5-7.4c-2.2,3.7-5,7.2-6.4,11.2c-2.1,5.7-3,11.9-4.7,17.7c-0.4,1.3-2.7,3.3-3,3.1    c-7.7-5-7.8,3.3-11.1,6.1c-0.9,0.8-3.7,0.7-4.6-0.2c-1.3-1.1-1.6-3.2-2.4-4.9c-0.8,2.9-1.6,5.9-2.3,8.9c-0.3,1.3-0.2,2.7-0.3,4.1    c-0.9-0.7-1.7-1.9-2.6-2c-3.6-0.3-8-1.5-10.6,0.1c-2.4,1.5-2.9,6.1-4,9.4c-0.2,0.6,0.9,1.8,0.6,2.1c-3.3,4.7-7.1,9.2-10.2,14.1    c-1.8,3-2.3,6.8-4,9.9c-0.9,1.6-3.1,2.5-4.7,3.7c-0.8-1.6-1.7-3.1-2.3-4.8c-0.2-0.5,0.4-1.6,0.1-1.9c-13.1-15.5-5.8-34.9-9.7-52.3    c-3.8-16.7-4-34.1-5.7-51.2c-0.2-2.2,0.4-4.5,0.7-6.8c1.6,0.8,3.1,2,4.7,2.2c1,0.1,2.3-1.2,3.3-2.1c1.7-1.5,3.3-3.2,4.6-5    c0.7-0.9,0.9-2.2,1-3.4c0.2-2.5-0.7-5.7,0.5-7.5c3.7-5.8,9.1-10.7,12-16.8c1.9-3.9,0.7-9.4,0.8-14.1c0-1.5-0.7-3.3-0.1-4.5    c8.7-18.6,11.2-40.2,25.9-56c1.5-1.6,2.2-3.8,3.6-5.4c1.5-1.7,3.4-3,5.1-4.5c1.3,2,3.2,3.9,3.8,6.2c1.6,5.5,4.2,8.6,10.2,5.6    c5.3-2.7,10.6-5.6,15.9-8.3c0.9-0.5,2.1-0.7,3.1-0.5c7.6,1.5,17.8,14.4,18.5,22.2C131,47.1,133.1,65.3,135,83.8z"
         id="path13" /></g></g><polygon
     class="st2"
     points="60.1,146.6 53,145.9 48.4,151.4 46.9,144.4 40.2,141.7 46.4,138.1 46.9,131 52.3,135.7 59.2,134   56.4,140.6 "
     id="polygon18" /><polygon
     class="st3"
     points="58.8,145.3 51.7,144.6 47.1,150 45.5,143.1 38.9,140.4 45.1,136.8 45.6,129.6 50.9,134.4 57.9,132.7   55,139.2 "
     id="polygon20" /><path
     style="color:#000000;font-style:normal;font-variant:normal;font-weight:normal;font-stretch:normal;font-size:medium;line-height:normal;font-family:sans-serif;font-variant-ligatures:normal;font-variant-position:normal;font-variant-caps:normal;font-variant-numeric:normal;font-variant-alternates:normal;font-feature-settings:normal;text-indent:0;text-align:start;text-decoration:none;text-decoration-line:none;text-decoration-style:solid;text-decoration-color:#000000;letter-spacing:normal;word-spacing:normal;text-transform:none;writing-mode:lr-tb;direction:ltr;text-orientation:mixed;dominant-baseline:auto;baseline-shift:baseline;text-anchor:start;white-space:normal;shape-padding:0;clip-rule:nonzero;display:inline;overflow:visible;visibility:visible;opacity:1;isolation:auto;mix-blend-mode:normal;color-interpolation:sRGB;color-interpolation-filters:linearRGB;solid-color:#000000;solid-opacity:1;vector-effect:none;fill:#75444f;fill-opacity:1;fill-rule:nonzero;stroke:none;stroke-width:1.5;stroke-linecap:butt;stroke-linejoin:miter;stroke-miterlimit:4;stroke-dasharray:none;stroke-dashoffset:0;stroke-opacity:1;color-rendering:auto;image-rendering:auto;shape-rendering:auto;text-rendering:auto;enable-background:accumulate"
     d="m 64.341797,118.30469 -12.0625,12.0625 1.060547,1.06054 11.623047,-11.62304 h 68.544919 v -1.5 z"
     id="path3718"
     inkscape:connector-curvature="0" /><text
     xml:space="preserve"
     style="font-style:normal;font-weight:normal;font-size:40px;line-height:1.25;font-family:sans-serif;letter-spacing:0px;word-spacing:0px;fill:#000000;fill-opacity:1;stroke:none"
     x="72.43644"
     y="110.44492"
     id="text3722"><tspan
       sodipodi:role="line"
       id="tspan3720"
       x="72.43644"
       y="146.93814" /></text>
<text
     xml:space="preserve"
     style="font-style:normal;font-weight:normal;font-size:40px;line-height:1.25;font-family:sans-serif;letter-spacing:0px;word-spacing:0px;fill:#612634;fill-opacity:1;stroke:none"
     x="66.161026"
     y="116.37288"
     id="text3726"><tspan
       sodipodi:role="line"
       id="tspan3724"
       x="66.161026"
       y="116.37288"
       style="font-style:normal;font-variant:normal;font-weight:bold;font-stretch:normal;font-size:10.66666698px;font-family:Verdana;-inkscape-font-specification:'Verdana Bold';fill:#612634;fill-opacity:1">Wilton, ME</tspan></text>
</svg>