<?xml version="1.0" encoding="utf-8"?>
<!-- Generator: Adobe Illustrator 21.1.0, SVG Export Plug-In . SVG Version: 6.00 Build 0)  -->
<svg version="1.1"
	 id="svg3705" inkscape:version="0.92.2 (5c3e80d, 2017-08-06)" sodipodi:docname="range-alt-2.svg" xmlns:cc="http://creativecommons.org/ns#" xmlns:dc="http://purl.org/dc/elements/1.1/" xmlns:inkscape="http://www.inkscape.org/namespaces/inkscape" xmlns:rdf="http://www.w3.org/1999/02/22-rdf-syntax-ns#" xmlns:sodipodi="http://sodipodi.sourceforge.net/DTD/sodipodi-0.dtd" xmlns:svg="http://www.w3.org/2000/svg"
	 xmlns="http://www.w3.org/2000/svg" xmlns:xlink="http://www.w3.org/1999/xlink" x="0px" y="0px" viewBox="0 0 755.9 302.4"
	 style="enable-background:new 0 0 755.9 302.4;" xml:space="preserve">
<style type="text/css">
	.st0{fill:#687185;}
	.st1{fill:#8D94A2;}
	.st2{fill:#4C576E;}
	.st3{fill-opacity:0.1182;}
	.st4{fill:#FFFFFF;}
	.st5{fill:#353F55;}
</style>
<sodipodi:namedview  bordercolor="#666666" borderopacity="1.0" id="base" inkscape:current-layer="layer1" inkscape:cx="547.89282" inkscape:cy="-37.675671" inkscape:document-units="mm" inkscape:pageopacity="0.0" inkscape:pageshadow="2" inkscape:window-height="986" inkscape:window-maximized="1" inkscape:window-width="1920" inkscape:window-x="-11" inkscape:window-y="-11" inkscape:zoom="1.4" pagecolor="#ffffff" showgrid="false" units="px">
	<inkscape:grid  id="grid3980" type="xygrid"></inkscape:grid>
</sodipodi:namedview>
<g id="layer1" transform="translate(0,-217)" inkscape:groupmode="layer" inkscape:label="Layer 1">
	<path id="path3982-0-9" inkscape:connector-curvature="0" class="st0" d="M266.6,336.4L93.5,520h173.1h173.1L266.6,336.4z"/>
	<path id="path5200-3-3" inkscape:connector-curvature="0" sodipodi:nodetypes="ccccccc" class="st1" d="M253.6,354.3l4.3,8.5
		l10.7-7.3l10.8,7.4l4.3-8.5l-15-15.9L253.6,354.3z"/>
	<path id="path3982" inkscape:connector-curvature="0" class="st2" d="M155.1,309.5L0,519.4h155.1h155.1l-0.1-0.1h52.6l-96.8-131.1
		l-26.3,35.6L155.1,309.5z"/>
	<path id="path5200-78" inkscape:connector-curvature="0" class="st1" d="M140,333.9l5.5,11.1l11.1-11.1l11.1,11.1l5.5-11.1
		l-16.6-22.2L140,333.9z"/>
	<path id="path3768" inkscape:connector-curvature="0" sodipodi:nodetypes="cccc" class="st3" d="M265.9,388.2l96.8,131.1l-31.8-0.4
		L265.9,388.2z"/>
	<path id="path5200-3" inkscape:connector-curvature="0" sodipodi:nodetypes="ccccccc" class="st4" d="M251.6,352.3l4.3,8.5
		l10.7-7.3l10.8,7.4l4.3-8.5l-15-15.9L251.6,352.3z"/>
	<path id="path3764" inkscape:connector-curvature="0" class="st3" d="M266.6,336.4L439.7,520l-77-0.8L266.6,336.4z"/>
	<path id="path5200" inkscape:connector-curvature="0" class="st4" d="M138.5,331.6l5.5,11.1l11.1-11.1l11.1,11.1l5.5-11.1
		l-16.6-22.2L138.5,331.6z"/>
	<path id="path3766" inkscape:connector-curvature="0" sodipodi:nodetypes="cccc" class="st3" d="M155.1,309.5l155.1,209.9
		l-83.2,0.1L155.1,309.5z"/>
	<path id="path3982-0-9-8" inkscape:connector-curvature="0" class="st5" d="M505.6,254.2L255.5,519.5h250.1h250.1L505.6,254.2z"/>
	<path id="path5200-7-9" inkscape:connector-curvature="0" sodipodi:nodetypes="ccccccc" class="st1" d="M485.8,278.5l5.5,11.1
		l15.7-11.5l15.7,11.3l5.5-11.1l-21.3-22.4L485.8,278.5z"/>
	<path id="path5200-7" inkscape:connector-curvature="0" sodipodi:nodetypes="ccccccc" class="st4" d="M484.3,276.8l5.5,11.1
		l15.7-11.5l15.7,11.3l5.5-11.1l-21.3-22.4L484.3,276.8z"/>
	<path id="path3762" inkscape:connector-curvature="0" class="st3" d="M505.6,254.2l133,265.2l117.1,0.1L505.6,254.2z"/>
</g>
</svg>
