<?xml version="1.0" encoding="utf-8"?>
<!-- Generator: Adobe Illustrator 21.1.0, SVG Export Plug-In . SVG Version: 6.00 Build 0)  -->
<svg version="1.1" id="Layer_1" xmlns="http://www.w3.org/2000/svg" xmlns:xlink="http://www.w3.org/1999/xlink" x="0px" y="0px"
	 viewBox="0 0 460 200" style="enable-background:new 0 0 460 200;" xml:space="preserve">
<style type="text/css">
	.st0{fill:#4C576E;}
	.st1{fill:#B25E47;}
	.st2{fill:#70708C;}
	.st3{fill:#373749;}
	.st4{fill:#B4873F;}
	.st5{fill:#261300;}
	.st6{fill:#001D26;}
	.st7{fill:#687185;}
	.st8{fill:#353F55;}
	.st9{fill:#EBEBEB;}
	.st10{fill:#FFFFFF;}
	.st11{fill:#A54532;}
	.st12{fill:#A4783B;}
	.st13{fill:#EBEAEA;}
	.st14{fill:#231F20;}
</style>
<g>
	<path class="st0" d="M224.3,167.1c0,0-1.3,0.8,1,1c2.8,0.3,4.2,0.3,7.3-0.3c0,0,0.8,0.5,1.9,0.9
		C227.6,171.8,218.8,168.6,224.3,167.1"/>
	<path class="st0" d="M223.4,163.3c0,0-1.5,1.1,0.8,1.4c3,0.3,5.3,0.3,9.4-0.5c0,0,0.6,0.6,1.5,0.9
		C226.7,167.5,217.4,165.3,223.4,163.3"/>
	<path class="st1" d="M230.5,156.7c1.7,2-0.4,3.7-0.4,3.7s4.3-2.2,2.3-5c-1.9-2.6-3.3-3.9,4.4-8.4
		C236.8,147.1,224.8,150.1,230.5,156.7"/>
	<path class="st0" d="M239.6,170c0,0,1,0.8-1.1,1.5c-4,1.2-16.6,1.6-20.1,0c-1.3-0.5,1.1-1.3,1.8-1.5c0.8-0.2,1.2-0.1,1.2-0.1
		c-1.4-1-9,1.9-3.9,2.8C231.7,174.9,243.3,171.6,239.6,170"/>
	<path class="st0" d="M224.9,159.3c0,0-6.4,1.5-2.3,2.1c1.7,0.2,5.2,0.2,8.5-0.1c2.7-0.2,5.3-0.7,5.3-0.7s-0.9,0.4-1.6,0.9
		c-6.5,1.7-19.1,0.9-15.5-0.8C222.4,159.1,224.9,159.3,224.9,159.3"/>
	<path class="st0" d="M236.4,165.7c6.6-3.4,3.6-6.7,1.4-6.3c-0.5,0.1-0.8,0.2-0.8,0.2s0.2-0.3,0.6-0.4c4.2-1.5,7.5,4.4-1.4,6.7
		C236.3,165.9,236.4,165.8,236.4,165.7"/>
	<path class="st1" d="M232.4,139.9c0,0,3.7,3.7-3.5,9.3c-5.7,4.5-1.3,7.1,0,10c-3.3-3-5.8-5.7-4.1-8.1
		C227.2,147.5,233.9,145.7,232.4,139.9"/>
	<path class="st0" d="M225.6,175c6.3,0.4,16.1-0.2,16.3-3.2c0,0-0.4,1.1-5.2,2c-5.4,1-12.1,0.9-16.1,0.2
		C220.6,174.1,221.4,174.7,225.6,175"/>
</g>
<g>
	<ellipse class="st2" cx="140.5" cy="154" rx="18.4" ry="10.2"/>
	<g>
		<g>
			<g>
				<path class="st3" d="M137,152.7c-0.1-1.1-0.7-1.8-1.7-2.1c-0.4-0.1-0.9-0.2-1.4-0.2c-1.5,0-2.9,0-4.4,0c-0.7,3.2-1.3,6.4-2,9.6
					c0.8,0,1.6,0,2.3,0c0.2-0.8,0.3-1.5,0.4-2.3c0-0.2,0.1-0.2,0.3-0.2c1,0,2.1,0.1,3.1-0.1c1.8-0.4,3.1-2,3.3-3.8
					C137,153.3,137,153,137,152.7z M134.5,153.5c0,0.2-0.1,0.4-0.1,0.6c-0.2,0.9-0.8,1.5-1.7,1.6c-0.6,0.1-1.2,0-1.8,0l0,0l0,0
					c0.2-1.1,0.4-2.3,0.6-3.5c0.7,0,1.4-0.1,2.1,0C134.3,152.3,134.6,152.8,134.5,153.5L134.5,153.5L134.5,153.5z"/>
			</g>
		</g>
		<g>
			<path class="st3" d="M140.8,147.9c-0.8,0-1.5,0-2.3,0c0,0,0,0,0,0.1C139.3,148,140,148,140.8,147.9L140.8,147.9z"/>
			<path class="st3" d="M138.9,157.4c0.2-1.1,0.5-2.3,0.7-3.4c0.1-0.6,0.2-1.2,0.4-1.8c0.7,0,1.3,0,2,0c0.5,0,0.7,0.2,0.6,0.8
				c-0.2,1-0.4,2.1-0.6,3.1c-0.1,0.5-0.2,0.9-0.3,1.4c0.8,0,1.6,0,2.4,0c0-0.1,0-0.1,0-0.1c0.3-1.6,0.6-3.3,0.9-4.9
				c0.1-0.6-0.1-1.2-0.7-1.5c-0.3-0.2-0.8-0.4-1.1-0.5c-0.9-0.1-1.7-0.1-2.6-0.1c-0.1,0-0.2,0-0.3,0c0-0.2,0.1-0.3,0.1-0.5
				c0.1-0.7,0.3-1.3,0.4-2c-0.8,0-1.5,0-2.3,0v0.1c-0.3,1.6-0.6,3.2-1,4.8v0.1l-0.9,4.6c0.7,0,1.4,0,2.1,0
				C138.8,157.5,138.9,157.4,138.9,157.4z"/>
			<path class="st3" d="M153.4,152.8c-0.1-1.1-0.7-1.8-1.7-2.1c-0.4-0.1-0.9-0.2-1.4-0.2c-1.5,0-2.9,0-4.4,0c-0.7,3.2-1.3,6.4-2,9.6
				c0.8,0,1.6,0,2.3,0c0.2-0.8,0.3-1.5,0.4-2.3c0-0.2,0.1-0.2,0.3-0.2c1,0,2.1,0.1,3.1-0.1C152.3,156.9,153.6,155,153.4,152.8z
				 M150.8,154.2c-0.2,0.9-0.8,1.5-1.7,1.6c-0.6,0.1-1.2,0-1.8,0c0.2-1.1,0.4-2.3,0.6-3.5c0.7,0,1.4-0.1,2.1,0
				c0.7,0.1,1,0.6,0.9,1.3C150.9,153.8,150.9,154,150.8,154.2z"/>
		</g>
	</g>
</g>
<g id="g1894" transform="translate(428.42338,184.2561)">
	<path id="path8615" class="st0" d="M-260.3-167.7c-7.5,0-7.1,3.3-7.1,3.3v3.4h7.2v1h-10c0,0-4.8-0.5-4.8,7.1s4.2,7.3,4.2,7.3h2.5
		v-3.5c0,0-0.1-4.2,4.1-4.2s7.1,0,7.1,0s4,0.1,4-3.9s0-6.5,0-6.5S-252.5-167.7-260.3-167.7z M-264.3-165.4c0.7,0,1.3,0.6,1.3,1.3
		s-0.6,1.3-1.3,1.3c-0.7,0-1.3-0.6-1.3-1.3S-265-165.4-264.3-165.4z"/>
	<path id="path8620" class="st4" d="M-260.1-138.2c7.5,0,7.1-3.3,7.1-3.3v-3.4h-7.2v-1h10c0,0,4.8,0.5,4.8-7.1s-4.2-7.3-4.2-7.3
		h-2.5v3.5c0,0,0.1,4.2-4.1,4.2c-4.2,0-7.1,0-7.1,0s-4-0.1-4,3.9c0,3.9,0,6.5,0,6.5S-268-138.2-260.1-138.2z M-256.2-140.5
		c-0.7,0-1.3-0.6-1.3-1.3s0.6-1.3,1.3-1.3c0.7,0,1.3,0.6,1.3,1.3C-254.9-141-255.4-140.5-256.2-140.5z"/>
</g>
<g>
	<path class="st5" d="M262.3,47.6h22.9v22.9h-22.9V47.6z"/>
	<path class="st1" d="M261.2,46.5v25h25v-25H261.2z M262.3,47.6h22.9v22.9h-22.9V47.6z"/>
	<path class="st1" d="M269.9,60.7l-0.8,3.2c0,0.1-0.1,0.1-0.2,0.1h-1.5c-0.1,0-0.1,0-0.1-0.2l3-10.6c0.1-0.2,0.1-0.4,0.1-0.9
		c0-0.1,0-0.1,0.1-0.1h2.2c0.1,0,0.1,0,0.1,0.1l3.3,11.5c0,0.1,0,0.1-0.1,0.1h-1.7c-0.1,0-0.1,0-0.2-0.1l-0.9-3.2h-3.3V60.7z
		 M272.8,58.9c-0.3-1.2-1-3.8-1.2-5l0,0c-0.2,1.2-0.8,3.4-1.2,5H272.8z M277.5,53c0-0.7,0.5-1.1,1.1-1.1s1.1,0.4,1.1,1.1
		c0,0.7-0.4,1.1-1.1,1.1S277.5,53.7,277.5,53L277.5,53z M277.6,55.4c0-0.1,0-0.1,0.1-0.1h1.6c0.1,0,0.1,0,0.1,0.1v8.4
		c0,0.1,0,0.1-0.1,0.1h-1.6c-0.1,0-0.1-0.1-0.1-0.1V55.4L277.6,55.4z"/>
</g>
<g>
	<path class="st6" d="M301.5,61.7h22.9v22.9h-22.9V61.7z"/>
	<path class="st7" d="M300.5,60.6v25h25v-25H300.5z M301.5,61.7h22.9v22.9h-22.9V61.7z M306.5,66.5c0-0.1,0.1-0.1,0.2-0.1
		c0.7,0,1.7-0.1,2.7-0.1c2.9,0,4,1.6,4,3.7c0,2.7-1.9,3.9-4.3,3.9c-0.4,0-0.5,0-0.8,0V78c0,0.1,0,0.1-0.1,0.1h-1.6
		c-0.1,0-0.1,0-0.1-0.1L306.5,66.5L306.5,66.5z M308.4,72.1c0.2,0,0.4,0,0.8,0c1.2,0,2.4-0.4,2.4-2.1c0-1.4-0.8-2-2.2-2
		c-0.4,0-0.8,0-1,0L308.4,72.1L308.4,72.1z M317.3,70.9c-0.8,0-1.1,0.4-1.1,0.8c0,0.4,0.2,0.7,1.3,1.2c1.6,0.8,2.1,1.6,2.1,2.7
		c0,1.7-1.3,2.6-3,2.6c-0.9,0-1.7-0.2-2.1-0.5c-0.1,0-0.1-0.1-0.1-0.2V76c0-0.1,0.1-0.1,0.1-0.1c0.7,0.4,1.4,0.6,2.1,0.6
		c0.8,0,1.2-0.4,1.2-0.8c0-0.4-0.2-0.7-1.3-1.3c-1.5-0.7-2.1-1.5-2.1-2.7c0-1.4,1.1-2.5,2.9-2.5c0.9,0,1.5,0.1,1.9,0.3
		c0.1,0.1,0.1,0.1,0.1,0.2v1.5c0,0.1-0.1,0.1-0.2,0.1C318.7,71,318,70.9,317.3,70.9L317.3,70.9z"/>
</g>
<g>
	<path class="st0" d="M59.6,76.4c0-2.1-2.6-4.1-6.6-5.3c0.9-4.1,0.5-7.4-1.3-8.4c-0.4-0.2-0.9-0.4-1.4-0.4v1.4
		c0.3,0,0.5,0.1,0.7,0.2c0.9,0.5,1.3,2.4,1,4.9c-0.1,0.6-0.2,1.2-0.3,1.9c-1.3-0.3-2.6-0.5-4.1-0.7c-0.9-1.2-1.8-2.3-2.7-3.2
		c2.1-2,4.1-3,5.4-3v-1.4l0,0c-1.8,0-4.1,1.3-6.4,3.5c-2.3-2.2-4.7-3.4-6.4-3.4v1.4c1.3,0,3.3,1.1,5.4,3c-0.9,0.9-1.8,2-2.7,3.2
		c-1.5,0.2-2.8,0.4-4.1,0.7c-0.1-0.6-0.3-1.3-0.3-1.9c-0.3-2.5,0.1-4.4,0.9-4.9c0.2-0.1,0.4-0.2,0.7-0.2v-1.4l0,0
		c-0.5,0-1,0.1-1.5,0.4c-1.8,1-2.2,4.3-1.3,8.4c-4,1.2-6.6,3.2-6.6,5.3c0,2.1,2.6,4.1,6.6,5.3c-0.9,4.1-0.5,7.4,1.3,8.4
		c0.4,0.2,0.9,0.4,1.5,0.4c1.8,0,4.1-1.3,6.4-3.5c2.3,2.2,4.7,3.4,6.4,3.4c0.5,0,1-0.1,1.5-0.4c1.8-1,2.2-4.3,1.3-8.4
		C57,80.5,59.6,78.5,59.6,76.4z M51.3,72.1c-0.2,0.8-0.5,1.7-0.9,2.5c-0.3-0.5-0.5-1-0.8-1.5s-0.6-1-0.9-1.5
		C49.5,71.7,50.4,71.9,51.3,72.1z M48.3,78.9c-0.5,0.9-1,1.7-1.6,2.5c-1,0.1-1.9,0.1-2.9,0.1s-1.9,0-2.9-0.1
		c-0.5-0.8-1.1-1.6-1.6-2.4s-0.9-1.7-1.3-2.6c0.4-0.9,0.9-1.7,1.3-2.6c0.5-0.9,1-1.7,1.6-2.5c1-0.1,1.9-0.1,2.9-0.1s1.9,0,2.9,0.1
		c0.5,0.8,1.1,1.6,1.6,2.4s0.9,1.7,1.3,2.6C49.1,77.2,48.8,78.1,48.3,78.9z M50.4,78.1c0.3,0.9,0.6,1.7,0.9,2.6
		c-0.8,0.2-1.7,0.4-2.7,0.5c0.3-0.5,0.6-1,0.9-1.5C49.9,79.1,50,78.6,50.4,78.1z M43.9,85c-0.6-0.6-1.2-1.3-1.8-2.1
		c0.6,0,1.2,0,1.8,0s1.2,0,1.8,0C45,83.7,44.5,84.4,43.9,85z M39,81.2c-0.9-0.1-1.8-0.3-2.6-0.5c0.2-0.8,0.5-1.7,0.9-2.5
		c0.3,0.5,0.5,1,0.8,1.5C38.4,80.2,38.7,80.7,39,81.2z M43.8,67.8c0.6,0.6,1.2,1.3,1.8,2.1c-0.6,0-1.2,0-1.8,0s-1.2,0-1.8,0
		C42.5,69.1,43.2,68.4,43.8,67.8z M39,71.6c-0.3,0.5-0.6,1-0.9,1.5c-0.3,0.5-0.6,1-0.8,1.5c-0.3-0.9-0.6-1.7-0.9-2.6
		C37.2,71.9,38,71.7,39,71.6z M33.2,79.6c-2.3-1-3.8-2.2-3.8-3.3c0-1,1.5-2.3,3.8-3.3c0.6-0.2,1.2-0.5,1.8-0.7
		c0.4,1.3,0.9,2.6,1.5,3.9c-0.6,1.3-1.1,2.6-1.4,3.9C34.4,80.1,33.8,79.9,33.2,79.6z M36.7,88.9c-0.9-0.5-1.3-2.4-1-4.9
		c0.1-0.6,0.2-1.2,0.3-1.9c1.3,0.3,2.6,0.5,4.1,0.7c0.9,1.2,1.8,2.3,2.7,3.2c-2.1,2-4.1,3-5.4,3C37,89,36.9,89,36.7,88.9z M52,83.9
		c0.3,2.5-0.1,4.4-0.9,4.9c-0.2,0.1-0.4,0.2-0.7,0.2c-1.3,0-3.3-1.1-5.4-3c0.9-0.9,1.8-2,2.7-3.2c1.5-0.2,2.8-0.4,4.1-0.7
		C51.8,82.7,51.9,83.3,52,83.9z M54.5,79.6c-0.6,0.2-1.2,0.5-1.8,0.7c-0.4-1.3-0.9-2.6-1.5-3.9c0.6-1.3,1.1-2.6,1.4-3.9
		c0.6,0.2,1.2,0.4,1.8,0.7c2.3,1,3.8,2.2,3.8,3.3C58.1,77.4,56.6,78.7,54.5,79.6z"/>
	<path class="st0" d="M37.4,62.3L37.4,62.3L37.4,62.3z"/>
	<circle class="st0" cx="43.8" cy="76.4" r="2.9"/>
	<path class="st0" d="M50.3,62.3L50.3,62.3L50.3,62.3z"/>
</g>
<g id="g3013" transform="translate(95.428571,270.18109)">
	<polygon id="polygon2989" class="st8" points="300.6,-165.1 290.2,-168 287.9,-194 313.4,-194 311.1,-168 	"/>
	<polygon id="polygon2991" class="st0" points="309.1,-169.6 311,-191.9 300.6,-191.9 300.6,-167.3 	"/>
	<polygon id="polygon2993" class="st9" points="293.2,-182.2 293.5,-179 300.6,-179 300.6,-182.2 	"/>
	<polygon id="polygon2995" class="st9" points="292.6,-188.7 292.9,-185.5 300.6,-185.5 300.6,-188.7 300.6,-188.7 	"/>
	<polygon id="polygon2997" class="st9" points="300.6,-173.9 300.6,-173.9 297.1,-174.9 296.8,-177.4 295.1,-177.4 293.6,-177.4 
		294.1,-172.4 300.6,-170.6 300.6,-170.6 	"/>
	<path id="path2999" d="M293.9-201.1h3.9v1.6h-2.2v1.6h2.2v1.6h-3.9V-201.1z"/>
	<path id="path3001" d="M298.5-201.1h3.9v1.4h-2.2v0.3h2.2v3.2h-3.9v-1.5h2.2v-0.3h-2.2V-201.1z"/>
	<path id="path3003" d="M303.2-201.1h3.9v1.4h-2.2v0.3h2.2v3.2h-3.9v-1.5h2.2v-0.3h-2.2V-201.1z"/>
	<polygon id="polygon3005" class="st10" points="308,-182.2 308.6,-188.7 300.6,-188.7 300.6,-185.5 305.1,-185.5 304.8,-182.2 
		300.6,-182.2 300.6,-179 304.5,-179 304.2,-174.9 300.6,-173.9 300.6,-170.6 307.2,-172.4 307.2,-173 308,-181.4 	"/>
</g>
<g id="g3054" transform="translate(524,270.18109)">
	<polygon id="polygon3028" class="st11" points="-144,-194 -146.3,-168 -156.7,-165.1 -167.1,-168 -169.5,-194 	"/>
	<polygon id="polygon3030" class="st1" points="-156.7,-167.3 -148.3,-169.6 -146.3,-191.9 -156.7,-191.9 	"/>
	<polygon id="polygon3032" class="st9" points="-161.2,-185.5 -156.7,-185.5 -156.7,-188.7 -156.7,-188.7 -164.7,-188.7 
		-164.6,-187.8 -163.9,-179 -156.7,-179 -156.7,-182.2 -160.9,-182.2 	"/>
	<polygon id="polygon3034" class="st9" points="-160.5,-177.4 -162.2,-177.4 -163.7,-177.4 -163.3,-172.4 -156.7,-170.6 
		-156.7,-170.6 -156.7,-173.9 -156.7,-173.9 -160.3,-174.9 	"/>
	<path id="path3036" d="M-167.1-201.1h1.6v1.6h1.5v-1.6h1.6v4.9h-1.6v-1.6h-1.5v1.6h-1.6V-201.1L-167.1-201.1z"/>
	<path id="path3038" d="M-160.2-199.5h-1.4v-1.6h4.5v1.6h-1.4v3.2h-1.6L-160.2-199.5L-160.2-199.5z"/>
	<path id="path3040" d="M-156.5-201.1h1.7l1,1.7l1-1.7h1.7v4.9h-1.6v-2.4l-1.1,1.7l0,0l-1.1-1.7v2.4h-1.6L-156.5-201.1L-156.5-201.1
		z"/>
	<path id="path3042" d="M-150.2-201.1h1.6v3.2h2.3v1.6h-3.9L-150.2-201.1L-150.2-201.1z"/>
	<polygon id="polygon3044" class="st10" points="-156.7,-179 -152.8,-179 -153.2,-174.9 -156.7,-173.9 -156.7,-170.6 -150.2,-172.4 
		-150.1,-173 -149.4,-181.4 -149.3,-182.2 -150.2,-182.2 -156.7,-182.2 	"/>
	<polygon id="polygon3046" class="st10" points="-156.7,-185.5 -156.7,-185.5 -149,-185.5 -149,-185.5 -149,-185.5 -148.9,-186.2 
		-148.8,-187.8 -148.7,-188.7 -156.7,-188.7 -156.7,-186.7 	"/>
</g>
<g>
	<polygon class="st12" points="346,103.5 333.2,103.5 333.2,103.5 320.4,103.5 322.8,129.5 333.2,132.4 333.2,132.4 333.2,132.4 
		333.2,132.4 333.2,132.4 343.6,129.5 	"/>
	<polygon class="st4" points="333.2,105.6 333.2,130.2 333.2,130.2 341.6,127.8 343.7,105.6 	"/>
	<polygon class="st10" points="339.9,108.8 326.9,108.8 326,118.5 326.1,118.5 337.1,118.5 336.7,122.6 333.2,123.6 329.6,122.6 
		329.4,120.1 326.2,120.1 326.6,125.1 333.2,126.9 339.7,125.1 340.6,115.3 329,115.3 329.1,112 337.2,112 337.3,113.9 340.6,113.9 
			"/>
	<g>
		<path class="st13" d="M333.2,108.8H327l-0.9,9.7v-0.1h7.1v-3.2h-3.8l0.1-3.3h3.6L333.2,108.8L333.2,108.8z M329.4,120.1h-3.2
			l0.5,5l6.5,1.9v-3.3l-3.6-1L329.4,120.1z"/>
	</g>
	<g>
		<polygon class="st14" points="330.7,99.6 328.4,99.6 328.4,101.3 330.7,101.3 331.9,101.3 332.3,101.3 332.3,96.4 330.7,96.4 		
			"/>
		<path class="st14" d="M338,96.5h-4c0,0,0,0.9,0,1.7c0.5,0.5,0.8,0.8,1.6,1.6c-0.4,0-1.6,0-1.6,0v1.6h4v-1.6l-1.6-1.6h1.6V96.5z"/>
	</g>
</g>
<g>
	<path class="st0" d="M139.4,59.3c0.2-0.3,0.3-0.7,0.3-1V46.6c0-0.3-0.1-0.7-0.3-1l-11.9,6.9L139.4,59.3z"/>
	<path class="st8" d="M128.6,66l10.1-5.8c0.3-0.2,0.6-0.5,0.7-0.8l-11.9-6.9l-11.9,6.9c0.2,0.3,0.5,0.6,0.7,0.8l10.1,5.8
		C127,66.3,128,66.3,128.6,66z"/>
	<path class="st7" d="M139.4,45.6c-0.2-0.3-0.5-0.6-0.7-0.8l-10.1-5.8c-0.6-0.3-1.5-0.3-2.1,0l-10.1,5.8c-0.6,0.3-1.1,1.2-1.1,1.8
		v11.7c0,0.3,0.1,0.7,0.3,1l11.9-6.9L139.4,45.6z"/>
	<g>
		<path class="st10" d="M127.5,60.6c-4.5,0-8.2-3.7-8.2-8.2s3.7-8.2,8.2-8.2c2.9,0,5.6,1.6,7.1,4.1l-3.5,2c-0.7-1.3-2.1-2-3.5-2
			c-2.2,0-4.1,1.8-4.1,4.1c0,2.2,1.8,4.1,4.1,4.1c1.5,0,2.8-0.8,3.5-2l3.5,2C133.1,59,130.4,60.6,127.5,60.6z"/>
	</g>
	<g>
		<polygon class="st10" points="135.7,52 134.8,52 134.8,51.1 133.9,51.1 133.9,52 133,52 133,52.9 133.9,52.9 133.9,53.8 
			134.8,53.8 134.8,52.9 135.7,52.9 		"/>
	</g>
	<g>
		<polygon class="st10" points="139.1,52 138.2,52 138.2,51.1 137.3,51.1 137.3,52 136.4,52 136.4,52.9 137.3,52.9 137.3,53.8 
			138.2,53.8 138.2,52.9 139.1,52.9 		"/>
	</g>
</g>
</svg>
