<?xml version="1.0" encoding="UTF-8" standalone="no"?>
<!-- Created with Inkscape (http://www.inkscape.org/) -->

<svg
   xmlns:dc="http://purl.org/dc/elements/1.1/"
   xmlns:cc="http://creativecommons.org/ns#"
   xmlns:rdf="http://www.w3.org/1999/02/22-rdf-syntax-ns#"
   xmlns:svg="http://www.w3.org/2000/svg"
   xmlns="http://www.w3.org/2000/svg"
   xmlns:sodipodi="http://sodipodi.sourceforge.net/DTD/sodipodi-0.dtd"
   xmlns:inkscape="http://www.inkscape.org/namespaces/inkscape"
   width="80"
   height="400"
   viewBox="0 0 21.166666 105.83333"
   version="1.1"
   id="svg5105"
   inkscape:version="0.92.2 (5c3e80d, 2017-08-06)"
   sodipodi:docname="graph-y.svg">
  <defs
     id="defs5099" />
  <sodipodi:namedview
     id="base"
     pagecolor="#ffffff"
     bordercolor="#666666"
     borderopacity="1.0"
     inkscape:pageopacity="0.0"
     inkscape:pageshadow="2"
     inkscape:zoom="1.4"
     inkscape:cx="-282.46633"
     inkscape:cy="270.15513"
     inkscape:document-units="mm"
     inkscape:current-layer="layer1"
     showgrid="false"
     units="px"
     inkscape:window-width="1920"
     inkscape:window-height="986"
     inkscape:window-x="-11"
     inkscape:window-y="-11"
     inkscape:window-maximized="1" />
  <metadata
     id="metadata5102">
    <rdf:RDF>
      <cc:Work
         rdf:about="">
        <dc:format>image/svg+xml</dc:format>
        <dc:type
           rdf:resource="http://purl.org/dc/dcmitype/StillImage" />
        <dc:title />
      </cc:Work>
    </rdf:RDF>
  </metadata>
  <g
     inkscape:label="Layer 1"
     inkscape:groupmode="layer"
     id="layer1"
     transform="translate(0,-191.16667)">
    <path
       style="fill:#f9f9f9;fill-opacity:1;stroke:none;stroke-width:0.08379149px;stroke-linecap:butt;stroke-linejoin:miter;stroke-opacity:1"
       d="m 16.055298,287.5399 3.585341,-5.58144 c -0.74592,0.31772 -1.62865,0.53129 -2.56831,0.62141 v -76.98141 c 0.90094,0.0967 1.74526,0.30713 2.46199,0.61378 l -3.588071,-5.58547 -3.584802,5.58144 c 0.74592,-0.31772 1.628621,-0.5313 2.568311,-0.62141 v 76.98141 c -0.90093,-0.0966 -1.745261,-0.30712 -2.461991,-0.61378 z"
       id="path5117"
       inkscape:connector-curvature="0"
       sodipodi:nodetypes="ccccccccccc" />
    <text
       xml:space="preserve"
       style="font-style:normal;font-variant:normal;font-weight:normal;font-stretch:normal;font-size:10.58333302px;line-height:1.25;font-family:'Rabbid Highway Sign II';-inkscape-font-specification:'Rabbid Highway Sign II';letter-spacing:0px;word-spacing:0px;fill:#000000;fill-opacity:1;stroke:none;stroke-width:0.26458332"
       x="-163.28572"
       y="262.60416"
       id="text833"><tspan
         sodipodi:role="line"
         id="tspan831"
         x="-163.28572"
         y="271.86456"
         style="stroke-width:0.26458332"></tspan></text>
    <g
       aria-label="How much I like it"
       transform="rotate(-90)"
       style="font-style:normal;font-variant:normal;font-weight:normal;font-stretch:normal;font-size:10.58333302px;line-height:1.25;font-family:'Rabbid Highway Sign II';-inkscape-font-specification:'Rabbid Highway Sign II';letter-spacing:0px;word-spacing:0px;fill:#f9f9f9;fill-opacity:1;stroke:none;stroke-width:0.26458332"
       id="text837">
      <path
         d="M -273.53421,9.1373768 V 8.7790869 l 0.36518,-0.037896 q 0.0655,-0.00689 0.11024,-0.044786 0.0448,-0.041341 0.0448,-0.1102431 V 6.8808393 h -1.93959 v 1.7053222 q 0,0.068902 0.0448,0.1102431 0.0448,0.037896 0.11024,0.044786 l 0.37207,0.037896 v 0.3582899 h -2.06017 V 8.7790869 l 0.36863,-0.037896 q 0.0654,-0.00689 0.11024,-0.044786 0.0448,-0.041341 0.0448,-0.1102431 V 4.955031 q 0,-0.068902 -0.0448,-0.1102431 -0.0448,-0.041341 -0.11024,-0.048231 l -0.36863,-0.034451 V 4.4038157 h 2.06017 v 0.3582899 l -0.37207,0.034451 q -0.0655,0.00689 -0.11024,0.048231 -0.0448,0.041341 -0.0448,0.1102431 v 1.4745008 h 1.93959 V 4.955031 q 0,-0.068902 -0.0448,-0.1102431 -0.0448,-0.041341 -0.11024,-0.048231 l -0.36518,-0.034451 V 4.4038157 h 2.04983 v 0.3582899 l -0.36518,0.034451 q -0.0586,0.00689 -0.1068,0.048231 -0.0482,0.041341 -0.0482,0.1102431 v 3.6311305 q 0,0.068902 0.0448,0.1102431 0.0448,0.037896 0.11024,0.044786 l 0.36518,0.037896 v 0.3582899 z"
         style="font-style:normal;font-variant:normal;font-weight:normal;font-stretch:normal;font-size:7.05555534px;font-family:'Charis SIL';-inkscape-font-specification:'Charis SIL';fill:#f9f9f9;fill-opacity:1;stroke-width:0.26458332"
         id="path868" />
      <path
         d="m -268.41824,7.4286095 q 0,-0.1481391 -0.0138,-0.3100586 -0.0138,-0.1653646 -0.0482,-0.323839 -0.031,-0.1584744 -0.0896,-0.2997233 -0.0586,-0.1412489 -0.14814,-0.2480468 -0.0861,-0.106798 -0.2067,-0.1688097 -0.12058,-0.065457 -0.2825,-0.065457 -0.23771,0 -0.3893,0.1309136 -0.15158,0.1309136 -0.23771,0.3376193 -0.0827,0.2032607 -0.11713,0.4478624 -0.031,0.2446018 -0.031,0.4719781 0,0.1515842 0.0103,0.3169488 0.0138,0.1653646 0.0448,0.323839 0.0345,0.1584743 0.0896,0.2997233 0.0551,0.1412489 0.14125,0.2514919 0.0896,0.106798 0.21015,0.1722548 0.12058,0.062012 0.28594,0.062012 0.24116,0 0.39274,-0.1274685 0.15158,-0.1309137 0.23771,-0.3341743 0.0861,-0.2032606 0.11714,-0.4513075 0.0344,-0.2480468 0.0344,-0.4857584 z m 1.0542,0.00689 q 0,0.3961859 -0.12747,0.7269151 -0.12403,0.3272841 -0.36518,0.5649956 -0.24116,0.2342665 -0.58911,0.3651801 -0.34451,0.1309137 -0.78204,0.1309137 -0.40308,0 -0.73725,-0.1240235 -0.33073,-0.1240234 -0.57189,-0.3548448 -0.23771,-0.2308214 -0.37207,-0.5615505 -0.13091,-0.3341743 -0.13091,-0.7544759 0,-0.434082 0.1378,-0.7717014 0.13781,-0.3376193 0.38241,-0.5684407 0.24805,-0.2342665 0.58911,-0.3548449 0.34106,-0.1240234 0.75103,-0.1240234 0.43753,0 0.77515,0.1343587 0.33762,0.1343588 0.56844,0.3789605 0.23082,0.2411567 0.3514,0.575331 0.12058,0.3341742 0.12058,0.7372504 z"
         style="font-style:normal;font-variant:normal;font-weight:normal;font-stretch:normal;font-size:7.05555534px;font-family:'Charis SIL';-inkscape-font-specification:'Charis SIL';fill:#f9f9f9;fill-opacity:1;stroke-width:0.26458332"
         id="path870" />
      <path
         d="m -261.67275,6.074687 -0.94395,3.0626898 h -0.78548 l -0.76826,-2.5045844 -0.8096,2.5045844 h -0.76825 l -0.91295,-3.06958 -0.41686,-0.041341 V 5.6957265 h 1.80867 v 0.3307292 l -0.30316,0.020671 q -0.0586,0.00689 -0.093,0.051677 -0.031,0.044786 -0.0138,0.1033528 l 0.55121,1.9395887 0.78893,-2.4460177 h 0.77515 l 0.75792,2.4597981 0.58566,-1.9533691 q 0.0172,-0.051676 -0.0138,-0.099908 -0.0276,-0.048231 -0.0861,-0.055122 l -0.31006,-0.020671 V 5.6957265 h 1.35392 v 0.3307292 z"
         style="font-style:normal;font-variant:normal;font-weight:normal;font-stretch:normal;font-size:7.05555534px;font-family:'Charis SIL';-inkscape-font-specification:'Charis SIL';fill:#f9f9f9;fill-opacity:1;stroke-width:0.26458332"
         id="path872" />
      <path
         d="M -254.67576,9.1373768 V 8.8066476 l 0.22049,-0.02067 q 0.062,-0.00689 0.11024,-0.051677 0.0517,-0.048231 0.0517,-0.1136881 v -1.698432 q 0,-0.1274686 -0.031,-0.2480469 -0.031,-0.1205784 -0.10335,-0.2135959 -0.0689,-0.093018 -0.18604,-0.1481391 -0.11713,-0.055122 -0.29283,-0.055122 -0.11369,0 -0.21704,0.020671 -0.0999,0.017226 -0.17915,0.037896 -0.0896,0.024116 -0.16881,0.055121 v 2.2496473 q 0,0.065457 0.0448,0.1136881 0.0448,0.044786 0.11024,0.051677 l 0.22049,0.02067 v 0.3307292 h -1.69499 V 8.8066476 l 0.21704,-0.02067 q 0.0655,-0.00689 0.11025,-0.051677 0.0482,-0.048231 0.0482,-0.1136881 v -1.698432 q 0,-0.1274686 -0.0344,-0.2480469 -0.0344,-0.1205784 -0.1068,-0.2135959 -0.0723,-0.093018 -0.18948,-0.1481391 -0.11369,-0.055122 -0.27905,-0.055122 -0.1447,0 -0.25494,0.020671 -0.1068,0.017226 -0.1757,0.037896 -0.0827,0.024116 -0.1378,0.055121 v 2.2496473 q 0,0.065457 0.0482,0.1136881 0.0482,0.044786 0.11369,0.051677 l 0.21704,0.02067 v 0.3307292 h -1.73633 V 8.8066476 l 0.26183,-0.02067 q 0.0655,-0.00689 0.11024,-0.051677 0.0448,-0.048231 0.0448,-0.1136881 V 6.257277 h -0.4513 V 5.967889 l 1.03697,-0.3582899 h 0.35485 V 6.040236 q 0.17914,-0.1205783 0.37207,-0.2135959 0.16536,-0.079237 0.36862,-0.1481391 0.20671,-0.068902 0.41341,-0.068902 0.19982,0 0.34107,0.055122 0.14125,0.051677 0.23771,0.1274686 0.0999,0.072347 0.16192,0.1550293 0.0654,0.082682 0.11369,0.1412489 0.2067,-0.1309137 0.4203,-0.2377116 0.093,-0.044786 0.19637,-0.086127 0.10335,-0.044786 0.21015,-0.079237 0.11024,-0.034451 0.21704,-0.055121 0.11024,-0.020671 0.2136,-0.020671 0.21359,0 0.36862,0.058567 0.15503,0.055122 0.26183,0.1481391 0.11024,0.093018 0.1757,0.2101509 0.0655,0.1136881 0.10335,0.2342664 0.0379,0.1205784 0.0482,0.2342665 0.0138,0.1102431 0.0138,0.1929254 v 1.9326985 q 0,0.065457 0.0448,0.1136881 0.0482,0.044786 0.11024,0.051677 l 0.25494,0.02067 v 0.3307292 z"
         style="font-style:normal;font-variant:normal;font-weight:normal;font-stretch:normal;font-size:7.05555534px;font-family:'Charis SIL';-inkscape-font-specification:'Charis SIL';fill:#f9f9f9;fill-opacity:1;stroke-width:0.26458332"
         id="path874" />
      <path
         d="M -249.95253,9.1373768 V 8.748081 q -0.1757,0.1343587 -0.36518,0.2377116 -0.16192,0.089573 -0.35829,0.1619195 -0.19637,0.075792 -0.39274,0.075792 -0.29973,0 -0.50299,-0.079237 -0.19981,-0.079237 -0.32039,-0.2273763 -0.12058,-0.1481391 -0.17226,-0.361735 -0.0482,-0.2135959 -0.0482,-0.4823134 V 6.2503869 h -0.4582 V 5.9609988 l 1.03698,-0.3513997 h 0.36862 v 2.1876356 q 0,0.1309136 0.0172,0.2687174 0.0172,0.1378038 0.0827,0.251492 0.0655,0.1136881 0.19293,0.1894802 0.13091,0.072347 0.35484,0.072347 0.11024,0 0.21015,-0.017225 0.10335,-0.017225 0.18259,-0.041341 0.0896,-0.027561 0.17226,-0.062012 V 6.2503869 h -0.44442 V 5.9609988 l 1.03008,-0.3513997 h 0.35829 v 3.0110134 q 0,0.065457 0.0482,0.1136881 0.0517,0.044786 0.11714,0.051677 l 0.31006,0.02067 v 0.3307292 z"
         style="font-style:normal;font-variant:normal;font-weight:normal;font-stretch:normal;font-size:7.05555534px;font-family:'Charis SIL';-inkscape-font-specification:'Charis SIL';fill:#f9f9f9;fill-opacity:1;stroke-width:0.26458332"
         id="path876" />
      <path
         d="m -245.03983,8.8273182 q -0.0896,0.041341 -0.22048,0.106798 -0.12747,0.065457 -0.29973,0.1309136 -0.16881,0.065457 -0.38585,0.110243 -0.21704,0.048231 -0.48576,0.048231 -0.41341,0 -0.73036,-0.1412489 -0.31694,-0.141249 -0.53399,-0.3789605 -0.21704,-0.2411567 -0.33072,-0.5546604 -0.11025,-0.3135037 -0.11025,-0.6614583 0,-0.4168565 0.14125,-0.7613661 0.1447,-0.3479546 0.3893,-0.5960015 0.24804,-0.2480469 0.57877,-0.3824056 0.33073,-0.1378038 0.70969,-0.1378038 0.27906,0 0.50299,0.058567 0.22393,0.055122 0.3824,0.1584744 0.16192,0.1033529 0.24805,0.2480469 0.0861,0.1412489 0.0861,0.3100586 0,0.1205783 -0.0448,0.217041 -0.0413,0.096463 -0.11024,0.1688097 -0.0689,0.068902 -0.15848,0.1067979 -0.0896,0.037896 -0.18603,0.037896 -0.11025,0 -0.18604,-0.01378 -0.0723,-0.01378 -0.12402,-0.034451 -0.0517,-0.024116 -0.0896,-0.048231 -0.0379,-0.027561 -0.0724,-0.051676 v -0.792372 q -0.0448,0 -0.0724,-0.00345 -0.0241,-0.00345 -0.062,-0.00345 -0.16192,0 -0.32384,0.082682 -0.15847,0.082682 -0.28594,0.2480469 -0.12747,0.1619195 -0.20671,0.4099663 -0.0792,0.2446018 -0.0792,0.5718859 0,0.3100586 0.0723,0.5615505 0.0758,0.2480469 0.2136,0.4237468 0.1378,0.1756998 0.33762,0.2721625 0.19981,0.093018 0.44786,0.093018 0.16192,0 0.32384,-0.044786 0.16192,-0.044786 0.29628,-0.1033528 0.1378,-0.058567 0.23426,-0.1136882 0.0999,-0.058567 0.13436,-0.086127 z"
         style="font-style:normal;font-variant:normal;font-weight:normal;font-stretch:normal;font-size:7.05555534px;font-family:'Charis SIL';-inkscape-font-specification:'Charis SIL';fill:#f9f9f9;fill-opacity:1;stroke-width:0.26458332"
         id="path878" />
      <path
         d="M -242.36643,9.1373768 V 8.8066476 l 0.22393,-0.02067 q 0.0654,-0.00689 0.11024,-0.051677 0.0448,-0.048231 0.0448,-0.1136881 V 6.9566314 q 0,-0.086127 -0.0207,-0.2067057 -0.0172,-0.1205784 -0.0792,-0.2273763 -0.062,-0.1102431 -0.17915,-0.1860352 -0.11713,-0.079237 -0.3135,-0.079237 -0.1068,0 -0.22393,0.017225 -0.11369,0.01378 -0.2136,0.031006 -0.11368,0.020671 -0.22393,0.044786 v 2.2703179 q 0,0.065457 0.0448,0.1136881 0.0448,0.044786 0.11024,0.051677 l 0.2446,0.02067 v 0.3307292 h -1.79145 V 8.8066476 l 0.28939,-0.02067 q 0.0655,-0.00689 0.11024,-0.051677 0.0448,-0.048231 0.0448,-0.1136881 V 4.558845 h -0.49954 V 4.269457 l 1.07832,-0.3548448 h 0.36862 v 2.132514 q 0.19637,-0.1205783 0.40997,-0.217041 0.0896,-0.041341 0.18948,-0.079237 0.10335,-0.041341 0.2067,-0.072347 0.1068,-0.031006 0.2136,-0.048231 0.11024,-0.020671 0.2136,-0.020671 0.2067,0 0.35829,0.055122 0.15503,0.051677 0.26182,0.141249 0.11025,0.086127 0.1757,0.2032606 0.0689,0.1136881 0.1068,0.2377116 0.0379,0.1240234 0.0517,0.2480468 0.0138,0.1205784 0.0138,0.2239312 v 1.9016927 q 0,0.065457 0.0448,0.1136881 0.0448,0.044786 0.11025,0.051677 l 0.29628,0.02067 v 0.3307292 z"
         style="font-style:normal;font-variant:normal;font-weight:normal;font-stretch:normal;font-size:7.05555534px;font-family:'Charis SIL';-inkscape-font-specification:'Charis SIL';fill:#f9f9f9;fill-opacity:1;stroke-width:0.26458332"
         id="path880" />
      <path
         d="M -238.17031,9.1373768 V 8.7790869 l 0.43753,-0.037896 q 0.0655,-0.00689 0.11024,-0.044786 0.0448,-0.041341 0.0448,-0.1102431 V 4.955031 q 0,-0.068902 -0.0448,-0.1102431 -0.0448,-0.041341 -0.11024,-0.048231 l -0.43753,-0.034451 V 4.4038157 h 2.20142 v 0.3582899 l -0.43753,0.034451 q -0.0586,0.00689 -0.11024,0.048231 -0.0517,0.041341 -0.0517,0.1102431 v 3.6311305 q 0,0.068902 0.0517,0.1102431 0.0517,0.037896 0.11024,0.044786 l 0.43753,0.037896 v 0.3582899 z"
         style="font-style:normal;font-variant:normal;font-weight:normal;font-stretch:normal;font-size:7.05555534px;font-family:'Charis SIL';-inkscape-font-specification:'Charis SIL';fill:#f9f9f9;fill-opacity:1;stroke-width:0.26458332"
         id="path882" />
      <path
         d="M -233.52632,9.1373768 V 8.8066476 l 0.34796,-0.02067 q 0.0689,-0.00689 0.11024,-0.051677 0.0448,-0.044786 0.0448,-0.1136881 V 4.558845 h -0.50298 V 4.269457 l 1.08176,-0.3548448 h 0.35829 v 4.7060003 q 0,0.068902 0.0413,0.1136881 0.0448,0.044786 0.11369,0.051677 l 0.35484,0.02067 v 0.3307292 z"
         style="font-style:normal;font-variant:normal;font-weight:normal;font-stretch:normal;font-size:7.05555534px;font-family:'Charis SIL';-inkscape-font-specification:'Charis SIL';fill:#f9f9f9;fill-opacity:1;stroke-width:0.26458332"
         id="path884" />
      <path
         d="M -231.14576,9.1373768 V 8.8066476 l 0.32384,-0.02067 q 0.062,-0.00689 0.1068,-0.051677 0.0482,-0.048231 0.0482,-0.1136881 V 6.2503869 h -0.45131 V 5.9609988 l 1.03009,-0.3513997 h 0.35829 v 3.0110134 q 0,0.065457 0.0482,0.1136881 0.0517,0.044786 0.11369,0.051677 l 0.34106,0.02067 v 0.3307292 z m 1.51584,-4.6784395 q 0,0.1136881 -0.0448,0.2135959 -0.0413,0.099908 -0.11714,0.1756998 -0.0758,0.075792 -0.1757,0.1205784 -0.0999,0.041341 -0.21359,0.041341 -0.11369,0 -0.2136,-0.041341 -0.0999,-0.044786 -0.17225,-0.1205784 -0.0724,-0.075792 -0.11714,-0.1756998 -0.0413,-0.099908 -0.0413,-0.2135959 0,-0.1136882 0.0413,-0.213596 0.0448,-0.099908 0.11714,-0.1722547 0.0723,-0.072347 0.17225,-0.1136882 0.0999,-0.044786 0.2136,-0.044786 0.11369,0 0.21359,0.044786 0.0999,0.041341 0.1757,0.1136882 0.0758,0.072347 0.11714,0.1722547 0.0448,0.099908 0.0448,0.213596 z"
         style="font-style:normal;font-variant:normal;font-weight:normal;font-stretch:normal;font-size:7.05555534px;font-family:'Charis SIL';-inkscape-font-specification:'Charis SIL';fill:#f9f9f9;fill-opacity:1;stroke-width:0.26458332"
         id="path886" />
      <path
         d="m -226.32951,9.1373768 v -0.289388 l -0.77515,-1.3056912 h -0.33073 v 1.0783149 q 0,0.065457 0.0413,0.1136881 0.0448,0.044786 0.11369,0.051677 l 0.2825,0.02067 v 0.3307292 h -1.83624 V 8.8066476 l 0.29628,-0.02067 q 0.0655,-0.00689 0.11024,-0.051677 0.0448,-0.048231 0.0448,-0.1136881 V 4.558845 h -0.49265 V 4.269457 l 1.07831,-0.3548448 h 0.36174 V 7.304586 h 0.15503 l 0.94395,-1.1299912 q 0.0345,-0.037896 0.0172,-0.075792 -0.0138,-0.037896 -0.0655,-0.044786 l -0.26871,-0.027561 V 5.6957265 h 1.46761 v 0.3307292 l -0.46509,0.055122 -0.75448,0.8612738 1.08521,1.8293457 0.41685,0.034451 v 0.3307292 z"
         style="font-style:normal;font-variant:normal;font-weight:normal;font-stretch:normal;font-size:7.05555534px;font-family:'Charis SIL';-inkscape-font-specification:'Charis SIL';fill:#f9f9f9;fill-opacity:1;stroke-width:0.26458332"
         id="path888" />
      <path
         d="m -222.33665,6.8360531 q 0,-0.1688097 -0.031,-0.3169488 -0.031,-0.1481391 -0.10336,-0.2549371 -0.0689,-0.110243 -0.17914,-0.1722547 -0.11024,-0.065457 -0.26527,-0.065457 -0.19637,0 -0.33073,0.089572 -0.13092,0.086127 -0.2136,0.2273763 -0.0792,0.1378038 -0.11369,0.3100586 -0.0344,0.1722548 -0.0344,0.3376194 h 1.27124 z m 1.00941,1.9705945 q -0.18259,0.1205784 -0.40996,0.2101508 -0.19637,0.079237 -0.46853,0.141249 -0.27217,0.065457 -0.60979,0.065457 -0.4513,0 -0.78892,-0.1378038 -0.33418,-0.1378039 -0.56155,-0.3755154 -0.22393,-0.2411567 -0.33762,-0.5615506 -0.11025,-0.3203939 -0.11025,-0.6890191 0,-0.399631 0.12403,-0.7372504 0.12747,-0.3410644 0.35829,-0.5856662 0.23426,-0.2480469 0.56155,-0.3858507 0.33073,-0.1412489 0.7338,-0.1412489 0.41341,0 0.69936,0.1378038 0.28939,0.1343587 0.46853,0.361735 0.17915,0.2239312 0.25838,0.5133193 0.0827,0.289388 0.0827,0.5960015 v 0.1688096 h -2.3151 q 0,0.289388 0.0724,0.5202094 0.0723,0.2308214 0.21015,0.3927409 0.14125,0.1619195 0.34451,0.251492 0.20326,0.086127 0.46164,0.086127 0.26872,0 0.4892,-0.058567 0.22394,-0.062012 0.3893,-0.1378038 0.18948,-0.089572 0.34795,-0.1998155 z"
         style="font-style:normal;font-variant:normal;font-weight:normal;font-stretch:normal;font-size:7.05555534px;font-family:'Charis SIL';-inkscape-font-specification:'Charis SIL';fill:#f9f9f9;fill-opacity:1;stroke-width:0.26458332"
         id="path890" />
      <path
         d="M -218.81232,9.1373768 V 8.8066476 l 0.32384,-0.02067 q 0.062,-0.00689 0.1068,-0.051677 0.0482,-0.048231 0.0482,-0.1136881 V 6.2503869 h -0.4513 V 5.9609988 l 1.03008,-0.3513997 h 0.35829 v 3.0110134 q 0,0.065457 0.0482,0.1136881 0.0517,0.044786 0.11369,0.051677 l 0.34106,0.02067 v 0.3307292 z m 1.51585,-4.6784395 q 0,0.1136881 -0.0448,0.2135959 -0.0413,0.099908 -0.11713,0.1756998 -0.0758,0.075792 -0.1757,0.1205784 -0.0999,0.041341 -0.2136,0.041341 -0.11369,0 -0.21359,-0.041341 -0.0999,-0.044786 -0.17226,-0.1205784 -0.0724,-0.075792 -0.11713,-0.1756998 -0.0413,-0.099908 -0.0413,-0.2135959 0,-0.1136882 0.0413,-0.213596 0.0448,-0.099908 0.11713,-0.1722547 0.0724,-0.072347 0.17226,-0.1136882 0.0999,-0.044786 0.21359,-0.044786 0.11369,0 0.2136,0.044786 0.0999,0.041341 0.1757,0.1136882 0.0758,0.072347 0.11713,0.1722547 0.0448,0.099908 0.0448,0.213596 z"
         style="font-style:normal;font-variant:normal;font-weight:normal;font-stretch:normal;font-size:7.05555534px;font-family:'Charis SIL';-inkscape-font-specification:'Charis SIL';fill:#f9f9f9;fill-opacity:1;stroke-width:0.26458332"
         id="path892" />
      <path
         d="m -214.06497,8.9823475 q -0.16537,0.068902 -0.3514,0.1205783 -0.15848,0.048231 -0.36174,0.082682 -0.19981,0.037896 -0.41686,0.037896 -0.23426,0 -0.39963,-0.051677 -0.16192,-0.051676 -0.26527,-0.1584743 -0.0999,-0.1102431 -0.14469,-0.2721626 -0.0448,-0.1619195 -0.0448,-0.3858507 V 6.147034 h -0.46509 V 5.8645362 l 0.54433,-0.323839 0.37896,-0.7510308 h 0.4892 v 0.9060601 h 0.97841 V 6.147034 h -0.97841 v 1.9189181 q 0,0.3376194 0.14814,0.4754232 0.14814,0.1378038 0.43064,0.1378038 0.0827,0 0.16536,-0.00689 0.0827,-0.00689 0.14814,-0.017226 0.0758,-0.010335 0.1447,-0.024116 z"
         style="font-style:normal;font-variant:normal;font-weight:normal;font-stretch:normal;font-size:7.05555534px;font-family:'Charis SIL';-inkscape-font-specification:'Charis SIL';fill:#f9f9f9;fill-opacity:1;stroke-width:0.26458332"
         id="path894" />
    </g>
  </g>
</svg>
