<?xml version="1.0" encoding="UTF-8" standalone="no"?>
<!-- Created with Inkscape (http://www.inkscape.org/) -->

<svg
   xmlns:dc="http://purl.org/dc/elements/1.1/"
   xmlns:cc="http://creativecommons.org/ns#"
   xmlns:rdf="http://www.w3.org/1999/02/22-rdf-syntax-ns#"
   xmlns:svg="http://www.w3.org/2000/svg"
   xmlns="http://www.w3.org/2000/svg"
   xmlns:sodipodi="http://sodipodi.sourceforge.net/DTD/sodipodi-0.dtd"
   xmlns:inkscape="http://www.inkscape.org/namespaces/inkscape"
   width="480"
   height="80"
   viewBox="0 0 126.99999 21.166667"
   version="1.1"
   id="svg5694"
   inkscape:version="0.92.2 (5c3e80d, 2017-08-06)"
   sodipodi:docname="graph-x.svg">
  <defs
     id="defs5688" />
  <sodipodi:namedview
     id="base"
     pagecolor="#ffffff"
     bordercolor="#666666"
     borderopacity="1.0"
     inkscape:pageopacity="0.0"
     inkscape:pageshadow="2"
     inkscape:zoom="1.979899"
     inkscape:cx="227.42964"
     inkscape:cy="-8.9839066"
     inkscape:document-units="mm"
     inkscape:current-layer="layer1"
     showgrid="false"
     units="px"
     inkscape:window-width="1920"
     inkscape:window-height="986"
     inkscape:window-x="-11"
     inkscape:window-y="-11"
     inkscape:window-maximized="1" />
  <metadata
     id="metadata5691">
    <rdf:RDF>
      <cc:Work
         rdf:about="">
        <dc:format>image/svg+xml</dc:format>
        <dc:type
           rdf:resource="http://purl.org/dc/dcmitype/StillImage" />
        <dc:title />
      </cc:Work>
    </rdf:RDF>
  </metadata>
  <g
     inkscape:label="Layer 1"
     inkscape:groupmode="layer"
     id="layer1"
     transform="translate(0,-275.83332)">
    <path
       style="fill:#f9f9f9;fill-opacity:1;stroke:none;stroke-width:0.08503374px;stroke-linecap:butt;stroke-linejoin:miter;stroke-opacity:1"
       d="m 10.382872,283.893 6.737713,3.05877 c -0.383539,-0.63637 -0.641357,-1.38945 -0.750133,-2.19111 h 92.929188 c -0.11666,0.76862 -0.37076,1.48894 -0.74094,2.10041 l 6.74259,-3.0611 -6.73772,-3.05831 c 0.38355,0.63637 0.64138,1.38943 0.75014,2.19111 H 16.384517 c 0.116658,-0.76862 0.370752,-1.48894 0.740937,-2.10041 z"
       id="path5117"
       inkscape:connector-curvature="0"
       sodipodi:nodetypes="ccccccccccc" />
    <text
       xml:space="preserve"
       style="font-style:normal;font-variant:normal;font-weight:normal;font-stretch:normal;font-size:7.05555556px;line-height:1.25;font-family:'Charis SIL';-inkscape-font-specification:'Charis SIL';letter-spacing:0px;word-spacing:0px;fill:#000000;fill-opacity:1;stroke:none;stroke-width:0.26458332;"
       x="17.506155"
       y="314.50613"
       id="text840"><tspan
         sodipodi:role="line"
         id="tspan838"
         x="17.506155"
         y="323.76654"
         style="stroke-width:0.26458332;font-size:7.05555556px;-inkscape-font-specification:'Charis SIL';font-family:'Charis SIL';font-weight:normal;font-style:normal;font-stretch:normal;font-variant:normal;" /></text>
    <g
       aria-label="How much I've used it"
       style="font-style:normal;font-variant:normal;font-weight:normal;font-stretch:normal;font-size:10.58333302px;line-height:1.25;font-family:'Rabbid Highway Sign II';-inkscape-font-specification:'Rabbid Highway Sign II';letter-spacing:0px;word-spacing:0px;fill:#000000;fill-opacity:1;stroke:none;stroke-width:0.26458332"
       id="text844">
      <path
         d="m 29.210632,292.45642 v -0.35829 l 0.36518,-0.0379 q 0.06546,-0.007 0.110243,-0.0448 0.04479,-0.0413 0.04479,-0.11024 v -1.70533 h -1.939589 v 1.70533 q 0,0.0689 0.04479,0.11024 0.04479,0.0379 0.110243,0.0448 l 0.372071,0.0379 v 0.35829 h -2.060168 v -0.35829 l 0.368626,-0.0379 q 0.06546,-0.007 0.110243,-0.0448 0.04479,-0.0413 0.04479,-0.11024 v -3.63113 q 0,-0.0689 -0.04479,-0.11025 -0.04479,-0.0413 -0.110243,-0.0482 l -0.368626,-0.0344 v -0.35829 h 2.060168 v 0.35829 l -0.372071,0.0344 q -0.06546,0.007 -0.110243,0.0482 -0.04479,0.0413 -0.04479,0.11025 v 1.4745 h 1.939589 v -1.4745 q 0,-0.0689 -0.04479,-0.11025 -0.04479,-0.0413 -0.110243,-0.0482 l -0.36518,-0.0344 v -0.35829 h 2.049832 v 0.35829 l -0.36518,0.0344 q -0.05857,0.007 -0.106798,0.0482 -0.04823,0.0413 -0.04823,0.11025 v 3.63113 q 0,0.0689 0.04479,0.11024 0.04479,0.0379 0.110243,0.0448 l 0.36518,0.0379 v 0.35829 z"
         style="font-style:normal;font-variant:normal;font-weight:normal;font-stretch:normal;font-size:7.05555534px;font-family:'Charis SIL';-inkscape-font-specification:'Charis SIL';fill:#f9f9f9;fill-opacity:1;stroke-width:0.26458332"
         id="path846" />
      <path
         d="m 34.326599,290.74765 q 0,-0.14814 -0.01378,-0.31005 -0.01378,-0.16537 -0.04823,-0.32384 -0.03101,-0.15848 -0.08957,-0.29973 -0.05857,-0.14125 -0.148139,-0.24804 -0.08613,-0.1068 -0.206706,-0.16881 -0.120578,-0.0655 -0.282498,-0.0655 -0.237711,0 -0.389296,0.13091 -0.151584,0.13092 -0.237711,0.33762 -0.08268,0.20326 -0.117133,0.44786 -0.03101,0.24461 -0.03101,0.47198 0,0.15159 0.01033,0.31695 0.01378,0.16537 0.04479,0.32384 0.03445,0.15847 0.08957,0.29972 0.05512,0.14125 0.141249,0.2515 0.08957,0.10679 0.210151,0.17225 0.120578,0.062 0.285942,0.062 0.241157,0 0.392741,-0.12747 0.151585,-0.13091 0.237712,-0.33417 0.08613,-0.20326 0.117133,-0.45131 0.03445,-0.24804 0.03445,-0.48576 z m 1.054199,0.007 q 0,0.39619 -0.127468,0.72692 -0.124024,0.32728 -0.36518,0.56499 -0.241157,0.23427 -0.589112,0.36518 -0.344509,0.13092 -0.782036,0.13092 -0.403076,0 -0.737251,-0.12403 -0.330729,-0.12402 -0.571886,-0.35484 -0.237711,-0.23082 -0.37207,-0.56155 -0.130913,-0.33417 -0.130913,-0.75448 0,-0.43408 0.137803,-0.7717 0.137804,-0.33762 0.382406,-0.56844 0.248047,-0.23427 0.589111,-0.35484 0.341065,-0.12403 0.751031,-0.12403 0.437527,0 0.775146,0.13436 0.33762,0.13436 0.568441,0.37896 0.230822,0.24116 0.3514,0.57533 0.120578,0.33418 0.120578,0.73725 z"
         style="font-style:normal;font-variant:normal;font-weight:normal;font-stretch:normal;font-size:7.05555534px;font-family:'Charis SIL';-inkscape-font-specification:'Charis SIL';fill:#f9f9f9;fill-opacity:1;stroke-width:0.26458332"
         id="path848" />
      <path
         d="m 41.072096,289.39373 -0.943956,3.06269 h -0.785482 l -0.768256,-2.50458 -0.809598,2.50458 h -0.768256 l -0.91295,-3.06958 -0.416857,-0.0413 v -0.33073 h 1.808675 v 0.33073 l -0.303168,0.0207 q -0.05857,0.007 -0.09302,0.0517 -0.03101,0.0448 -0.01378,0.10335 l 0.551215,1.93959 0.788927,-2.44602 h 0.775147 l 0.757921,2.4598 0.585666,-1.95337 q 0.01722,-0.0517 -0.01378,-0.0999 -0.02756,-0.0482 -0.08613,-0.0551 l -0.310059,-0.0207 v -0.33073 h 1.353923 v 0.33073 z"
         style="font-style:normal;font-variant:normal;font-weight:normal;font-stretch:normal;font-size:7.05555534px;font-family:'Charis SIL';-inkscape-font-specification:'Charis SIL';fill:#f9f9f9;fill-opacity:1;stroke-width:0.26458332"
         id="path850" />
      <path
         d="m 48.069084,292.45642 v -0.33073 l 0.220486,-0.0207 q 0.06201,-0.007 0.110243,-0.0517 0.05168,-0.0482 0.05168,-0.11368 v -1.69844 q 0,-0.12746 -0.03101,-0.24804 -0.03101,-0.12058 -0.103353,-0.2136 -0.0689,-0.093 -0.186035,-0.14814 -0.117133,-0.0551 -0.292833,-0.0551 -0.113689,0 -0.217041,0.0207 -0.09991,0.0172 -0.179145,0.0379 -0.08957,0.0241 -0.16881,0.0551 v 2.24965 q 0,0.0654 0.04479,0.11368 0.04479,0.0448 0.110243,0.0517 l 0.220486,0.0207 v 0.33073 h -1.694987 v -0.33073 l 0.217041,-0.0207 q 0.06546,-0.007 0.110244,-0.0517 0.04823,-0.0482 0.04823,-0.11368 v -1.69844 q 0,-0.12746 -0.03445,-0.24804 -0.03445,-0.12058 -0.106798,-0.2136 -0.07235,-0.093 -0.18948,-0.14814 -0.113688,-0.0551 -0.279053,-0.0551 -0.144694,0 -0.254937,0.0207 -0.106798,0.0172 -0.1757,0.0379 -0.08268,0.0241 -0.137804,0.0551 v 2.24965 q 0,0.0654 0.04823,0.11368 0.04823,0.0448 0.113688,0.0517 l 0.217041,0.0207 v 0.33073 h -1.736328 v -0.33073 l 0.261827,-0.0207 q 0.06546,-0.007 0.110243,-0.0517 0.04479,-0.0482 0.04479,-0.11368 v -2.36334 H 43.75927 v -0.28939 l 1.036973,-0.35829 h 0.354845 v 0.43064 q 0.179145,-0.12058 0.372071,-0.2136 0.165364,-0.0792 0.368625,-0.14813 0.206705,-0.0689 0.413411,-0.0689 0.199816,0 0.341065,0.0551 0.141249,0.0517 0.237711,0.12747 0.09991,0.0724 0.16192,0.15503 0.06546,0.0827 0.113688,0.14125 0.206706,-0.13091 0.420301,-0.23771 0.09302,-0.0448 0.196371,-0.0861 0.103353,-0.0448 0.210151,-0.0792 0.110243,-0.0345 0.217041,-0.0551 0.110243,-0.0207 0.213596,-0.0207 0.213596,0 0.368625,0.0586 0.155029,0.0551 0.261827,0.14814 0.110243,0.093 0.1757,0.21015 0.06546,0.11369 0.103353,0.23427 0.0379,0.12057 0.04823,0.23426 0.01378,0.11025 0.01378,0.19293 v 1.9327 q 0,0.0654 0.04479,0.11368 0.04823,0.0448 0.110243,0.0517 l 0.254937,0.0207 v 0.33073 z"
         style="font-style:normal;font-variant:normal;font-weight:normal;font-stretch:normal;font-size:7.05555534px;font-family:'Charis SIL';-inkscape-font-specification:'Charis SIL';fill:#f9f9f9;fill-opacity:1;stroke-width:0.26458332"
         id="path852" />
      <path
         d="m 52.792309,292.45642 v -0.38929 q -0.1757,0.13435 -0.36518,0.23771 -0.161919,0.0896 -0.35829,0.16192 -0.19637,0.0758 -0.392741,0.0758 -0.299723,0 -0.502984,-0.0792 -0.199815,-0.0792 -0.320394,-0.22738 -0.120578,-0.14813 -0.172254,-0.36173 -0.04823,-0.2136 -0.04823,-0.48231 v -1.82246 h -0.458197 v -0.28939 l 1.036973,-0.3514 h 0.368626 v 2.18764 q 0,0.13091 0.01722,0.26872 0.01723,0.1378 0.08268,0.25149 0.06546,0.11369 0.192926,0.18948 0.130913,0.0724 0.354845,0.0724 0.110243,0 0.21015,-0.0172 0.103353,-0.0172 0.18259,-0.0413 0.08957,-0.0276 0.172255,-0.062 v -2.20831 h -0.444417 v -0.28939 l 1.030083,-0.3514 h 0.35829 v 3.01102 q 0,0.0654 0.04823,0.11368 0.05168,0.0448 0.117133,0.0517 l 0.310058,0.0207 v 0.33073 z"
         style="font-style:normal;font-variant:normal;font-weight:normal;font-stretch:normal;font-size:7.05555534px;font-family:'Charis SIL';-inkscape-font-specification:'Charis SIL';fill:#f9f9f9;fill-opacity:1;stroke-width:0.26458332"
         id="path854" />
      <path
         d="m 57.705016,292.14636 q -0.08957,0.0413 -0.220486,0.1068 -0.127469,0.0655 -0.299723,0.13091 -0.16881,0.0655 -0.385851,0.11025 -0.217041,0.0482 -0.485759,0.0482 -0.413411,0 -0.73036,-0.14125 -0.316949,-0.14125 -0.53399,-0.37896 -0.217041,-0.24116 -0.330729,-0.55466 -0.110243,-0.31351 -0.110243,-0.66146 0,-0.41686 0.141249,-0.76137 0.144694,-0.34795 0.389296,-0.596 0.248047,-0.24804 0.578776,-0.3824 0.330729,-0.13781 0.70969,-0.13781 0.279052,0 0.502983,0.0586 0.223932,0.0551 0.382406,0.15847 0.16192,0.10336 0.248047,0.24805 0.08613,0.14125 0.08613,0.31006 0,0.12058 -0.04479,0.21704 -0.04134,0.0965 -0.110243,0.16881 -0.0689,0.0689 -0.158474,0.1068 -0.08957,0.0379 -0.186036,0.0379 -0.110243,0 -0.186035,-0.0138 -0.07235,-0.0138 -0.124023,-0.0344 -0.05168,-0.0241 -0.08957,-0.0482 -0.0379,-0.0276 -0.07235,-0.0517 v -0.79238 q -0.04479,0 -0.07235,-0.003 -0.02411,-0.003 -0.06201,-0.003 -0.16192,0 -0.323839,0.0827 -0.158475,0.0827 -0.285943,0.24804 -0.127469,0.16192 -0.206706,0.40997 -0.07924,0.2446 -0.07924,0.57188 0,0.31006 0.07235,0.56156 0.07579,0.24804 0.213596,0.42374 0.137804,0.1757 0.337619,0.27216 0.199816,0.093 0.447863,0.093 0.161919,0 0.323839,-0.0448 0.161919,-0.0448 0.296278,-0.10336 0.137804,-0.0586 0.234266,-0.11369 0.09991,-0.0586 0.134359,-0.0861 z"
         style="font-style:normal;font-variant:normal;font-weight:normal;font-stretch:normal;font-size:7.05555534px;font-family:'Charis SIL';-inkscape-font-specification:'Charis SIL';fill:#f9f9f9;fill-opacity:1;stroke-width:0.26458332"
         id="path856" />
      <path
         d="m 60.378409,292.45642 v -0.33073 l 0.223931,-0.0207 q 0.06546,-0.007 0.110243,-0.0517 0.04479,-0.0482 0.04479,-0.11368 v -1.66398 q 0,-0.0861 -0.02067,-0.20671 -0.01723,-0.12058 -0.07924,-0.22738 -0.06201,-0.11024 -0.179145,-0.18603 -0.117133,-0.0792 -0.313504,-0.0792 -0.106798,0 -0.223931,0.0172 -0.113688,0.0138 -0.213596,0.031 -0.113688,0.0207 -0.223931,0.0448 v 2.27032 q 0,0.0654 0.04479,0.11368 0.04479,0.0448 0.110243,0.0517 l 0.244602,0.0207 v 0.33073 h -1.79145 v -0.33073 l 0.289388,-0.0207 q 0.06546,-0.007 0.110244,-0.0517 0.04479,-0.0482 0.04479,-0.11368 v -4.06177 h -0.499539 v -0.28939 l 1.078315,-0.35484 h 0.368625 v 2.13251 q 0.19637,-0.12058 0.409966,-0.21704 0.08957,-0.0413 0.189481,-0.0792 0.103352,-0.0413 0.206705,-0.0723 0.106798,-0.031 0.213596,-0.0482 0.110243,-0.0207 0.213596,-0.0207 0.206706,0 0.35829,0.0551 0.155029,0.0517 0.261827,0.14125 0.110243,0.0861 0.1757,0.20326 0.0689,0.11369 0.106798,0.23772 0.0379,0.12402 0.05168,0.24804 0.01378,0.12058 0.01378,0.22393 v 1.9017 q 0,0.0654 0.04479,0.11368 0.04479,0.0448 0.110243,0.0517 l 0.296278,0.0207 v 0.33073 z"
         style="font-style:normal;font-variant:normal;font-weight:normal;font-stretch:normal;font-size:7.05555534px;font-family:'Charis SIL';-inkscape-font-specification:'Charis SIL';fill:#f9f9f9;fill-opacity:1;stroke-width:0.26458332"
         id="path858" />
      <path
         d="m 64.574536,292.45642 v -0.35829 l 0.437527,-0.0379 q 0.06546,-0.007 0.110243,-0.0448 0.04479,-0.0413 0.04479,-0.11024 v -3.63113 q 0,-0.0689 -0.04479,-0.11025 -0.04479,-0.0413 -0.110243,-0.0482 l -0.437527,-0.0344 v -0.35829 h 2.201416 v 0.35829 l -0.437527,0.0344 q -0.05857,0.007 -0.110243,0.0482 -0.05168,0.0413 -0.05168,0.11025 v 3.63113 q 0,0.0689 0.05168,0.11024 0.05168,0.0379 0.110243,0.0448 l 0.437527,0.0379 v 0.35829 z"
         style="font-style:normal;font-variant:normal;font-weight:normal;font-stretch:normal;font-size:7.05555534px;font-family:'Charis SIL';-inkscape-font-specification:'Charis SIL';fill:#f9f9f9;fill-opacity:1;stroke-width:0.26458332"
         id="path860" />
      <path
         d="m 67.440856,289.51431 -0.275607,-1.6502 q 0,-0.19637 0.09302,-0.3204 0.09302,-0.12402 0.310059,-0.12402 0.213596,0 0.310059,0.12402 0.09991,0.12403 0.09991,0.3204 l -0.282497,1.6502 z"
         style="font-style:normal;font-variant:normal;font-weight:normal;font-stretch:normal;font-size:7.05555534px;font-family:'Charis SIL';-inkscape-font-specification:'Charis SIL';fill:#f9f9f9;fill-opacity:1;stroke-width:0.26458332"
         id="path862" />
      <path
         d="m 71.71622,289.39373 -1.212674,3.06269 h -0.699354 l -1.129991,-3.06958 -0.416857,-0.0413 v -0.33073 h 1.856907 v 0.33073 l -0.323839,0.0207 q -0.06546,0.007 -0.09302,0.0517 -0.02756,0.0448 -0.0069,0.10335 l 0.692464,1.95337 0.768256,-1.95337 q 0.02067,-0.0517 -0.01378,-0.0999 -0.03445,-0.0482 -0.09302,-0.0551 l -0.296278,-0.0207 v -0.33073 h 1.371148 v 0.33073 z"
         style="font-style:normal;font-variant:normal;font-weight:normal;font-stretch:normal;font-size:7.05555534px;font-family:'Charis SIL';-inkscape-font-specification:'Charis SIL';fill:#f9f9f9;fill-opacity:1;stroke-width:0.26458332"
         id="path864" />
      <path
         d="m 74.689338,290.1551 q 0,-0.16881 -0.03101,-0.31695 -0.03101,-0.14814 -0.103353,-0.25494 -0.0689,-0.11024 -0.179145,-0.17225 -0.110243,-0.0655 -0.265272,-0.0655 -0.196371,0 -0.330729,0.0896 -0.130914,0.0861 -0.213596,0.22738 -0.07924,0.1378 -0.113688,0.31006 -0.03445,0.17225 -0.03445,0.33762 h 1.27124 z m 1.009413,1.97059 q -0.18259,0.12058 -0.409967,0.21015 -0.19637,0.0792 -0.468533,0.14125 -0.272162,0.0655 -0.609781,0.0655 -0.451308,0 -0.788927,-0.13781 -0.334175,-0.1378 -0.561551,-0.37551 -0.223931,-0.24116 -0.337619,-0.56155 -0.110243,-0.3204 -0.110243,-0.68902 0,-0.39963 0.124023,-0.73725 0.127469,-0.34107 0.35829,-0.58567 0.234267,-0.24804 0.561551,-0.38585 0.330729,-0.14125 0.733805,-0.14125 0.413411,0 0.699354,0.13781 0.289388,0.13436 0.468533,0.36173 0.179145,0.22393 0.258382,0.51332 0.08268,0.28939 0.08268,0.596 v 0.16881 h -2.315104 q 0,0.28939 0.07235,0.52021 0.07235,0.23082 0.21015,0.39274 0.141249,0.16192 0.34451,0.25149 0.203261,0.0861 0.461643,0.0861 0.268717,0 0.489203,-0.0586 0.223931,-0.062 0.389296,-0.13781 0.18948,-0.0896 0.347955,-0.19981 z"
         style="font-style:normal;font-variant:normal;font-weight:normal;font-stretch:normal;font-size:7.05555534px;font-family:'Charis SIL';-inkscape-font-specification:'Charis SIL';fill:#f9f9f9;fill-opacity:1;stroke-width:0.26458332"
         id="path866" />
      <path
         d="m 80.780266,292.45642 v -0.38929 q -0.1757,0.13435 -0.36518,0.23771 -0.161919,0.0896 -0.35829,0.16192 -0.19637,0.0758 -0.392741,0.0758 -0.299723,0 -0.502984,-0.0792 -0.199815,-0.0792 -0.320394,-0.22738 -0.120578,-0.14813 -0.172254,-0.36173 -0.04823,-0.2136 -0.04823,-0.48231 v -1.82246 h -0.458197 v -0.28939 l 1.036973,-0.3514 h 0.368626 v 2.18764 q 0,0.13091 0.01722,0.26872 0.01723,0.1378 0.08268,0.25149 0.06546,0.11369 0.192926,0.18948 0.130913,0.0724 0.354845,0.0724 0.110243,0 0.21015,-0.0172 0.103353,-0.0172 0.18259,-0.0413 0.08957,-0.0276 0.172255,-0.062 v -2.20831 h -0.444417 v -0.28939 l 1.030083,-0.3514 h 0.35829 v 3.01102 q 0,0.0654 0.04823,0.11368 0.05168,0.0448 0.117133,0.0517 l 0.310058,0.0207 v 0.33073 z"
         style="font-style:normal;font-variant:normal;font-weight:normal;font-stretch:normal;font-size:7.05555534px;font-family:'Charis SIL';-inkscape-font-specification:'Charis SIL';fill:#f9f9f9;fill-opacity:1;stroke-width:0.26458332"
         id="path868" />
      <path
         d="M 85.176207,290.09309 H 84.73868 l -0.07579,-0.565 q -0.0689,-0.0792 -0.213596,-0.12747 -0.144694,-0.0482 -0.33762,-0.0482 -0.248047,0 -0.389296,0.10335 -0.141248,0.0999 -0.141248,0.28595 0,0.10335 0.05857,0.19292 0.05857,0.0896 0.158475,0.16881 0.09991,0.0792 0.227376,0.15158 0.127468,0.0689 0.268717,0.14125 0.1757,0.0896 0.354845,0.18259 0.179145,0.093 0.320394,0.20671 0.141249,0.11369 0.230821,0.25494 0.08957,0.1378 0.08957,0.31695 0,0.33417 -0.127469,0.56155 -0.127468,0.22393 -0.330729,0.36518 -0.20326,0.1378 -0.461643,0.19637 -0.258382,0.062 -0.520209,0.062 -0.261827,0 -0.489204,-0.031 -0.223931,-0.0276 -0.396186,-0.0654 -0.199815,-0.0414 -0.368625,-0.0965 v -1.07142 h 0.444418 q 0.0069,0.0723 0.02067,0.18259 0.01378,0.11024 0.02756,0.21359 0.01378,0.12058 0.03445,0.2515 0.0069,0.0172 0.07924,0.0517 0.07235,0.031 0.172255,0.0655 0.09991,0.0344 0.210151,0.0586 0.110243,0.0241 0.19637,0.0241 0.179145,0 0.296278,-0.0482 0.117134,-0.0482 0.186035,-0.11713 0.0689,-0.0689 0.09646,-0.1447 0.02756,-0.0792 0.02756,-0.14125 0,-0.14469 -0.09302,-0.24804 -0.08957,-0.1068 -0.234266,-0.19293 -0.144694,-0.0861 -0.327284,-0.16192 -0.179145,-0.0792 -0.354845,-0.16881 -0.148139,-0.0723 -0.282498,-0.15847 -0.134359,-0.0861 -0.237711,-0.19293 -0.09991,-0.10679 -0.16192,-0.24115 -0.05857,-0.13436 -0.05857,-0.31006 0,-0.2446 0.103353,-0.44097 0.106798,-0.19982 0.296278,-0.33762 0.189481,-0.14125 0.447863,-0.21704 0.258382,-0.0758 0.568441,-0.0758 0.261827,0 0.468533,0.031 0.21015,0.0276 0.354844,0.0655 0.16881,0.0413 0.299724,0.093 z"
         style="font-style:normal;font-variant:normal;font-weight:normal;font-stretch:normal;font-size:7.05555534px;font-family:'Charis SIL';-inkscape-font-specification:'Charis SIL';fill:#f9f9f9;fill-opacity:1;stroke-width:0.26458332"
         id="path870" />
      <path
         d="m 88.014964,290.1551 q 0,-0.16881 -0.03101,-0.31695 -0.03101,-0.14814 -0.103353,-0.25494 -0.0689,-0.11024 -0.179145,-0.17225 -0.110243,-0.0655 -0.265272,-0.0655 -0.19637,0 -0.330729,0.0896 -0.130914,0.0861 -0.213596,0.22738 -0.07924,0.1378 -0.113688,0.31006 -0.03445,0.17225 -0.03445,0.33762 h 1.27124 z m 1.009413,1.97059 q -0.18259,0.12058 -0.409966,0.21015 -0.196371,0.0792 -0.468533,0.14125 -0.272163,0.0655 -0.609782,0.0655 -0.451308,0 -0.788927,-0.13781 -0.334174,-0.1378 -0.561551,-0.37551 -0.223931,-0.24116 -0.337619,-0.56155 -0.110243,-0.3204 -0.110243,-0.68902 0,-0.39963 0.124024,-0.73725 0.127468,-0.34107 0.358289,-0.58567 0.234267,-0.24804 0.561551,-0.38585 0.330729,-0.14125 0.733805,-0.14125 0.413412,0 0.699355,0.13781 0.289388,0.13436 0.468533,0.36173 0.179145,0.22393 0.258382,0.51332 0.08268,0.28939 0.08268,0.596 v 0.16881 h -2.315104 q 0,0.28939 0.07235,0.52021 0.07235,0.23082 0.210151,0.39274 0.141249,0.16192 0.344509,0.25149 0.203261,0.0861 0.461643,0.0861 0.268718,0 0.489204,-0.0586 0.223931,-0.062 0.389295,-0.13781 0.189481,-0.0896 0.347955,-0.19981 z"
         style="font-style:normal;font-variant:normal;font-weight:normal;font-stretch:normal;font-size:7.05555534px;font-family:'Charis SIL';-inkscape-font-specification:'Charis SIL';fill:#f9f9f9;fill-opacity:1;stroke-width:0.26458332"
         id="path872" />
      <path
         d="m 91.969936,289.47986 q -0.08268,-0.0344 -0.172255,-0.062 -0.07579,-0.0241 -0.165364,-0.0448 -0.08613,-0.0207 -0.165365,-0.0207 -0.244602,0 -0.427192,0.0999 -0.18259,0.0999 -0.303168,0.27561 -0.117134,0.1757 -0.1757,0.41341 -0.05857,0.23771 -0.05857,0.50987 0,0.27905 0.05512,0.50643 0.05857,0.22738 0.172255,0.39274 0.113688,0.16192 0.285942,0.25149 0.172255,0.0896 0.403077,0.0896 0.09646,0 0.192925,-0.0172 0.09991,-0.0207 0.179145,-0.0482 0.09302,-0.031 0.179145,-0.0689 z m 0,2.97656 v -0.40997 q -0.04134,0.0207 -0.148139,0.10336 -0.106798,0.0792 -0.258382,0.16881 -0.151585,0.0861 -0.334175,0.15503 -0.18259,0.0689 -0.375515,0.0689 -0.323839,0 -0.582221,-0.13092 -0.254937,-0.13091 -0.434082,-0.36173 -0.1757,-0.23082 -0.272163,-0.54777 -0.09302,-0.31695 -0.09302,-0.68902 0,-0.45475 0.137804,-0.80615 0.137803,-0.3514 0.382405,-0.58911 0.244602,-0.24116 0.582221,-0.36518 0.33762,-0.12403 0.737251,-0.12403 0.09991,0 0.213596,0.0138 0.117133,0.0138 0.217041,0.031 0.113688,0.0172 0.227376,0.0413 v -1.13688 h -0.523655 v -0.28939 l 1.098986,-0.35484 h 0.361735 v 4.706 q 0,0.0654 0.04479,0.11368 0.04479,0.0448 0.110243,0.0517 l 0.296278,0.0207 v 0.33073 z"
         style="font-style:normal;font-variant:normal;font-weight:normal;font-stretch:normal;font-size:7.05555534px;font-family:'Charis SIL';-inkscape-font-specification:'Charis SIL';fill:#f9f9f9;fill-opacity:1;stroke-width:0.26458332"
         id="path874" />
      <path
         d="m 95.838773,292.45642 v -0.33073 l 0.323839,-0.0207 q 0.06201,-0.007 0.106798,-0.0517 0.04823,-0.0482 0.04823,-0.11368 v -2.37023 h -0.451307 v -0.28939 l 1.030083,-0.3514 h 0.35829 v 3.01102 q 0,0.0654 0.04823,0.11368 0.05168,0.0448 0.113688,0.0517 l 0.341064,0.0207 v 0.33073 z m 1.515842,-4.67844 q 0,0.11369 -0.04479,0.2136 -0.04134,0.0999 -0.117133,0.1757 -0.07579,0.0758 -0.1757,0.12058 -0.09991,0.0413 -0.213596,0.0413 -0.113688,0 -0.213596,-0.0413 -0.09991,-0.0448 -0.172255,-0.12058 -0.07235,-0.0758 -0.117133,-0.1757 -0.04134,-0.0999 -0.04134,-0.2136 0,-0.11369 0.04134,-0.21359 0.04479,-0.0999 0.117133,-0.17226 0.07235,-0.0724 0.172255,-0.11369 0.09991,-0.0448 0.213596,-0.0448 0.113688,0 0.213596,0.0448 0.09991,0.0413 0.1757,0.11369 0.07579,0.0723 0.117133,0.17226 0.04479,0.0999 0.04479,0.21359 z"
         style="font-style:normal;font-variant:normal;font-weight:normal;font-stretch:normal;font-size:7.05555534px;font-family:'Charis SIL';-inkscape-font-specification:'Charis SIL';fill:#f9f9f9;fill-opacity:1;stroke-width:0.26458332"
         id="path876" />
      <path
         d="m 100.58611,292.30139 q -0.16536,0.0689 -0.3514,0.12058 -0.15847,0.0482 -0.36173,0.0827 -0.199816,0.0379 -0.416857,0.0379 -0.234266,0 -0.399631,-0.0517 -0.161919,-0.0517 -0.265272,-0.15847 -0.09991,-0.11025 -0.144694,-0.27217 -0.04479,-0.16191 -0.04479,-0.38585 v -2.2083 h -0.465088 v -0.2825 l 0.544325,-0.32384 0.37896,-0.75103 h 0.489204 v 0.90606 h 0.978409 v 0.45131 h -0.978409 v 1.91892 q 0,0.33762 0.148139,0.47542 0.148139,0.1378 0.43064,0.1378 0.0827,0 0.16536,-0.007 0.0827,-0.007 0.14814,-0.0172 0.0758,-0.0103 0.14469,-0.0241 z"
         style="font-style:normal;font-variant:normal;font-weight:normal;font-stretch:normal;font-size:7.05555534px;font-family:'Charis SIL';-inkscape-font-specification:'Charis SIL';fill:#f9f9f9;fill-opacity:1;stroke-width:0.26458332"
         id="path878" />
    </g>
  </g>
</svg>
