<?xml version="1.0" encoding="utf-8"?>
<!-- Generator: Adobe Illustrator 21.1.0, SVG Export Plug-In . SVG Version: 6.00 Build 0)  -->
<svg version="1.1" id="Layer_1" xmlns="http://www.w3.org/2000/svg" xmlns:xlink="http://www.w3.org/1999/xlink" x="0px" y="0px"
	 viewBox="0 0 40 40" style="enable-background:new 0 0 40 40;" xml:space="preserve">
<style type="text/css">
	.st0{fill:#261300;}
	.st1{fill:#B25E47;}
</style>
<g>
	<path class="st0" d="M8.5,8.6h22.9v22.9H8.5V8.6z"/>
	<path class="st1" d="M7.5,7.5v25h25v-25H7.5z M8.5,8.6h22.9v22.9H8.5V8.6z"/>
	<path class="st1" d="M16.2,21.7l-0.8,3.2c0,0.1-0.1,0.1-0.2,0.1h-1.5c-0.1,0-0.1,0-0.1-0.2l3-10.6c0.1-0.2,0.1-0.4,0.1-0.9
		c0-0.1,0-0.1,0.1-0.1h2.2c0.1,0,0.1,0,0.1,0.1l3.3,11.5c0,0.1,0,0.1-0.1,0.1h-1.7c-0.1,0-0.1,0-0.2-0.1l-0.9-3.2H16.2L16.2,21.7z
		 M19.1,19.9c-0.3-1.2-1-3.8-1.2-5h0c-0.2,1.2-0.8,3.4-1.2,5H19.1z M23.8,14c0-0.7,0.5-1.1,1.1-1.1c0.6,0,1.1,0.4,1.1,1.1
		c0,0.7-0.4,1.1-1.1,1.1C24.2,15.1,23.8,14.7,23.8,14L23.8,14z M23.9,16.4c0-0.1,0-0.1,0.1-0.1h1.6c0.1,0,0.1,0,0.1,0.1v8.4
		c0,0.1,0,0.1-0.1,0.1H24c-0.1,0-0.1-0.1-0.1-0.1L23.9,16.4L23.9,16.4z"/>
</g>
</svg>
