<?xml version="1.0" encoding="utf-8"?>
<!-- Generator: Adobe Illustrator 21.1.0, SVG Export Plug-In . SVG Version: 6.00 Build 0)  -->
<svg version="1.1" id="Layer_1" xmlns="http://www.w3.org/2000/svg" xmlns:xlink="http://www.w3.org/1999/xlink" x="0px" y="0px"
	 viewBox="0 0 40 40" style="enable-background:new 0 0 40 40;" xml:space="preserve">
<style type="text/css">
	.st0{fill:#4C576E;}
	.st1{fill:#353F55;}
	.st2{fill:#687185;}
	.st3{fill:#FFFFFF;}
</style>
<g>
	<path class="st0" d="M30.8,27.1c0.2-0.3,0.3-0.7,0.3-1V14.3c0-0.3-0.1-0.7-0.3-1l-11.9,6.9L30.8,27.1z"/>
	<path class="st1" d="M19.9,33.7l10.1-5.8c0.3-0.2,0.6-0.5,0.7-0.8l-11.9-6.9L7,27.1c0.2,0.3,0.5,0.6,0.7,0.8l10.1,5.8
		C18.4,34,19.4,34,19.9,33.7z"/>
	<path class="st2" d="M30.8,13.3c-0.2-0.3-0.5-0.6-0.7-0.8L19.9,6.7c-0.6-0.3-1.5-0.3-2.1,0L7.7,12.5c-0.6,0.3-1.1,1.2-1.1,1.8V26
		c0,0.3,0.1,0.7,0.3,1l11.9-6.9L30.8,13.3z"/>
	<g>
		<path class="st3" d="M18.9,28.3c-4.5,0-8.2-3.7-8.2-8.2s3.7-8.2,8.2-8.2c2.9,0,5.6,1.6,7.1,4.1l-3.5,2c-0.7-1.3-2.1-2-3.5-2
			c-2.2,0-4.1,1.8-4.1,4.1c0,2.2,1.8,4.1,4.1,4.1c1.5,0,2.8-0.8,3.5-2l3.5,2C24.5,26.8,21.8,28.3,18.9,28.3z"/>
	</g>
	<g>
		<polygon class="st3" points="27,19.7 26.1,19.7 26.1,18.8 25.2,18.8 25.2,19.7 24.3,19.7 24.3,20.6 25.2,20.6 25.2,21.5 
			26.1,21.5 26.1,20.6 27,20.6 		"/>
	</g>
	<g>
		<polygon class="st3" points="30.4,19.7 29.5,19.7 29.5,18.8 28.6,18.8 28.6,19.7 27.7,19.7 27.7,20.6 28.6,20.6 28.6,21.5 
			29.5,21.5 29.5,20.6 30.4,20.6 		"/>
	</g>
</g>
</svg>
