<?xml version="1.0" encoding="utf-8"?>
<!-- Generator: Adobe Illustrator 21.1.0, SVG Export Plug-In . SVG Version: 6.00 Build 0)  -->
<svg version="1.1" id="Layer_1" xmlns="http://www.w3.org/2000/svg" xmlns:xlink="http://www.w3.org/1999/xlink" x="0px" y="0px"
	 viewBox="0 0 40 40" style="enable-background:new 0 0 40 40;" xml:space="preserve">
<style type="text/css">
	.st0{fill:#353F55;}
	.st1{fill:#4C576E;}
	.st2{fill:#EBEBEB;}
	.st3{fill:#FFFFFF;}
</style>
<g id="g3013" transform="translate(95.428571,270.18109)">
	<polygon id="polygon2989" class="st0" points="-75.4,-232.2 -85.9,-235.1 -88.2,-261.1 -62.7,-261.1 -65,-235.1 	"/>
	<polygon id="polygon2991" class="st1" points="-67,-236.7 -65,-259 -75.4,-259 -75.4,-234.4 	"/>
	<polygon id="polygon2993" class="st2" points="-82.9,-249.3 -82.6,-246.1 -75.4,-246.1 -75.4,-249.3 	"/>
	<polygon id="polygon2995" class="st2" points="-83.4,-255.8 -83.1,-252.6 -75.4,-252.6 -75.4,-255.8 -75.4,-255.8 	"/>
	<polygon id="polygon2997" class="st2" points="-75.4,-241 -75.4,-241 -79,-242 -79.2,-244.5 -81,-244.5 -82.4,-244.5 -82,-239.5 
		-75.4,-237.7 -75.4,-237.7 	"/>
	<path id="path2999" d="M-82.2-268.2h3.9v1.6h-2.2v1.6h2.2v1.6h-3.9V-268.2z"/>
	<path id="path3001" d="M-77.5-268.2h3.9v1.4h-2.2v0.3h2.2v3.2h-3.9v-1.5h2.2v-0.3h-2.2V-268.2z"
		/>
	<path id="path3003" d="M-72.9-268.2h3.9v1.4h-2.2v0.3h2.2v3.2h-3.9v-1.5h2.2v-0.3h-2.2V-268.2z"
		/>
	<polygon id="polygon3005" class="st3" points="-68,-249.3 -67.4,-255.8 -75.4,-255.8 -75.4,-252.6 -70.9,-252.6 -71.2,-249.3 
		-75.4,-249.3 -75.4,-246.1 -71.5,-246.1 -71.9,-242 -75.4,-241 -75.4,-237.7 -68.9,-239.5 -68.8,-240.1 -68.1,-248.5 	"/>
</g>
</svg>
