<?xml version="1.0" encoding="utf-8"?>
<!-- Generator: Adobe Illustrator 21.1.0, SVG Export Plug-In . SVG Version: 6.00 Build 0)  -->
<svg version="1.1" id="Layer_1" xmlns="http://www.w3.org/2000/svg" xmlns:xlink="http://www.w3.org/1999/xlink" x="0px" y="0px"
	 viewBox="0 0 40 40" style="enable-background:new 0 0 40 40;" xml:space="preserve">
<style type="text/css">
	.st0{fill:#A54532;}
	.st1{fill:#B25E47;}
	.st2{fill:#EBEBEB;}
	.st3{fill:#FFFFFF;}
</style>
<g id="g3054" transform="translate(524,270.18109)">
	<polygon id="polygon3028" class="st0" points="-490.7,-261.5 -493.2,-234.5 -504,-231.5 -514.9,-234.5 -517.3,-261.5 	"/>
	<polygon id="polygon3030" class="st1" points="-504,-233.8 -495.2,-236.2 -493.2,-259.3 -504,-259.3 	"/>
	<polygon id="polygon3032" class="st2" points="-508.7,-252.7 -504,-252.7 -504,-256 -504,-256 -512.3,-256 -512.3,-255.1 
		-511.4,-246 -504,-246 -504,-249.3 -508.4,-249.3 	"/>
	<polygon id="polygon3034" class="st2" points="-508,-244.3 -509.8,-244.3 -511.3,-244.3 -510.8,-239.1 -504,-237.2 -504,-237.2 
		-504,-240.7 -504,-240.7 -507.7,-241.7 	"/>
	<path id="path3036" inkscape:connector-curvature="0" d="M-514.8-268.9h1.7v1.7h1.5v-1.7h1.7v5.1h-1.7v-1.7h-1.5v1.7h-1.7
		L-514.8-268.9L-514.8-268.9z"/>
	<path id="path3038" inkscape:connector-curvature="0" d="M-507.7-267.2h-1.5v-1.7h4.7v1.7h-1.5v3.4h-1.7L-507.7-267.2L-507.7-267.2
		z"/>
	<path id="path3040" inkscape:connector-curvature="0" d="M-503.8-268.9h1.8l1.1,1.8l1.1-1.8h1.8v5.1h-1.7v-2.5l-1.2,1.8h0l-1.2-1.8
		v2.5h-1.7V-268.9L-503.8-268.9z"/>
	<path id="path3042" inkscape:connector-curvature="0" d="M-497.2-268.9h1.7v3.4h2.4v1.7h-4.1V-268.9z"/>
	<polygon id="polygon3044" class="st3" points="-504,-246 -499.9,-246 -500.3,-241.7 -504,-240.7 -504,-237.2 -497.2,-239.1 
		-497.2,-239.6 -496.4,-248.4 -496.3,-249.3 -497.2,-249.3 -504,-249.3 	"/>
	<polygon id="polygon3046" class="st3" points="-504,-252.7 -504,-252.7 -496,-252.7 -496,-252.7 -496,-252.7 -495.9,-253.4 
		-495.8,-255.1 -495.7,-256 -504,-256 -504,-253.9 	"/>
</g>
</svg>
