<?xml version="1.0" encoding="utf-8"?>
<!-- Generator: Adobe Illustrator 21.1.0, SVG Export Plug-In . SVG Version: 6.00 Build 0)  -->
<svg version="1.1" id="Layer_1" xmlns="http://www.w3.org/2000/svg" xmlns:xlink="http://www.w3.org/1999/xlink" x="0px" y="0px"
	 viewBox="0 0 40 40" style="enable-background:new 0 0 40 40;" xml:space="preserve">
<style type="text/css">
	.st0{fill:#4C576E;}
	.st1{fill:#B25E47;}
</style>
<g>
	<path class="st0" d="M15.4,29.6c0,0-1.3,0.8,1,1c2.8,0.3,4.2,0.3,7.3-0.3c0,0,0.8,0.5,1.9,0.9C18.7,34.3,10,31.2,15.4,29.6"/>
	<path class="st0" d="M14.5,25.8c0,0-1.5,1.1,0.8,1.4c3,0.3,5.3,0.3,9.4-0.5c0,0,0.6,0.6,1.5,0.9C17.9,30,8.6,27.8,14.5,25.8"/>
	<path class="st1" d="M21.6,19.2c1.7,2-0.4,3.7-0.4,3.7s4.3-2.2,2.3-5c-1.9-2.6-3.3-3.9,4.4-8.4C27.9,9.6,15.9,12.6,21.6,19.2"/>
	<path class="st0" d="M30.8,32.5c0,0,1,0.8-1.1,1.5c-4,1.2-16.6,1.6-20.1,0c-1.3-0.5,1.1-1.3,1.8-1.5c0.8-0.2,1.2-0.1,1.2-0.1
		c-1.4-1-9,1.9-3.9,2.8C22.8,37.4,34.4,34.1,30.8,32.5"/>
	<path class="st0" d="M16,21.8c0,0-6.4,1.5-2.3,2.1c1.7,0.2,5.2,0.2,8.5-0.1c2.7-0.2,5.3-0.7,5.3-0.7s-0.9,0.4-1.6,0.9
		c-6.5,1.7-19.1,0.9-15.5-0.8C13.5,21.6,16,21.8,16,21.8"/>
	<path class="st0" d="M27.5,28.2c6.6-3.4,3.6-6.7,1.4-6.3c-0.5,0.1-0.8,0.2-0.8,0.2s0.2-0.3,0.6-0.4c4.2-1.5,7.5,4.4-1.4,6.7
		C27.4,28.4,27.5,28.3,27.5,28.2"/>
	<path class="st1" d="M23.5,2.4c0,0,3.7,3.7-3.5,9.3c-5.7,4.5-1.3,7.1,0,10c-3.3-3-5.8-5.7-4.1-8.1C18.3,10,25,8.2,23.5,2.4"/>
	<path class="st0" d="M16.7,37.5c6.3,0.4,16.1-0.2,16.3-3.2c0,0-0.4,1.1-5.2,2c-5.4,1-12.1,0.9-16.1,0.2
		C11.7,36.6,12.5,37.2,16.7,37.5"/>
</g>
</svg>
