<?xml version="1.0" encoding="utf-8"?>
<!-- Generator: Adobe Illustrator 21.1.0, SVG Export Plug-In . SVG Version: 6.00 Build 0)  -->
<svg version="1.1" id="Layer_1" xmlns="http://www.w3.org/2000/svg" xmlns:xlink="http://www.w3.org/1999/xlink" x="0px" y="0px"
	 viewBox="0 0 40 40" style="enable-background:new 0 0 40 40;" xml:space="preserve">
<style type="text/css">
	.st0{fill:#A4783B;}
	.st1{fill:#B4873F;}
	.st2{fill:#FFFFFF;}
	.st3{fill:#EBEAEA;}
	.st4{fill:#231F20;}
</style>
<g>
	<polygon class="st0" points="32.8,9.1 20,9.1 20,9.1 7.2,9.1 9.6,35.1 20,38 20,38 20,38 20,38 20,38 30.4,35.1 	"/>
	<polygon class="st1" points="20,11.2 20,35.8 20,35.8 28.4,33.4 30.5,11.2 	"/>
	<polygon class="st2" points="26.7,14.4 13.8,14.4 12.9,24.1 12.9,24 23.9,24 23.5,28.2 20,29.2 16.4,28.1 16.2,25.6 13,25.6 
		13.5,30.6 20,32.5 26.5,30.6 27.4,20.9 15.8,20.9 15.9,17.6 24,17.6 24.1,19.5 27.4,19.5 	"/>
	<g>
		<path class="st3" d="M20,14.4h-6.2l-0.9,9.7l0-0.1H20v-3.2h-3.8l0.1-3.3H20V14.4z M16.2,25.6H13l0.5,5l6.5,1.9v-3.3l-3.6-1
			L16.2,25.6z"/>
	</g>
	<g>
		<polygon class="st4" points="17.5,5.2 15.2,5.2 15.2,6.9 17.5,6.9 18.7,6.9 19.1,6.9 19.1,2 17.5,2 		"/>
		<path class="st4" d="M24.8,2h-4c0,0,0,0.9,0,1.7c0.5,0.5,0.8,0.8,1.6,1.6c-0.4,0-1.6,0-1.6,0v1.6h4V5.3l-1.6-1.6h1.6V2z"/>
	</g>
</g>
</svg>
