<?xml version="1.0" encoding="UTF-8" standalone="no"?>
<!-- Generator: Adobe Illustrator 21.1.0, SVG Export Plug-In . SVG Version: 6.00 Build 0)  -->

<svg
   xmlns:dc="http://purl.org/dc/elements/1.1/"
   xmlns:cc="http://creativecommons.org/ns#"
   xmlns:rdf="http://www.w3.org/1999/02/22-rdf-syntax-ns#"
   xmlns:svg="http://www.w3.org/2000/svg"
   xmlns="http://www.w3.org/2000/svg"
   xmlns:sodipodi="http://sodipodi.sourceforge.net/DTD/sodipodi-0.dtd"
   xmlns:inkscape="http://www.inkscape.org/namespaces/inkscape"
   version="1.1"
   id="Layer_1"
   x="0px"
   y="0px"
   viewBox="0 0 40 40"
   style="enable-background:new 0 0 40 40;"
   xml:space="preserve"
   sodipodi:docname="py.svg"
   inkscape:version="0.92.2 (5c3e80d, 2017-08-06)"><metadata
     id="metadata12"><rdf:RDF><cc:Work
         rdf:about=""><dc:format>image/svg+xml</dc:format><dc:type
           rdf:resource="http://purl.org/dc/dcmitype/StillImage" /></cc:Work></rdf:RDF></metadata><defs
     id="defs10" /><sodipodi:namedview
     pagecolor="#ffffff"
     bordercolor="#666666"
     borderopacity="1"
     objecttolerance="10"
     gridtolerance="10"
     guidetolerance="10"
     inkscape:pageopacity="0"
     inkscape:pageshadow="2"
     inkscape:window-width="1140"
     inkscape:window-height="659"
     id="namedview8"
     showgrid="false"
     inkscape:zoom="11.8"
     inkscape:cx="16.751327"
     inkscape:cy="12.386993"
     inkscape:window-x="0"
     inkscape:window-y="0"
     inkscape:window-maximized="0"
     inkscape:current-layer="Layer_1" /><style
     type="text/css"
     id="style2">
	.st0{fill:#4C576E;}
	.st1{fill:#B4873F;}
</style><g
     id="g1894"
     transform="matrix(0.8454933,0,0,0.8454933,365.32284,158.87837)"><path
       id="path8615"
       class="st0"
       d="m -408.5,-179 c -7.5,0 -7.1,3.3 -7.1,3.3 v 3.4 h 7.2 v 1 h -10 c 0,0 -4.8,-0.5 -4.8,7.1 0,7.6 4.2,7.3 4.2,7.3 h 2.5 v -3.5 c 0,0 -0.1,-4.2 4.1,-4.2 4.2,0 7.1,0 7.1,0 0,0 4,0.1 4,-3.9 0,-4 0,-6.5 0,-6.5 0,0 0.6,-4 -7.2,-4 z m -4,2.3 c 0.7,0 1.3,0.6 1.3,1.3 0,0.7 -0.6,1.3 -1.3,1.3 -0.7,0 -1.3,-0.6 -1.3,-1.3 0,-0.7 0.6,-1.3 1.3,-1.3 z"
       inkscape:connector-curvature="0"
       style="fill:#4c576e" /><path
       id="path8620"
       class="st1"
       d="m -408.3,-149.5 c 7.5,0 7.1,-3.3 7.1,-3.3 v -3.4 h -7.2 v -1 h 10 c 0,0 4.8,0.5 4.8,-7.1 0,-7.6 -4.2,-7.3 -4.2,-7.3 h -2.5 v 3.5 c 0,0 0.1,4.2 -4.1,4.2 -4.3,0 -7.1,0 -7.1,0 0,0 -4,-0.1 -4,3.9 0,4 0,6.5 0,6.5 0,0 -0.7,4 7.2,4 z m 3.9,-2.3 c -0.7,0 -1.3,-0.6 -1.3,-1.3 0,-0.7 0.6,-1.3 1.3,-1.3 0.7,0 1.3,0.6 1.3,1.3 0,0.7 -0.5,1.3 -1.3,1.3 z"
       inkscape:connector-curvature="0"
       style="fill:#b4873f" /></g></svg>