<?xml version="1.0" encoding="utf-8"?>
<!-- Generator: Adobe Illustrator 21.1.0, SVG Export Plug-In . SVG Version: 6.00 Build 0)  -->
<svg version="1.1" id="Layer_1" xmlns="http://www.w3.org/2000/svg" xmlns:xlink="http://www.w3.org/1999/xlink" x="0px" y="0px"
	 viewBox="0 0 40 40" style="enable-background:new 0 0 40 40;" xml:space="preserve">
<style type="text/css">
	.st0{fill:#4C576E;}
	.st1{fill:#B4873F;}
</style>
<g id="g1894" transform="translate(428.42338,184.2561)">
	<path id="path8615" class="st0" d="M-408.5-179c-7.5,0-7.1,3.3-7.1,3.3l0,3.4h7.2v1h-10c0,0-4.8-0.5-4.8,7.1s4.2,7.3,4.2,7.3h2.5
		v-3.5c0,0-0.1-4.2,4.1-4.2s7.1,0,7.1,0s4,0.1,4-3.9s0-6.5,0-6.5S-400.7-179-408.5-179z M-412.5-176.7c0.7,0,1.3,0.6,1.3,1.3
		s-0.6,1.3-1.3,1.3c-0.7,0-1.3-0.6-1.3-1.3S-413.2-176.7-412.5-176.7z"/>
	<path id="path8620" class="st1" d="M-408.3-149.5c7.5,0,7.1-3.3,7.1-3.3l0-3.4h-7.2v-1h10c0,0,4.8,0.5,4.8-7.1
		c0-7.6-4.2-7.3-4.2-7.3h-2.5v3.5c0,0,0.1,4.2-4.1,4.2c-4.3,0-7.1,0-7.1,0s-4-0.1-4,3.9s0,6.5,0,6.5S-416.2-149.5-408.3-149.5z
		 M-404.4-151.8c-0.7,0-1.3-0.6-1.3-1.3s0.6-1.3,1.3-1.3c0.7,0,1.3,0.6,1.3,1.3S-403.6-151.8-404.4-151.8z"/>
</g>
</svg>
