<?xml version="1.0" encoding="utf-8"?>
<!-- Generator: Adobe Illustrator 21.1.0, SVG Export Plug-In . SVG Version: 6.00 Build 0)  -->
<svg version="1.1" id="Layer_1" xmlns="http://www.w3.org/2000/svg" xmlns:xlink="http://www.w3.org/1999/xlink" x="0px" y="0px"
	 viewBox="0 0 40 40" style="enable-background:new 0 0 40 40;" xml:space="preserve">
<style type="text/css">
	.st0{fill:#4C576E;}
</style>
<g>
	<path class="st0" d="M35.8,20.5c0-2.1-2.6-4.1-6.6-5.3c0.9-4.1,0.5-7.4-1.3-8.4c-0.4-0.2-0.9-0.4-1.4-0.4v1.4
		c0.3,0,0.5,0.1,0.7,0.2c0.9,0.5,1.3,2.4,1,4.9c-0.1,0.6-0.2,1.2-0.3,1.9c-1.3-0.3-2.6-0.5-4.1-0.7c-0.9-1.2-1.8-2.3-2.7-3.2
		c2.1-2,4.1-3,5.4-3V6.4l0,0c-1.8,0-4.1,1.3-6.4,3.5c-2.3-2.2-4.7-3.4-6.4-3.4v1.4c1.3,0,3.3,1.1,5.4,3c-0.9,0.9-1.8,2-2.7,3.2
		c-1.5,0.2-2.8,0.4-4.1,0.7c-0.1-0.6-0.3-1.3-0.3-1.9c-0.3-2.5,0.1-4.4,0.9-4.9c0.2-0.1,0.4-0.2,0.7-0.2V6.4l0,0
		c-0.5,0-1,0.1-1.5,0.4c-1.8,1-2.2,4.3-1.3,8.4c-4,1.2-6.6,3.2-6.6,5.3c0,2.1,2.6,4.1,6.6,5.3c-0.9,4.1-0.5,7.4,1.3,8.4
		c0.4,0.2,0.9,0.4,1.5,0.4c1.8,0,4.1-1.3,6.4-3.5c2.3,2.2,4.7,3.4,6.4,3.4c0.5,0,1-0.1,1.5-0.4c1.8-1,2.2-4.3,1.3-8.4
		C33.2,24.5,35.8,22.5,35.8,20.5z M27.4,16.2c-0.2,0.8-0.5,1.7-0.9,2.5c-0.3-0.5-0.5-1-0.8-1.5c-0.3-0.5-0.6-1-0.9-1.5
		C25.7,15.8,26.6,15.9,27.4,16.2z M24.5,23c-0.5,0.9-1,1.7-1.6,2.5c-1,0.1-1.9,0.1-2.9,0.1c-1,0-1.9,0-2.9-0.1
		c-0.5-0.8-1.1-1.6-1.6-2.4c-0.5-0.8-0.9-1.7-1.3-2.6c0.4-0.9,0.9-1.7,1.3-2.6c0.5-0.9,1-1.7,1.6-2.5c1-0.1,1.9-0.1,2.9-0.1
		c1,0,1.9,0,2.9,0.1c0.5,0.8,1.1,1.6,1.6,2.4c0.5,0.8,0.9,1.7,1.3,2.6C25.4,21.3,25,22.2,24.5,23z M26.5,22.2
		c0.3,0.9,0.6,1.7,0.9,2.6c-0.8,0.2-1.7,0.4-2.7,0.5c0.3-0.5,0.6-1,0.9-1.5C26,23.2,26.3,22.7,26.5,22.2z M20,29.1
		c-0.6-0.6-1.2-1.3-1.8-2.1c0.6,0,1.2,0,1.8,0c0.6,0,1.2,0,1.8,0C21.2,27.8,20.6,28.4,20,29.1z M15.2,25.3c-0.9-0.1-1.8-0.3-2.6-0.5
		c0.2-0.8,0.5-1.7,0.9-2.5c0.3,0.5,0.5,1,0.8,1.5C14.6,24.3,14.9,24.8,15.2,25.3z M20,11.8c0.6,0.6,1.2,1.3,1.8,2.1
		c-0.6,0-1.2,0-1.8,0c-0.6,0-1.2,0-1.8,0C18.8,13.2,19.4,12.5,20,11.8z M15.2,15.6c-0.3,0.5-0.6,1-0.9,1.5c-0.3,0.5-0.6,1-0.8,1.5
		c-0.3-0.9-0.6-1.7-0.9-2.6C13.4,16,14.3,15.8,15.2,15.6z M9.4,23.7c-2.3-1-3.8-2.2-3.8-3.3c0-1,1.5-2.3,3.8-3.3
		c0.6-0.2,1.2-0.5,1.8-0.7c0.4,1.3,0.9,2.6,1.5,3.9c-0.6,1.3-1.1,2.6-1.4,3.9C10.5,24.2,9.9,24,9.4,23.7z M12.8,32.9
		c-0.9-0.5-1.3-2.4-1-4.9c0.1-0.6,0.2-1.2,0.3-1.9c1.3,0.3,2.6,0.5,4.1,0.7c0.9,1.2,1.8,2.3,2.7,3.2c-2.1,2-4.1,3-5.4,3
		C13.3,33.1,13,33,12.8,32.9z M28.1,28c0.3,2.5-0.1,4.4-0.9,4.9c-0.2,0.1-0.4,0.2-0.7,0.2c-1.3,0-3.3-1.1-5.4-3
		c0.9-0.9,1.8-2,2.7-3.2c1.5-0.2,2.8-0.4,4.1-0.7C27.9,26.8,28.1,27.4,28.1,28z M30.6,23.7c-0.6,0.2-1.2,0.5-1.8,0.7
		c-0.4-1.3-0.9-2.6-1.5-3.9c0.6-1.3,1.1-2.6,1.4-3.9c0.6,0.2,1.2,0.4,1.8,0.7c2.3,1,3.8,2.2,3.8,3.3C34.4,21.5,32.9,22.7,30.6,23.7z
		"/>
	<path class="st0" d="M13.5,6.4L13.5,6.4L13.5,6.4z"/>
	<circle class="st0" cx="20" cy="20.5" r="2.9"/>
	<path class="st0" d="M26.4,6.4L26.4,6.4L26.4,6.4z"/>
</g>
</svg>
